G04 #@! TF.GenerationSoftware,KiCad,Pcbnew,(5.1.4)-1*
G04 #@! TF.CreationDate,2023-03-06T13:27:41+02:00*
G04 #@! TF.ProjectId,Keyboard,4b657962-6f61-4726-942e-6b696361645f,rev?*
G04 #@! TF.SameCoordinates,Original*
G04 #@! TF.FileFunction,Legend,Bot*
G04 #@! TF.FilePolarity,Positive*
%FSLAX46Y46*%
G04 Gerber Fmt 4.6, Leading zero omitted, Abs format (unit mm)*
G04 Created by KiCad (PCBNEW (5.1.4)-1) date 2023-03-06 13:27:41*
%MOMM*%
%LPD*%
G04 APERTURE LIST*
%ADD10C,0.120000*%
%ADD11C,0.150000*%
%ADD12R,1.502000X1.302000*%
%ADD13O,1.802000X2.802000*%
%ADD14R,0.602000X2.352000*%
%ADD15R,0.652000X1.602000*%
%ADD16R,1.602000X0.652000*%
%ADD17R,1.902000X1.202000*%
%ADD18C,0.100000*%
%ADD19C,1.077000*%
%ADD20C,1.852000*%
%ADD21C,2.352000*%
%ADD22C,4.089800*%
%ADD23C,2.352000*%
%ADD24C,1.352000*%
%ADD25R,1.302000X1.002000*%
G04 APERTURE END LIST*
D10*
X87725000Y-91343750D02*
X83725000Y-91343750D01*
X87725000Y-88043750D02*
X87725000Y-91343750D01*
D11*
X63618750Y-88900000D02*
X63618750Y-94350000D01*
X71318750Y-88900000D02*
X71318750Y-94350000D01*
X63618750Y-94350000D02*
X71318750Y-94350000D01*
X81343750Y-106993750D02*
X80068750Y-106993750D01*
X91693750Y-107568750D02*
X91018750Y-107568750D01*
X91693750Y-97218750D02*
X91018750Y-97218750D01*
X81343750Y-97218750D02*
X82018750Y-97218750D01*
X81343750Y-107568750D02*
X82018750Y-107568750D01*
X81343750Y-97218750D02*
X81343750Y-97893750D01*
X91693750Y-97218750D02*
X91693750Y-97893750D01*
X91693750Y-107568750D02*
X91693750Y-106893750D01*
X81343750Y-107568750D02*
X81343750Y-106993750D01*
X70500000Y-101025000D02*
X75700000Y-101025000D01*
X75700000Y-101025000D02*
X75700000Y-95825000D01*
X75700000Y-95825000D02*
X70500000Y-95825000D01*
X70500000Y-95825000D02*
X70500000Y-101025000D01*
X74100000Y-98425000D02*
G75*
G03X74100000Y-98425000I-1000000J0D01*
G01*
D10*
X94341422Y-111208750D02*
X94858578Y-111208750D01*
X94341422Y-112628750D02*
X94858578Y-112628750D01*
X66758750Y-104383578D02*
X66758750Y-103866422D01*
X68178750Y-104383578D02*
X68178750Y-103866422D01*
X69140000Y-104383578D02*
X69140000Y-103866422D01*
X70560000Y-104383578D02*
X70560000Y-103866422D01*
X80252500Y-94064828D02*
X80252500Y-93547672D01*
X81672500Y-94064828D02*
X81672500Y-93547672D01*
X63383750Y-105189564D02*
X63383750Y-103985436D01*
X65203750Y-105189564D02*
X65203750Y-103985436D01*
X197056250Y-156237500D02*
X197056250Y-152337500D01*
X195056250Y-156237500D02*
X195056250Y-152337500D01*
X197056250Y-156237500D02*
X195056250Y-156237500D01*
X178006250Y-156237500D02*
X178006250Y-152337500D01*
X176006250Y-156237500D02*
X176006250Y-152337500D01*
X178006250Y-156237500D02*
X176006250Y-156237500D01*
X158956250Y-156237500D02*
X158956250Y-152337500D01*
X156956250Y-156237500D02*
X156956250Y-152337500D01*
X158956250Y-156237500D02*
X156956250Y-156237500D01*
X139906250Y-156237500D02*
X139906250Y-152337500D01*
X137906250Y-156237500D02*
X137906250Y-152337500D01*
X139906250Y-156237500D02*
X137906250Y-156237500D01*
X120856250Y-156237500D02*
X120856250Y-152337500D01*
X118856250Y-156237500D02*
X118856250Y-152337500D01*
X120856250Y-156237500D02*
X118856250Y-156237500D01*
X197056250Y-137187500D02*
X197056250Y-133287500D01*
X195056250Y-137187500D02*
X195056250Y-133287500D01*
X197056250Y-137187500D02*
X195056250Y-137187500D01*
X178006250Y-137187500D02*
X178006250Y-133287500D01*
X176006250Y-137187500D02*
X176006250Y-133287500D01*
X178006250Y-137187500D02*
X176006250Y-137187500D01*
X158956250Y-137250000D02*
X158956250Y-133350000D01*
X156956250Y-137250000D02*
X156956250Y-133350000D01*
X158956250Y-137250000D02*
X156956250Y-137250000D01*
X139906250Y-137187500D02*
X139906250Y-133287500D01*
X137906250Y-137187500D02*
X137906250Y-133287500D01*
X139906250Y-137187500D02*
X137906250Y-137187500D01*
X120856250Y-137125000D02*
X120856250Y-133225000D01*
X118856250Y-137125000D02*
X118856250Y-133225000D01*
X120856250Y-137125000D02*
X118856250Y-137125000D01*
X197056250Y-118137500D02*
X197056250Y-114237500D01*
X195056250Y-118137500D02*
X195056250Y-114237500D01*
X197056250Y-118137500D02*
X195056250Y-118137500D01*
X178006250Y-118137500D02*
X178006250Y-114237500D01*
X176006250Y-118137500D02*
X176006250Y-114237500D01*
X178006250Y-118137500D02*
X176006250Y-118137500D01*
X158956250Y-118137500D02*
X158956250Y-114237500D01*
X156956250Y-118137500D02*
X156956250Y-114237500D01*
X158956250Y-118137500D02*
X156956250Y-118137500D01*
X139906250Y-118137500D02*
X139906250Y-114237500D01*
X137906250Y-118137500D02*
X137906250Y-114237500D01*
X139906250Y-118137500D02*
X137906250Y-118137500D01*
X120856250Y-118137500D02*
X120856250Y-114237500D01*
X118856250Y-118137500D02*
X118856250Y-114237500D01*
X120856250Y-118137500D02*
X118856250Y-118137500D01*
X197056250Y-99087500D02*
X197056250Y-95187500D01*
X195056250Y-99087500D02*
X195056250Y-95187500D01*
X197056250Y-99087500D02*
X195056250Y-99087500D01*
X178006250Y-99087500D02*
X178006250Y-95187500D01*
X176006250Y-99087500D02*
X176006250Y-95187500D01*
X178006250Y-99087500D02*
X176006250Y-99087500D01*
X158956250Y-99087500D02*
X158956250Y-95187500D01*
X156956250Y-99087500D02*
X156956250Y-95187500D01*
X158956250Y-99087500D02*
X156956250Y-99087500D01*
X139906250Y-99087500D02*
X139906250Y-95187500D01*
X137906250Y-99087500D02*
X137906250Y-95187500D01*
X139906250Y-99087500D02*
X137906250Y-99087500D01*
X120856250Y-99087500D02*
X120856250Y-95187500D01*
X118856250Y-99087500D02*
X118856250Y-95187500D01*
X120856250Y-99087500D02*
X118856250Y-99087500D01*
X77077500Y-109146078D02*
X77077500Y-108628922D01*
X78497500Y-109146078D02*
X78497500Y-108628922D01*
X95333750Y-97746078D02*
X95333750Y-97228922D01*
X96753750Y-97746078D02*
X96753750Y-97228922D01*
X77871250Y-94064828D02*
X77871250Y-93547672D01*
X79291250Y-94064828D02*
X79291250Y-93547672D01*
X90889828Y-112628750D02*
X90372672Y-112628750D01*
X90889828Y-111208750D02*
X90372672Y-111208750D01*
X74696250Y-103589828D02*
X74696250Y-103072672D01*
X76116250Y-103589828D02*
X76116250Y-103072672D01*
X81046250Y-90096078D02*
X81046250Y-89578922D01*
X82466250Y-90096078D02*
X82466250Y-89578922D01*
X90403750Y-89578922D02*
X90403750Y-90096078D01*
X88983750Y-89578922D02*
X88983750Y-90096078D01*
D11*
X86201190Y-87219940D02*
X86201190Y-87696130D01*
X86534523Y-86696130D02*
X86201190Y-87219940D01*
X85867857Y-86696130D01*
X85010714Y-87696130D02*
X85582142Y-87696130D01*
X85296428Y-87696130D02*
X85296428Y-86696130D01*
X85391666Y-86838988D01*
X85486904Y-86934226D01*
X85582142Y-86981845D01*
X69206845Y-90384380D02*
X69206845Y-91193904D01*
X69159226Y-91289142D01*
X69111607Y-91336761D01*
X69016369Y-91384380D01*
X68825892Y-91384380D01*
X68730654Y-91336761D01*
X68683035Y-91289142D01*
X68635416Y-91193904D01*
X68635416Y-90384380D01*
X68206845Y-91336761D02*
X68063988Y-91384380D01*
X67825892Y-91384380D01*
X67730654Y-91336761D01*
X67683035Y-91289142D01*
X67635416Y-91193904D01*
X67635416Y-91098666D01*
X67683035Y-91003428D01*
X67730654Y-90955809D01*
X67825892Y-90908190D01*
X68016369Y-90860571D01*
X68111607Y-90812952D01*
X68159226Y-90765333D01*
X68206845Y-90670095D01*
X68206845Y-90574857D01*
X68159226Y-90479619D01*
X68111607Y-90432000D01*
X68016369Y-90384380D01*
X67778273Y-90384380D01*
X67635416Y-90432000D01*
X66873511Y-90860571D02*
X66730654Y-90908190D01*
X66683035Y-90955809D01*
X66635416Y-91051047D01*
X66635416Y-91193904D01*
X66683035Y-91289142D01*
X66730654Y-91336761D01*
X66825892Y-91384380D01*
X67206845Y-91384380D01*
X67206845Y-90384380D01*
X66873511Y-90384380D01*
X66778273Y-90432000D01*
X66730654Y-90479619D01*
X66683035Y-90574857D01*
X66683035Y-90670095D01*
X66730654Y-90765333D01*
X66778273Y-90812952D01*
X66873511Y-90860571D01*
X67206845Y-90860571D01*
X65683035Y-91384380D02*
X66254464Y-91384380D01*
X65968750Y-91384380D02*
X65968750Y-90384380D01*
X66063988Y-90527238D01*
X66159226Y-90622476D01*
X66254464Y-90670095D01*
X87280654Y-109296130D02*
X87280654Y-110105654D01*
X87233035Y-110200892D01*
X87185416Y-110248511D01*
X87090178Y-110296130D01*
X86899702Y-110296130D01*
X86804464Y-110248511D01*
X86756845Y-110200892D01*
X86709226Y-110105654D01*
X86709226Y-109296130D01*
X85709226Y-110296130D02*
X86280654Y-110296130D01*
X85994940Y-110296130D02*
X85994940Y-109296130D01*
X86090178Y-109438988D01*
X86185416Y-109534226D01*
X86280654Y-109581845D01*
X74433333Y-94765761D02*
X74290476Y-94813380D01*
X74052380Y-94813380D01*
X73957142Y-94765761D01*
X73909523Y-94718142D01*
X73861904Y-94622904D01*
X73861904Y-94527666D01*
X73909523Y-94432428D01*
X73957142Y-94384809D01*
X74052380Y-94337190D01*
X74242857Y-94289571D01*
X74338095Y-94241952D01*
X74385714Y-94194333D01*
X74433333Y-94099095D01*
X74433333Y-94003857D01*
X74385714Y-93908619D01*
X74338095Y-93861000D01*
X74242857Y-93813380D01*
X74004761Y-93813380D01*
X73861904Y-93861000D01*
X73528571Y-93813380D02*
X73290476Y-94813380D01*
X73100000Y-94099095D01*
X72909523Y-94813380D01*
X72671428Y-93813380D01*
X71766666Y-94813380D02*
X72338095Y-94813380D01*
X72052380Y-94813380D02*
X72052380Y-93813380D01*
X72147619Y-93956238D01*
X72242857Y-94051476D01*
X72338095Y-94099095D01*
X94766666Y-114021130D02*
X95100000Y-113544940D01*
X95338095Y-114021130D02*
X95338095Y-113021130D01*
X94957142Y-113021130D01*
X94861904Y-113068750D01*
X94814285Y-113116369D01*
X94766666Y-113211607D01*
X94766666Y-113354464D01*
X94814285Y-113449702D01*
X94861904Y-113497321D01*
X94957142Y-113544940D01*
X95338095Y-113544940D01*
X93909523Y-113354464D02*
X93909523Y-114021130D01*
X94147619Y-112973511D02*
X94385714Y-113687797D01*
X93766666Y-113687797D01*
X69571130Y-103958333D02*
X69094940Y-103625000D01*
X69571130Y-103386904D02*
X68571130Y-103386904D01*
X68571130Y-103767857D01*
X68618750Y-103863095D01*
X68666369Y-103910714D01*
X68761607Y-103958333D01*
X68904464Y-103958333D01*
X68999702Y-103910714D01*
X69047321Y-103863095D01*
X69094940Y-103767857D01*
X69094940Y-103386904D01*
X68571130Y-104291666D02*
X68571130Y-104910714D01*
X68952083Y-104577380D01*
X68952083Y-104720238D01*
X68999702Y-104815476D01*
X69047321Y-104863095D01*
X69142559Y-104910714D01*
X69380654Y-104910714D01*
X69475892Y-104863095D01*
X69523511Y-104815476D01*
X69571130Y-104720238D01*
X69571130Y-104434523D01*
X69523511Y-104339285D01*
X69475892Y-104291666D01*
X71952380Y-103958333D02*
X71476190Y-103625000D01*
X71952380Y-103386904D02*
X70952380Y-103386904D01*
X70952380Y-103767857D01*
X71000000Y-103863095D01*
X71047619Y-103910714D01*
X71142857Y-103958333D01*
X71285714Y-103958333D01*
X71380952Y-103910714D01*
X71428571Y-103863095D01*
X71476190Y-103767857D01*
X71476190Y-103386904D01*
X71047619Y-104339285D02*
X71000000Y-104386904D01*
X70952380Y-104482142D01*
X70952380Y-104720238D01*
X71000000Y-104815476D01*
X71047619Y-104863095D01*
X71142857Y-104910714D01*
X71238095Y-104910714D01*
X71380952Y-104863095D01*
X71952380Y-104291666D01*
X71952380Y-104910714D01*
X83064880Y-93639583D02*
X82588690Y-93306250D01*
X83064880Y-93068154D02*
X82064880Y-93068154D01*
X82064880Y-93449107D01*
X82112500Y-93544345D01*
X82160119Y-93591964D01*
X82255357Y-93639583D01*
X82398214Y-93639583D01*
X82493452Y-93591964D01*
X82541071Y-93544345D01*
X82588690Y-93449107D01*
X82588690Y-93068154D01*
X83064880Y-94591964D02*
X83064880Y-94020535D01*
X83064880Y-94306250D02*
X82064880Y-94306250D01*
X82207738Y-94211011D01*
X82302976Y-94115773D01*
X82350595Y-94020535D01*
X66042321Y-104254166D02*
X66042321Y-103920833D01*
X66566130Y-103920833D02*
X65566130Y-103920833D01*
X65566130Y-104397023D01*
X66566130Y-105301785D02*
X66566130Y-104730357D01*
X66566130Y-105016071D02*
X65566130Y-105016071D01*
X65708988Y-104920833D01*
X65804226Y-104825595D01*
X65851845Y-104730357D01*
X198508630Y-152773214D02*
X197508630Y-152773214D01*
X197508630Y-153011309D01*
X197556250Y-153154166D01*
X197651488Y-153249404D01*
X197746726Y-153297023D01*
X197937202Y-153344642D01*
X198080059Y-153344642D01*
X198270535Y-153297023D01*
X198365773Y-153249404D01*
X198461011Y-153154166D01*
X198508630Y-153011309D01*
X198508630Y-152773214D01*
X197603869Y-153725595D02*
X197556250Y-153773214D01*
X197508630Y-153868452D01*
X197508630Y-154106547D01*
X197556250Y-154201785D01*
X197603869Y-154249404D01*
X197699107Y-154297023D01*
X197794345Y-154297023D01*
X197937202Y-154249404D01*
X198508630Y-153677976D01*
X198508630Y-154297023D01*
X197508630Y-154916071D02*
X197508630Y-155011309D01*
X197556250Y-155106547D01*
X197603869Y-155154166D01*
X197699107Y-155201785D01*
X197889583Y-155249404D01*
X198127678Y-155249404D01*
X198318154Y-155201785D01*
X198413392Y-155154166D01*
X198461011Y-155106547D01*
X198508630Y-155011309D01*
X198508630Y-154916071D01*
X198461011Y-154820833D01*
X198413392Y-154773214D01*
X198318154Y-154725595D01*
X198127678Y-154677976D01*
X197889583Y-154677976D01*
X197699107Y-154725595D01*
X197603869Y-154773214D01*
X197556250Y-154820833D01*
X197508630Y-154916071D01*
X179458630Y-152773214D02*
X178458630Y-152773214D01*
X178458630Y-153011309D01*
X178506250Y-153154166D01*
X178601488Y-153249404D01*
X178696726Y-153297023D01*
X178887202Y-153344642D01*
X179030059Y-153344642D01*
X179220535Y-153297023D01*
X179315773Y-153249404D01*
X179411011Y-153154166D01*
X179458630Y-153011309D01*
X179458630Y-152773214D01*
X179458630Y-154297023D02*
X179458630Y-153725595D01*
X179458630Y-154011309D02*
X178458630Y-154011309D01*
X178601488Y-153916071D01*
X178696726Y-153820833D01*
X178744345Y-153725595D01*
X179458630Y-154773214D02*
X179458630Y-154963690D01*
X179411011Y-155058928D01*
X179363392Y-155106547D01*
X179220535Y-155201785D01*
X179030059Y-155249404D01*
X178649107Y-155249404D01*
X178553869Y-155201785D01*
X178506250Y-155154166D01*
X178458630Y-155058928D01*
X178458630Y-154868452D01*
X178506250Y-154773214D01*
X178553869Y-154725595D01*
X178649107Y-154677976D01*
X178887202Y-154677976D01*
X178982440Y-154725595D01*
X179030059Y-154773214D01*
X179077678Y-154868452D01*
X179077678Y-155058928D01*
X179030059Y-155154166D01*
X178982440Y-155201785D01*
X178887202Y-155249404D01*
X160408630Y-152773214D02*
X159408630Y-152773214D01*
X159408630Y-153011309D01*
X159456250Y-153154166D01*
X159551488Y-153249404D01*
X159646726Y-153297023D01*
X159837202Y-153344642D01*
X159980059Y-153344642D01*
X160170535Y-153297023D01*
X160265773Y-153249404D01*
X160361011Y-153154166D01*
X160408630Y-153011309D01*
X160408630Y-152773214D01*
X160408630Y-154297023D02*
X160408630Y-153725595D01*
X160408630Y-154011309D02*
X159408630Y-154011309D01*
X159551488Y-153916071D01*
X159646726Y-153820833D01*
X159694345Y-153725595D01*
X159837202Y-154868452D02*
X159789583Y-154773214D01*
X159741964Y-154725595D01*
X159646726Y-154677976D01*
X159599107Y-154677976D01*
X159503869Y-154725595D01*
X159456250Y-154773214D01*
X159408630Y-154868452D01*
X159408630Y-155058928D01*
X159456250Y-155154166D01*
X159503869Y-155201785D01*
X159599107Y-155249404D01*
X159646726Y-155249404D01*
X159741964Y-155201785D01*
X159789583Y-155154166D01*
X159837202Y-155058928D01*
X159837202Y-154868452D01*
X159884821Y-154773214D01*
X159932440Y-154725595D01*
X160027678Y-154677976D01*
X160218154Y-154677976D01*
X160313392Y-154725595D01*
X160361011Y-154773214D01*
X160408630Y-154868452D01*
X160408630Y-155058928D01*
X160361011Y-155154166D01*
X160313392Y-155201785D01*
X160218154Y-155249404D01*
X160027678Y-155249404D01*
X159932440Y-155201785D01*
X159884821Y-155154166D01*
X159837202Y-155058928D01*
X141358630Y-152773214D02*
X140358630Y-152773214D01*
X140358630Y-153011309D01*
X140406250Y-153154166D01*
X140501488Y-153249404D01*
X140596726Y-153297023D01*
X140787202Y-153344642D01*
X140930059Y-153344642D01*
X141120535Y-153297023D01*
X141215773Y-153249404D01*
X141311011Y-153154166D01*
X141358630Y-153011309D01*
X141358630Y-152773214D01*
X141358630Y-154297023D02*
X141358630Y-153725595D01*
X141358630Y-154011309D02*
X140358630Y-154011309D01*
X140501488Y-153916071D01*
X140596726Y-153820833D01*
X140644345Y-153725595D01*
X140358630Y-154630357D02*
X140358630Y-155297023D01*
X141358630Y-154868452D01*
X122308630Y-152773214D02*
X121308630Y-152773214D01*
X121308630Y-153011309D01*
X121356250Y-153154166D01*
X121451488Y-153249404D01*
X121546726Y-153297023D01*
X121737202Y-153344642D01*
X121880059Y-153344642D01*
X122070535Y-153297023D01*
X122165773Y-153249404D01*
X122261011Y-153154166D01*
X122308630Y-153011309D01*
X122308630Y-152773214D01*
X122308630Y-154297023D02*
X122308630Y-153725595D01*
X122308630Y-154011309D02*
X121308630Y-154011309D01*
X121451488Y-153916071D01*
X121546726Y-153820833D01*
X121594345Y-153725595D01*
X121308630Y-155154166D02*
X121308630Y-154963690D01*
X121356250Y-154868452D01*
X121403869Y-154820833D01*
X121546726Y-154725595D01*
X121737202Y-154677976D01*
X122118154Y-154677976D01*
X122213392Y-154725595D01*
X122261011Y-154773214D01*
X122308630Y-154868452D01*
X122308630Y-155058928D01*
X122261011Y-155154166D01*
X122213392Y-155201785D01*
X122118154Y-155249404D01*
X121880059Y-155249404D01*
X121784821Y-155201785D01*
X121737202Y-155154166D01*
X121689583Y-155058928D01*
X121689583Y-154868452D01*
X121737202Y-154773214D01*
X121784821Y-154725595D01*
X121880059Y-154677976D01*
X198508630Y-133723214D02*
X197508630Y-133723214D01*
X197508630Y-133961309D01*
X197556250Y-134104166D01*
X197651488Y-134199404D01*
X197746726Y-134247023D01*
X197937202Y-134294642D01*
X198080059Y-134294642D01*
X198270535Y-134247023D01*
X198365773Y-134199404D01*
X198461011Y-134104166D01*
X198508630Y-133961309D01*
X198508630Y-133723214D01*
X198508630Y-135247023D02*
X198508630Y-134675595D01*
X198508630Y-134961309D02*
X197508630Y-134961309D01*
X197651488Y-134866071D01*
X197746726Y-134770833D01*
X197794345Y-134675595D01*
X197508630Y-136151785D02*
X197508630Y-135675595D01*
X197984821Y-135627976D01*
X197937202Y-135675595D01*
X197889583Y-135770833D01*
X197889583Y-136008928D01*
X197937202Y-136104166D01*
X197984821Y-136151785D01*
X198080059Y-136199404D01*
X198318154Y-136199404D01*
X198413392Y-136151785D01*
X198461011Y-136104166D01*
X198508630Y-136008928D01*
X198508630Y-135770833D01*
X198461011Y-135675595D01*
X198413392Y-135627976D01*
X179458630Y-133723214D02*
X178458630Y-133723214D01*
X178458630Y-133961309D01*
X178506250Y-134104166D01*
X178601488Y-134199404D01*
X178696726Y-134247023D01*
X178887202Y-134294642D01*
X179030059Y-134294642D01*
X179220535Y-134247023D01*
X179315773Y-134199404D01*
X179411011Y-134104166D01*
X179458630Y-133961309D01*
X179458630Y-133723214D01*
X179458630Y-135247023D02*
X179458630Y-134675595D01*
X179458630Y-134961309D02*
X178458630Y-134961309D01*
X178601488Y-134866071D01*
X178696726Y-134770833D01*
X178744345Y-134675595D01*
X178791964Y-136104166D02*
X179458630Y-136104166D01*
X178411011Y-135866071D02*
X179125297Y-135627976D01*
X179125297Y-136247023D01*
X160408630Y-133785714D02*
X159408630Y-133785714D01*
X159408630Y-134023809D01*
X159456250Y-134166666D01*
X159551488Y-134261904D01*
X159646726Y-134309523D01*
X159837202Y-134357142D01*
X159980059Y-134357142D01*
X160170535Y-134309523D01*
X160265773Y-134261904D01*
X160361011Y-134166666D01*
X160408630Y-134023809D01*
X160408630Y-133785714D01*
X160408630Y-135309523D02*
X160408630Y-134738095D01*
X160408630Y-135023809D02*
X159408630Y-135023809D01*
X159551488Y-134928571D01*
X159646726Y-134833333D01*
X159694345Y-134738095D01*
X159408630Y-135642857D02*
X159408630Y-136261904D01*
X159789583Y-135928571D01*
X159789583Y-136071428D01*
X159837202Y-136166666D01*
X159884821Y-136214285D01*
X159980059Y-136261904D01*
X160218154Y-136261904D01*
X160313392Y-136214285D01*
X160361011Y-136166666D01*
X160408630Y-136071428D01*
X160408630Y-135785714D01*
X160361011Y-135690476D01*
X160313392Y-135642857D01*
X141358630Y-133723214D02*
X140358630Y-133723214D01*
X140358630Y-133961309D01*
X140406250Y-134104166D01*
X140501488Y-134199404D01*
X140596726Y-134247023D01*
X140787202Y-134294642D01*
X140930059Y-134294642D01*
X141120535Y-134247023D01*
X141215773Y-134199404D01*
X141311011Y-134104166D01*
X141358630Y-133961309D01*
X141358630Y-133723214D01*
X141358630Y-135247023D02*
X141358630Y-134675595D01*
X141358630Y-134961309D02*
X140358630Y-134961309D01*
X140501488Y-134866071D01*
X140596726Y-134770833D01*
X140644345Y-134675595D01*
X140453869Y-135627976D02*
X140406250Y-135675595D01*
X140358630Y-135770833D01*
X140358630Y-136008928D01*
X140406250Y-136104166D01*
X140453869Y-136151785D01*
X140549107Y-136199404D01*
X140644345Y-136199404D01*
X140787202Y-136151785D01*
X141358630Y-135580357D01*
X141358630Y-136199404D01*
X122308630Y-133660714D02*
X121308630Y-133660714D01*
X121308630Y-133898809D01*
X121356250Y-134041666D01*
X121451488Y-134136904D01*
X121546726Y-134184523D01*
X121737202Y-134232142D01*
X121880059Y-134232142D01*
X122070535Y-134184523D01*
X122165773Y-134136904D01*
X122261011Y-134041666D01*
X122308630Y-133898809D01*
X122308630Y-133660714D01*
X122308630Y-135184523D02*
X122308630Y-134613095D01*
X122308630Y-134898809D02*
X121308630Y-134898809D01*
X121451488Y-134803571D01*
X121546726Y-134708333D01*
X121594345Y-134613095D01*
X122308630Y-136136904D02*
X122308630Y-135565476D01*
X122308630Y-135851190D02*
X121308630Y-135851190D01*
X121451488Y-135755952D01*
X121546726Y-135660714D01*
X121594345Y-135565476D01*
X198508630Y-114673214D02*
X197508630Y-114673214D01*
X197508630Y-114911309D01*
X197556250Y-115054166D01*
X197651488Y-115149404D01*
X197746726Y-115197023D01*
X197937202Y-115244642D01*
X198080059Y-115244642D01*
X198270535Y-115197023D01*
X198365773Y-115149404D01*
X198461011Y-115054166D01*
X198508630Y-114911309D01*
X198508630Y-114673214D01*
X198508630Y-116197023D02*
X198508630Y-115625595D01*
X198508630Y-115911309D02*
X197508630Y-115911309D01*
X197651488Y-115816071D01*
X197746726Y-115720833D01*
X197794345Y-115625595D01*
X197508630Y-116816071D02*
X197508630Y-116911309D01*
X197556250Y-117006547D01*
X197603869Y-117054166D01*
X197699107Y-117101785D01*
X197889583Y-117149404D01*
X198127678Y-117149404D01*
X198318154Y-117101785D01*
X198413392Y-117054166D01*
X198461011Y-117006547D01*
X198508630Y-116911309D01*
X198508630Y-116816071D01*
X198461011Y-116720833D01*
X198413392Y-116673214D01*
X198318154Y-116625595D01*
X198127678Y-116577976D01*
X197889583Y-116577976D01*
X197699107Y-116625595D01*
X197603869Y-116673214D01*
X197556250Y-116720833D01*
X197508630Y-116816071D01*
X179458630Y-115149404D02*
X178458630Y-115149404D01*
X178458630Y-115387500D01*
X178506250Y-115530357D01*
X178601488Y-115625595D01*
X178696726Y-115673214D01*
X178887202Y-115720833D01*
X179030059Y-115720833D01*
X179220535Y-115673214D01*
X179315773Y-115625595D01*
X179411011Y-115530357D01*
X179458630Y-115387500D01*
X179458630Y-115149404D01*
X179458630Y-116197023D02*
X179458630Y-116387500D01*
X179411011Y-116482738D01*
X179363392Y-116530357D01*
X179220535Y-116625595D01*
X179030059Y-116673214D01*
X178649107Y-116673214D01*
X178553869Y-116625595D01*
X178506250Y-116577976D01*
X178458630Y-116482738D01*
X178458630Y-116292261D01*
X178506250Y-116197023D01*
X178553869Y-116149404D01*
X178649107Y-116101785D01*
X178887202Y-116101785D01*
X178982440Y-116149404D01*
X179030059Y-116197023D01*
X179077678Y-116292261D01*
X179077678Y-116482738D01*
X179030059Y-116577976D01*
X178982440Y-116625595D01*
X178887202Y-116673214D01*
X160408630Y-115149404D02*
X159408630Y-115149404D01*
X159408630Y-115387500D01*
X159456250Y-115530357D01*
X159551488Y-115625595D01*
X159646726Y-115673214D01*
X159837202Y-115720833D01*
X159980059Y-115720833D01*
X160170535Y-115673214D01*
X160265773Y-115625595D01*
X160361011Y-115530357D01*
X160408630Y-115387500D01*
X160408630Y-115149404D01*
X159837202Y-116292261D02*
X159789583Y-116197023D01*
X159741964Y-116149404D01*
X159646726Y-116101785D01*
X159599107Y-116101785D01*
X159503869Y-116149404D01*
X159456250Y-116197023D01*
X159408630Y-116292261D01*
X159408630Y-116482738D01*
X159456250Y-116577976D01*
X159503869Y-116625595D01*
X159599107Y-116673214D01*
X159646726Y-116673214D01*
X159741964Y-116625595D01*
X159789583Y-116577976D01*
X159837202Y-116482738D01*
X159837202Y-116292261D01*
X159884821Y-116197023D01*
X159932440Y-116149404D01*
X160027678Y-116101785D01*
X160218154Y-116101785D01*
X160313392Y-116149404D01*
X160361011Y-116197023D01*
X160408630Y-116292261D01*
X160408630Y-116482738D01*
X160361011Y-116577976D01*
X160313392Y-116625595D01*
X160218154Y-116673214D01*
X160027678Y-116673214D01*
X159932440Y-116625595D01*
X159884821Y-116577976D01*
X159837202Y-116482738D01*
X141358630Y-115149404D02*
X140358630Y-115149404D01*
X140358630Y-115387500D01*
X140406250Y-115530357D01*
X140501488Y-115625595D01*
X140596726Y-115673214D01*
X140787202Y-115720833D01*
X140930059Y-115720833D01*
X141120535Y-115673214D01*
X141215773Y-115625595D01*
X141311011Y-115530357D01*
X141358630Y-115387500D01*
X141358630Y-115149404D01*
X140358630Y-116054166D02*
X140358630Y-116720833D01*
X141358630Y-116292261D01*
X122308630Y-115149404D02*
X121308630Y-115149404D01*
X121308630Y-115387500D01*
X121356250Y-115530357D01*
X121451488Y-115625595D01*
X121546726Y-115673214D01*
X121737202Y-115720833D01*
X121880059Y-115720833D01*
X122070535Y-115673214D01*
X122165773Y-115625595D01*
X122261011Y-115530357D01*
X122308630Y-115387500D01*
X122308630Y-115149404D01*
X121308630Y-116577976D02*
X121308630Y-116387500D01*
X121356250Y-116292261D01*
X121403869Y-116244642D01*
X121546726Y-116149404D01*
X121737202Y-116101785D01*
X122118154Y-116101785D01*
X122213392Y-116149404D01*
X122261011Y-116197023D01*
X122308630Y-116292261D01*
X122308630Y-116482738D01*
X122261011Y-116577976D01*
X122213392Y-116625595D01*
X122118154Y-116673214D01*
X121880059Y-116673214D01*
X121784821Y-116625595D01*
X121737202Y-116577976D01*
X121689583Y-116482738D01*
X121689583Y-116292261D01*
X121737202Y-116197023D01*
X121784821Y-116149404D01*
X121880059Y-116101785D01*
X198508630Y-96099404D02*
X197508630Y-96099404D01*
X197508630Y-96337500D01*
X197556250Y-96480357D01*
X197651488Y-96575595D01*
X197746726Y-96623214D01*
X197937202Y-96670833D01*
X198080059Y-96670833D01*
X198270535Y-96623214D01*
X198365773Y-96575595D01*
X198461011Y-96480357D01*
X198508630Y-96337500D01*
X198508630Y-96099404D01*
X197508630Y-97575595D02*
X197508630Y-97099404D01*
X197984821Y-97051785D01*
X197937202Y-97099404D01*
X197889583Y-97194642D01*
X197889583Y-97432738D01*
X197937202Y-97527976D01*
X197984821Y-97575595D01*
X198080059Y-97623214D01*
X198318154Y-97623214D01*
X198413392Y-97575595D01*
X198461011Y-97527976D01*
X198508630Y-97432738D01*
X198508630Y-97194642D01*
X198461011Y-97099404D01*
X198413392Y-97051785D01*
X179458630Y-96099404D02*
X178458630Y-96099404D01*
X178458630Y-96337500D01*
X178506250Y-96480357D01*
X178601488Y-96575595D01*
X178696726Y-96623214D01*
X178887202Y-96670833D01*
X179030059Y-96670833D01*
X179220535Y-96623214D01*
X179315773Y-96575595D01*
X179411011Y-96480357D01*
X179458630Y-96337500D01*
X179458630Y-96099404D01*
X178791964Y-97527976D02*
X179458630Y-97527976D01*
X178411011Y-97289880D02*
X179125297Y-97051785D01*
X179125297Y-97670833D01*
X160408630Y-96099404D02*
X159408630Y-96099404D01*
X159408630Y-96337500D01*
X159456250Y-96480357D01*
X159551488Y-96575595D01*
X159646726Y-96623214D01*
X159837202Y-96670833D01*
X159980059Y-96670833D01*
X160170535Y-96623214D01*
X160265773Y-96575595D01*
X160361011Y-96480357D01*
X160408630Y-96337500D01*
X160408630Y-96099404D01*
X159408630Y-97004166D02*
X159408630Y-97623214D01*
X159789583Y-97289880D01*
X159789583Y-97432738D01*
X159837202Y-97527976D01*
X159884821Y-97575595D01*
X159980059Y-97623214D01*
X160218154Y-97623214D01*
X160313392Y-97575595D01*
X160361011Y-97527976D01*
X160408630Y-97432738D01*
X160408630Y-97147023D01*
X160361011Y-97051785D01*
X160313392Y-97004166D01*
X141358630Y-96099404D02*
X140358630Y-96099404D01*
X140358630Y-96337500D01*
X140406250Y-96480357D01*
X140501488Y-96575595D01*
X140596726Y-96623214D01*
X140787202Y-96670833D01*
X140930059Y-96670833D01*
X141120535Y-96623214D01*
X141215773Y-96575595D01*
X141311011Y-96480357D01*
X141358630Y-96337500D01*
X141358630Y-96099404D01*
X140453869Y-97051785D02*
X140406250Y-97099404D01*
X140358630Y-97194642D01*
X140358630Y-97432738D01*
X140406250Y-97527976D01*
X140453869Y-97575595D01*
X140549107Y-97623214D01*
X140644345Y-97623214D01*
X140787202Y-97575595D01*
X141358630Y-97004166D01*
X141358630Y-97623214D01*
X122308630Y-96099404D02*
X121308630Y-96099404D01*
X121308630Y-96337500D01*
X121356250Y-96480357D01*
X121451488Y-96575595D01*
X121546726Y-96623214D01*
X121737202Y-96670833D01*
X121880059Y-96670833D01*
X122070535Y-96623214D01*
X122165773Y-96575595D01*
X122261011Y-96480357D01*
X122308630Y-96337500D01*
X122308630Y-96099404D01*
X122308630Y-97623214D02*
X122308630Y-97051785D01*
X122308630Y-97337500D02*
X121308630Y-97337500D01*
X121451488Y-97242261D01*
X121546726Y-97147023D01*
X121594345Y-97051785D01*
X79794642Y-108720833D02*
X79842261Y-108673214D01*
X79889880Y-108530357D01*
X79889880Y-108435119D01*
X79842261Y-108292261D01*
X79747023Y-108197023D01*
X79651785Y-108149404D01*
X79461309Y-108101785D01*
X79318452Y-108101785D01*
X79127976Y-108149404D01*
X79032738Y-108197023D01*
X78937500Y-108292261D01*
X78889880Y-108435119D01*
X78889880Y-108530357D01*
X78937500Y-108673214D01*
X78985119Y-108720833D01*
X78889880Y-109054166D02*
X78889880Y-109720833D01*
X79889880Y-109292261D01*
X98050892Y-97320833D02*
X98098511Y-97273214D01*
X98146130Y-97130357D01*
X98146130Y-97035119D01*
X98098511Y-96892261D01*
X98003273Y-96797023D01*
X97908035Y-96749404D01*
X97717559Y-96701785D01*
X97574702Y-96701785D01*
X97384226Y-96749404D01*
X97288988Y-96797023D01*
X97193750Y-96892261D01*
X97146130Y-97035119D01*
X97146130Y-97130357D01*
X97193750Y-97273214D01*
X97241369Y-97320833D01*
X97146130Y-98177976D02*
X97146130Y-97987500D01*
X97193750Y-97892261D01*
X97241369Y-97844642D01*
X97384226Y-97749404D01*
X97574702Y-97701785D01*
X97955654Y-97701785D01*
X98050892Y-97749404D01*
X98098511Y-97797023D01*
X98146130Y-97892261D01*
X98146130Y-98082738D01*
X98098511Y-98177976D01*
X98050892Y-98225595D01*
X97955654Y-98273214D01*
X97717559Y-98273214D01*
X97622321Y-98225595D01*
X97574702Y-98177976D01*
X97527083Y-98082738D01*
X97527083Y-97892261D01*
X97574702Y-97797023D01*
X97622321Y-97749404D01*
X97717559Y-97701785D01*
X80588392Y-93639583D02*
X80636011Y-93591964D01*
X80683630Y-93449107D01*
X80683630Y-93353869D01*
X80636011Y-93211011D01*
X80540773Y-93115773D01*
X80445535Y-93068154D01*
X80255059Y-93020535D01*
X80112202Y-93020535D01*
X79921726Y-93068154D01*
X79826488Y-93115773D01*
X79731250Y-93211011D01*
X79683630Y-93353869D01*
X79683630Y-93449107D01*
X79731250Y-93591964D01*
X79778869Y-93639583D01*
X79683630Y-94544345D02*
X79683630Y-94068154D01*
X80159821Y-94020535D01*
X80112202Y-94068154D01*
X80064583Y-94163392D01*
X80064583Y-94401488D01*
X80112202Y-94496726D01*
X80159821Y-94544345D01*
X80255059Y-94591964D01*
X80493154Y-94591964D01*
X80588392Y-94544345D01*
X80636011Y-94496726D01*
X80683630Y-94401488D01*
X80683630Y-94163392D01*
X80636011Y-94068154D01*
X80588392Y-94020535D01*
X90797916Y-110625892D02*
X90845535Y-110673511D01*
X90988392Y-110721130D01*
X91083630Y-110721130D01*
X91226488Y-110673511D01*
X91321726Y-110578273D01*
X91369345Y-110483035D01*
X91416964Y-110292559D01*
X91416964Y-110149702D01*
X91369345Y-109959226D01*
X91321726Y-109863988D01*
X91226488Y-109768750D01*
X91083630Y-109721130D01*
X90988392Y-109721130D01*
X90845535Y-109768750D01*
X90797916Y-109816369D01*
X89940773Y-110054464D02*
X89940773Y-110721130D01*
X90178869Y-109673511D02*
X90416964Y-110387797D01*
X89797916Y-110387797D01*
X77413392Y-103164583D02*
X77461011Y-103116964D01*
X77508630Y-102974107D01*
X77508630Y-102878869D01*
X77461011Y-102736011D01*
X77365773Y-102640773D01*
X77270535Y-102593154D01*
X77080059Y-102545535D01*
X76937202Y-102545535D01*
X76746726Y-102593154D01*
X76651488Y-102640773D01*
X76556250Y-102736011D01*
X76508630Y-102878869D01*
X76508630Y-102974107D01*
X76556250Y-103116964D01*
X76603869Y-103164583D01*
X76508630Y-103497916D02*
X76508630Y-104116964D01*
X76889583Y-103783630D01*
X76889583Y-103926488D01*
X76937202Y-104021726D01*
X76984821Y-104069345D01*
X77080059Y-104116964D01*
X77318154Y-104116964D01*
X77413392Y-104069345D01*
X77461011Y-104021726D01*
X77508630Y-103926488D01*
X77508630Y-103640773D01*
X77461011Y-103545535D01*
X77413392Y-103497916D01*
X83763392Y-89670833D02*
X83811011Y-89623214D01*
X83858630Y-89480357D01*
X83858630Y-89385119D01*
X83811011Y-89242261D01*
X83715773Y-89147023D01*
X83620535Y-89099404D01*
X83430059Y-89051785D01*
X83287202Y-89051785D01*
X83096726Y-89099404D01*
X83001488Y-89147023D01*
X82906250Y-89242261D01*
X82858630Y-89385119D01*
X82858630Y-89480357D01*
X82906250Y-89623214D01*
X82953869Y-89670833D01*
X82953869Y-90051785D02*
X82906250Y-90099404D01*
X82858630Y-90194642D01*
X82858630Y-90432738D01*
X82906250Y-90527976D01*
X82953869Y-90575595D01*
X83049107Y-90623214D01*
X83144345Y-90623214D01*
X83287202Y-90575595D01*
X83858630Y-90004166D01*
X83858630Y-90623214D01*
X88400892Y-89670833D02*
X88448511Y-89623214D01*
X88496130Y-89480357D01*
X88496130Y-89385119D01*
X88448511Y-89242261D01*
X88353273Y-89147023D01*
X88258035Y-89099404D01*
X88067559Y-89051785D01*
X87924702Y-89051785D01*
X87734226Y-89099404D01*
X87638988Y-89147023D01*
X87543750Y-89242261D01*
X87496130Y-89385119D01*
X87496130Y-89480357D01*
X87543750Y-89623214D01*
X87591369Y-89670833D01*
X88496130Y-90623214D02*
X88496130Y-90051785D01*
X88496130Y-90337500D02*
X87496130Y-90337500D01*
X87638988Y-90242261D01*
X87734226Y-90147023D01*
X87781845Y-90051785D01*
%LPC*%
D12*
X86825000Y-88843750D03*
X84625000Y-88843750D03*
X84625000Y-90543750D03*
X86825000Y-90543750D03*
D13*
X63818750Y-88900000D03*
X71118750Y-88900000D03*
X71118750Y-93400000D03*
X63818750Y-93400000D03*
D14*
X65868750Y-93400000D03*
X66668750Y-93400000D03*
X67468750Y-93400000D03*
X68268750Y-93400000D03*
X69068750Y-93400000D03*
D15*
X82518750Y-108093750D03*
X83318750Y-108093750D03*
X84118750Y-108093750D03*
X84918750Y-108093750D03*
X85718750Y-108093750D03*
X86518750Y-108093750D03*
X87318750Y-108093750D03*
X88118750Y-108093750D03*
X88918750Y-108093750D03*
X89718750Y-108093750D03*
X90518750Y-108093750D03*
D16*
X92218750Y-106393750D03*
X92218750Y-105593750D03*
X92218750Y-104793750D03*
X92218750Y-103993750D03*
X92218750Y-103193750D03*
X92218750Y-102393750D03*
X92218750Y-101593750D03*
X92218750Y-100793750D03*
X92218750Y-99993750D03*
X92218750Y-99193750D03*
X92218750Y-98393750D03*
D15*
X90518750Y-96693750D03*
X89718750Y-96693750D03*
X88918750Y-96693750D03*
X88118750Y-96693750D03*
X87318750Y-96693750D03*
X86518750Y-96693750D03*
X85718750Y-96693750D03*
X84918750Y-96693750D03*
X84118750Y-96693750D03*
X83318750Y-96693750D03*
X82518750Y-96693750D03*
D16*
X80818750Y-98393750D03*
X80818750Y-99193750D03*
X80818750Y-99993750D03*
X80818750Y-100793750D03*
X80818750Y-101593750D03*
X80818750Y-102393750D03*
X80818750Y-103193750D03*
X80818750Y-103993750D03*
X80818750Y-104793750D03*
X80818750Y-105593750D03*
X80818750Y-106393750D03*
D17*
X70000000Y-96575000D03*
X76200000Y-100275000D03*
X70000000Y-100275000D03*
X76200000Y-96575000D03*
D18*
G36*
X95833141Y-111169047D02*
G01*
X95859278Y-111172924D01*
X95884909Y-111179344D01*
X95909788Y-111188245D01*
X95933674Y-111199543D01*
X95956337Y-111213127D01*
X95977560Y-111228867D01*
X95997139Y-111246611D01*
X96014883Y-111266190D01*
X96030623Y-111287413D01*
X96044207Y-111310076D01*
X96055505Y-111333962D01*
X96064406Y-111358841D01*
X96070826Y-111384472D01*
X96074703Y-111410609D01*
X96076000Y-111437000D01*
X96076000Y-112400500D01*
X96074703Y-112426891D01*
X96070826Y-112453028D01*
X96064406Y-112478659D01*
X96055505Y-112503538D01*
X96044207Y-112527424D01*
X96030623Y-112550087D01*
X96014883Y-112571310D01*
X95997139Y-112590889D01*
X95977560Y-112608633D01*
X95956337Y-112624373D01*
X95933674Y-112637957D01*
X95909788Y-112649255D01*
X95884909Y-112658156D01*
X95859278Y-112664576D01*
X95833141Y-112668453D01*
X95806750Y-112669750D01*
X95268250Y-112669750D01*
X95241859Y-112668453D01*
X95215722Y-112664576D01*
X95190091Y-112658156D01*
X95165212Y-112649255D01*
X95141326Y-112637957D01*
X95118663Y-112624373D01*
X95097440Y-112608633D01*
X95077861Y-112590889D01*
X95060117Y-112571310D01*
X95044377Y-112550087D01*
X95030793Y-112527424D01*
X95019495Y-112503538D01*
X95010594Y-112478659D01*
X95004174Y-112453028D01*
X95000297Y-112426891D01*
X94999000Y-112400500D01*
X94999000Y-111437000D01*
X95000297Y-111410609D01*
X95004174Y-111384472D01*
X95010594Y-111358841D01*
X95019495Y-111333962D01*
X95030793Y-111310076D01*
X95044377Y-111287413D01*
X95060117Y-111266190D01*
X95077861Y-111246611D01*
X95097440Y-111228867D01*
X95118663Y-111213127D01*
X95141326Y-111199543D01*
X95165212Y-111188245D01*
X95190091Y-111179344D01*
X95215722Y-111172924D01*
X95241859Y-111169047D01*
X95268250Y-111167750D01*
X95806750Y-111167750D01*
X95833141Y-111169047D01*
X95833141Y-111169047D01*
G37*
D19*
X95537500Y-111918750D03*
D18*
G36*
X93958141Y-111169047D02*
G01*
X93984278Y-111172924D01*
X94009909Y-111179344D01*
X94034788Y-111188245D01*
X94058674Y-111199543D01*
X94081337Y-111213127D01*
X94102560Y-111228867D01*
X94122139Y-111246611D01*
X94139883Y-111266190D01*
X94155623Y-111287413D01*
X94169207Y-111310076D01*
X94180505Y-111333962D01*
X94189406Y-111358841D01*
X94195826Y-111384472D01*
X94199703Y-111410609D01*
X94201000Y-111437000D01*
X94201000Y-112400500D01*
X94199703Y-112426891D01*
X94195826Y-112453028D01*
X94189406Y-112478659D01*
X94180505Y-112503538D01*
X94169207Y-112527424D01*
X94155623Y-112550087D01*
X94139883Y-112571310D01*
X94122139Y-112590889D01*
X94102560Y-112608633D01*
X94081337Y-112624373D01*
X94058674Y-112637957D01*
X94034788Y-112649255D01*
X94009909Y-112658156D01*
X93984278Y-112664576D01*
X93958141Y-112668453D01*
X93931750Y-112669750D01*
X93393250Y-112669750D01*
X93366859Y-112668453D01*
X93340722Y-112664576D01*
X93315091Y-112658156D01*
X93290212Y-112649255D01*
X93266326Y-112637957D01*
X93243663Y-112624373D01*
X93222440Y-112608633D01*
X93202861Y-112590889D01*
X93185117Y-112571310D01*
X93169377Y-112550087D01*
X93155793Y-112527424D01*
X93144495Y-112503538D01*
X93135594Y-112478659D01*
X93129174Y-112453028D01*
X93125297Y-112426891D01*
X93124000Y-112400500D01*
X93124000Y-111437000D01*
X93125297Y-111410609D01*
X93129174Y-111384472D01*
X93135594Y-111358841D01*
X93144495Y-111333962D01*
X93155793Y-111310076D01*
X93169377Y-111287413D01*
X93185117Y-111266190D01*
X93202861Y-111246611D01*
X93222440Y-111228867D01*
X93243663Y-111213127D01*
X93266326Y-111199543D01*
X93290212Y-111188245D01*
X93315091Y-111179344D01*
X93340722Y-111172924D01*
X93366859Y-111169047D01*
X93393250Y-111167750D01*
X93931750Y-111167750D01*
X93958141Y-111169047D01*
X93958141Y-111169047D01*
G37*
D19*
X93662500Y-111918750D03*
D18*
G36*
X67976891Y-102650297D02*
G01*
X68003028Y-102654174D01*
X68028659Y-102660594D01*
X68053538Y-102669495D01*
X68077424Y-102680793D01*
X68100087Y-102694377D01*
X68121310Y-102710117D01*
X68140889Y-102727861D01*
X68158633Y-102747440D01*
X68174373Y-102768663D01*
X68187957Y-102791326D01*
X68199255Y-102815212D01*
X68208156Y-102840091D01*
X68214576Y-102865722D01*
X68218453Y-102891859D01*
X68219750Y-102918250D01*
X68219750Y-103456750D01*
X68218453Y-103483141D01*
X68214576Y-103509278D01*
X68208156Y-103534909D01*
X68199255Y-103559788D01*
X68187957Y-103583674D01*
X68174373Y-103606337D01*
X68158633Y-103627560D01*
X68140889Y-103647139D01*
X68121310Y-103664883D01*
X68100087Y-103680623D01*
X68077424Y-103694207D01*
X68053538Y-103705505D01*
X68028659Y-103714406D01*
X68003028Y-103720826D01*
X67976891Y-103724703D01*
X67950500Y-103726000D01*
X66987000Y-103726000D01*
X66960609Y-103724703D01*
X66934472Y-103720826D01*
X66908841Y-103714406D01*
X66883962Y-103705505D01*
X66860076Y-103694207D01*
X66837413Y-103680623D01*
X66816190Y-103664883D01*
X66796611Y-103647139D01*
X66778867Y-103627560D01*
X66763127Y-103606337D01*
X66749543Y-103583674D01*
X66738245Y-103559788D01*
X66729344Y-103534909D01*
X66722924Y-103509278D01*
X66719047Y-103483141D01*
X66717750Y-103456750D01*
X66717750Y-102918250D01*
X66719047Y-102891859D01*
X66722924Y-102865722D01*
X66729344Y-102840091D01*
X66738245Y-102815212D01*
X66749543Y-102791326D01*
X66763127Y-102768663D01*
X66778867Y-102747440D01*
X66796611Y-102727861D01*
X66816190Y-102710117D01*
X66837413Y-102694377D01*
X66860076Y-102680793D01*
X66883962Y-102669495D01*
X66908841Y-102660594D01*
X66934472Y-102654174D01*
X66960609Y-102650297D01*
X66987000Y-102649000D01*
X67950500Y-102649000D01*
X67976891Y-102650297D01*
X67976891Y-102650297D01*
G37*
D19*
X67468750Y-103187500D03*
D18*
G36*
X67976891Y-104525297D02*
G01*
X68003028Y-104529174D01*
X68028659Y-104535594D01*
X68053538Y-104544495D01*
X68077424Y-104555793D01*
X68100087Y-104569377D01*
X68121310Y-104585117D01*
X68140889Y-104602861D01*
X68158633Y-104622440D01*
X68174373Y-104643663D01*
X68187957Y-104666326D01*
X68199255Y-104690212D01*
X68208156Y-104715091D01*
X68214576Y-104740722D01*
X68218453Y-104766859D01*
X68219750Y-104793250D01*
X68219750Y-105331750D01*
X68218453Y-105358141D01*
X68214576Y-105384278D01*
X68208156Y-105409909D01*
X68199255Y-105434788D01*
X68187957Y-105458674D01*
X68174373Y-105481337D01*
X68158633Y-105502560D01*
X68140889Y-105522139D01*
X68121310Y-105539883D01*
X68100087Y-105555623D01*
X68077424Y-105569207D01*
X68053538Y-105580505D01*
X68028659Y-105589406D01*
X68003028Y-105595826D01*
X67976891Y-105599703D01*
X67950500Y-105601000D01*
X66987000Y-105601000D01*
X66960609Y-105599703D01*
X66934472Y-105595826D01*
X66908841Y-105589406D01*
X66883962Y-105580505D01*
X66860076Y-105569207D01*
X66837413Y-105555623D01*
X66816190Y-105539883D01*
X66796611Y-105522139D01*
X66778867Y-105502560D01*
X66763127Y-105481337D01*
X66749543Y-105458674D01*
X66738245Y-105434788D01*
X66729344Y-105409909D01*
X66722924Y-105384278D01*
X66719047Y-105358141D01*
X66717750Y-105331750D01*
X66717750Y-104793250D01*
X66719047Y-104766859D01*
X66722924Y-104740722D01*
X66729344Y-104715091D01*
X66738245Y-104690212D01*
X66749543Y-104666326D01*
X66763127Y-104643663D01*
X66778867Y-104622440D01*
X66796611Y-104602861D01*
X66816190Y-104585117D01*
X66837413Y-104569377D01*
X66860076Y-104555793D01*
X66883962Y-104544495D01*
X66908841Y-104535594D01*
X66934472Y-104529174D01*
X66960609Y-104525297D01*
X66987000Y-104524000D01*
X67950500Y-104524000D01*
X67976891Y-104525297D01*
X67976891Y-104525297D01*
G37*
D19*
X67468750Y-105062500D03*
D18*
G36*
X70358141Y-102650297D02*
G01*
X70384278Y-102654174D01*
X70409909Y-102660594D01*
X70434788Y-102669495D01*
X70458674Y-102680793D01*
X70481337Y-102694377D01*
X70502560Y-102710117D01*
X70522139Y-102727861D01*
X70539883Y-102747440D01*
X70555623Y-102768663D01*
X70569207Y-102791326D01*
X70580505Y-102815212D01*
X70589406Y-102840091D01*
X70595826Y-102865722D01*
X70599703Y-102891859D01*
X70601000Y-102918250D01*
X70601000Y-103456750D01*
X70599703Y-103483141D01*
X70595826Y-103509278D01*
X70589406Y-103534909D01*
X70580505Y-103559788D01*
X70569207Y-103583674D01*
X70555623Y-103606337D01*
X70539883Y-103627560D01*
X70522139Y-103647139D01*
X70502560Y-103664883D01*
X70481337Y-103680623D01*
X70458674Y-103694207D01*
X70434788Y-103705505D01*
X70409909Y-103714406D01*
X70384278Y-103720826D01*
X70358141Y-103724703D01*
X70331750Y-103726000D01*
X69368250Y-103726000D01*
X69341859Y-103724703D01*
X69315722Y-103720826D01*
X69290091Y-103714406D01*
X69265212Y-103705505D01*
X69241326Y-103694207D01*
X69218663Y-103680623D01*
X69197440Y-103664883D01*
X69177861Y-103647139D01*
X69160117Y-103627560D01*
X69144377Y-103606337D01*
X69130793Y-103583674D01*
X69119495Y-103559788D01*
X69110594Y-103534909D01*
X69104174Y-103509278D01*
X69100297Y-103483141D01*
X69099000Y-103456750D01*
X69099000Y-102918250D01*
X69100297Y-102891859D01*
X69104174Y-102865722D01*
X69110594Y-102840091D01*
X69119495Y-102815212D01*
X69130793Y-102791326D01*
X69144377Y-102768663D01*
X69160117Y-102747440D01*
X69177861Y-102727861D01*
X69197440Y-102710117D01*
X69218663Y-102694377D01*
X69241326Y-102680793D01*
X69265212Y-102669495D01*
X69290091Y-102660594D01*
X69315722Y-102654174D01*
X69341859Y-102650297D01*
X69368250Y-102649000D01*
X70331750Y-102649000D01*
X70358141Y-102650297D01*
X70358141Y-102650297D01*
G37*
D19*
X69850000Y-103187500D03*
D18*
G36*
X70358141Y-104525297D02*
G01*
X70384278Y-104529174D01*
X70409909Y-104535594D01*
X70434788Y-104544495D01*
X70458674Y-104555793D01*
X70481337Y-104569377D01*
X70502560Y-104585117D01*
X70522139Y-104602861D01*
X70539883Y-104622440D01*
X70555623Y-104643663D01*
X70569207Y-104666326D01*
X70580505Y-104690212D01*
X70589406Y-104715091D01*
X70595826Y-104740722D01*
X70599703Y-104766859D01*
X70601000Y-104793250D01*
X70601000Y-105331750D01*
X70599703Y-105358141D01*
X70595826Y-105384278D01*
X70589406Y-105409909D01*
X70580505Y-105434788D01*
X70569207Y-105458674D01*
X70555623Y-105481337D01*
X70539883Y-105502560D01*
X70522139Y-105522139D01*
X70502560Y-105539883D01*
X70481337Y-105555623D01*
X70458674Y-105569207D01*
X70434788Y-105580505D01*
X70409909Y-105589406D01*
X70384278Y-105595826D01*
X70358141Y-105599703D01*
X70331750Y-105601000D01*
X69368250Y-105601000D01*
X69341859Y-105599703D01*
X69315722Y-105595826D01*
X69290091Y-105589406D01*
X69265212Y-105580505D01*
X69241326Y-105569207D01*
X69218663Y-105555623D01*
X69197440Y-105539883D01*
X69177861Y-105522139D01*
X69160117Y-105502560D01*
X69144377Y-105481337D01*
X69130793Y-105458674D01*
X69119495Y-105434788D01*
X69110594Y-105409909D01*
X69104174Y-105384278D01*
X69100297Y-105358141D01*
X69099000Y-105331750D01*
X69099000Y-104793250D01*
X69100297Y-104766859D01*
X69104174Y-104740722D01*
X69110594Y-104715091D01*
X69119495Y-104690212D01*
X69130793Y-104666326D01*
X69144377Y-104643663D01*
X69160117Y-104622440D01*
X69177861Y-104602861D01*
X69197440Y-104585117D01*
X69218663Y-104569377D01*
X69241326Y-104555793D01*
X69265212Y-104544495D01*
X69290091Y-104535594D01*
X69315722Y-104529174D01*
X69341859Y-104525297D01*
X69368250Y-104524000D01*
X70331750Y-104524000D01*
X70358141Y-104525297D01*
X70358141Y-104525297D01*
G37*
D19*
X69850000Y-105062500D03*
D18*
G36*
X81470641Y-92331547D02*
G01*
X81496778Y-92335424D01*
X81522409Y-92341844D01*
X81547288Y-92350745D01*
X81571174Y-92362043D01*
X81593837Y-92375627D01*
X81615060Y-92391367D01*
X81634639Y-92409111D01*
X81652383Y-92428690D01*
X81668123Y-92449913D01*
X81681707Y-92472576D01*
X81693005Y-92496462D01*
X81701906Y-92521341D01*
X81708326Y-92546972D01*
X81712203Y-92573109D01*
X81713500Y-92599500D01*
X81713500Y-93138000D01*
X81712203Y-93164391D01*
X81708326Y-93190528D01*
X81701906Y-93216159D01*
X81693005Y-93241038D01*
X81681707Y-93264924D01*
X81668123Y-93287587D01*
X81652383Y-93308810D01*
X81634639Y-93328389D01*
X81615060Y-93346133D01*
X81593837Y-93361873D01*
X81571174Y-93375457D01*
X81547288Y-93386755D01*
X81522409Y-93395656D01*
X81496778Y-93402076D01*
X81470641Y-93405953D01*
X81444250Y-93407250D01*
X80480750Y-93407250D01*
X80454359Y-93405953D01*
X80428222Y-93402076D01*
X80402591Y-93395656D01*
X80377712Y-93386755D01*
X80353826Y-93375457D01*
X80331163Y-93361873D01*
X80309940Y-93346133D01*
X80290361Y-93328389D01*
X80272617Y-93308810D01*
X80256877Y-93287587D01*
X80243293Y-93264924D01*
X80231995Y-93241038D01*
X80223094Y-93216159D01*
X80216674Y-93190528D01*
X80212797Y-93164391D01*
X80211500Y-93138000D01*
X80211500Y-92599500D01*
X80212797Y-92573109D01*
X80216674Y-92546972D01*
X80223094Y-92521341D01*
X80231995Y-92496462D01*
X80243293Y-92472576D01*
X80256877Y-92449913D01*
X80272617Y-92428690D01*
X80290361Y-92409111D01*
X80309940Y-92391367D01*
X80331163Y-92375627D01*
X80353826Y-92362043D01*
X80377712Y-92350745D01*
X80402591Y-92341844D01*
X80428222Y-92335424D01*
X80454359Y-92331547D01*
X80480750Y-92330250D01*
X81444250Y-92330250D01*
X81470641Y-92331547D01*
X81470641Y-92331547D01*
G37*
D19*
X80962500Y-92868750D03*
D18*
G36*
X81470641Y-94206547D02*
G01*
X81496778Y-94210424D01*
X81522409Y-94216844D01*
X81547288Y-94225745D01*
X81571174Y-94237043D01*
X81593837Y-94250627D01*
X81615060Y-94266367D01*
X81634639Y-94284111D01*
X81652383Y-94303690D01*
X81668123Y-94324913D01*
X81681707Y-94347576D01*
X81693005Y-94371462D01*
X81701906Y-94396341D01*
X81708326Y-94421972D01*
X81712203Y-94448109D01*
X81713500Y-94474500D01*
X81713500Y-95013000D01*
X81712203Y-95039391D01*
X81708326Y-95065528D01*
X81701906Y-95091159D01*
X81693005Y-95116038D01*
X81681707Y-95139924D01*
X81668123Y-95162587D01*
X81652383Y-95183810D01*
X81634639Y-95203389D01*
X81615060Y-95221133D01*
X81593837Y-95236873D01*
X81571174Y-95250457D01*
X81547288Y-95261755D01*
X81522409Y-95270656D01*
X81496778Y-95277076D01*
X81470641Y-95280953D01*
X81444250Y-95282250D01*
X80480750Y-95282250D01*
X80454359Y-95280953D01*
X80428222Y-95277076D01*
X80402591Y-95270656D01*
X80377712Y-95261755D01*
X80353826Y-95250457D01*
X80331163Y-95236873D01*
X80309940Y-95221133D01*
X80290361Y-95203389D01*
X80272617Y-95183810D01*
X80256877Y-95162587D01*
X80243293Y-95139924D01*
X80231995Y-95116038D01*
X80223094Y-95091159D01*
X80216674Y-95065528D01*
X80212797Y-95039391D01*
X80211500Y-95013000D01*
X80211500Y-94474500D01*
X80212797Y-94448109D01*
X80216674Y-94421972D01*
X80223094Y-94396341D01*
X80231995Y-94371462D01*
X80243293Y-94347576D01*
X80256877Y-94324913D01*
X80272617Y-94303690D01*
X80290361Y-94284111D01*
X80309940Y-94266367D01*
X80331163Y-94250627D01*
X80353826Y-94237043D01*
X80377712Y-94225745D01*
X80402591Y-94216844D01*
X80428222Y-94210424D01*
X80454359Y-94206547D01*
X80480750Y-94205250D01*
X81444250Y-94205250D01*
X81470641Y-94206547D01*
X81470641Y-94206547D01*
G37*
D19*
X80962500Y-94743750D03*
D20*
X193198750Y-153987500D03*
X183038750Y-153987500D03*
D21*
X185618750Y-149987500D03*
D22*
X188118750Y-153987500D03*
D21*
X184963751Y-150717500D03*
D23*
X184308750Y-151447500D02*
X185618752Y-149987500D01*
D21*
X190658750Y-148907500D03*
X190638750Y-149197500D03*
D23*
X190618750Y-149487500D02*
X190658750Y-148907500D01*
D20*
X174148750Y-153987500D03*
X163988750Y-153987500D03*
D21*
X166568750Y-149987500D03*
D22*
X169068750Y-153987500D03*
D21*
X165913751Y-150717500D03*
D23*
X165258750Y-151447500D02*
X166568752Y-149987500D01*
D21*
X171608750Y-148907500D03*
X171588750Y-149197500D03*
D23*
X171568750Y-149487500D02*
X171608750Y-148907500D01*
D20*
X155098750Y-153987500D03*
X144938750Y-153987500D03*
D21*
X147518750Y-149987500D03*
D22*
X150018750Y-153987500D03*
D21*
X146863751Y-150717500D03*
D23*
X146208750Y-151447500D02*
X147518752Y-149987500D01*
D21*
X152558750Y-148907500D03*
X152538750Y-149197500D03*
D23*
X152518750Y-149487500D02*
X152558750Y-148907500D01*
D20*
X136048750Y-153987500D03*
X125888750Y-153987500D03*
D21*
X128468750Y-149987500D03*
D22*
X130968750Y-153987500D03*
D21*
X127813751Y-150717500D03*
D23*
X127158750Y-151447500D02*
X128468752Y-149987500D01*
D21*
X133508750Y-148907500D03*
X133488750Y-149197500D03*
D23*
X133468750Y-149487500D02*
X133508750Y-148907500D01*
D20*
X116998750Y-153987500D03*
X106838750Y-153987500D03*
D21*
X109418750Y-149987500D03*
D22*
X111918750Y-153987500D03*
D21*
X108763751Y-150717500D03*
D23*
X108108750Y-151447500D02*
X109418752Y-149987500D01*
D21*
X114458750Y-148907500D03*
X114438750Y-149197500D03*
D23*
X114418750Y-149487500D02*
X114458750Y-148907500D01*
D20*
X193198750Y-134937500D03*
X183038750Y-134937500D03*
D21*
X185618750Y-130937500D03*
D22*
X188118750Y-134937500D03*
D21*
X184963751Y-131667500D03*
D23*
X184308750Y-132397500D02*
X185618752Y-130937500D01*
D21*
X190658750Y-129857500D03*
X190638750Y-130147500D03*
D23*
X190618750Y-130437500D02*
X190658750Y-129857500D01*
D20*
X174148750Y-134937500D03*
X163988750Y-134937500D03*
D21*
X166568750Y-130937500D03*
D22*
X169068750Y-134937500D03*
D21*
X165913751Y-131667500D03*
D23*
X165258750Y-132397500D02*
X166568752Y-130937500D01*
D21*
X171608750Y-129857500D03*
X171588750Y-130147500D03*
D23*
X171568750Y-130437500D02*
X171608750Y-129857500D01*
D20*
X155098750Y-134937500D03*
X144938750Y-134937500D03*
D21*
X147518750Y-130937500D03*
D22*
X150018750Y-134937500D03*
D21*
X146863751Y-131667500D03*
D23*
X146208750Y-132397500D02*
X147518752Y-130937500D01*
D21*
X152558750Y-129857500D03*
X152538750Y-130147500D03*
D23*
X152518750Y-130437500D02*
X152558750Y-129857500D01*
D20*
X136048750Y-134937500D03*
X125888750Y-134937500D03*
D21*
X128468750Y-130937500D03*
D22*
X130968750Y-134937500D03*
D21*
X127813751Y-131667500D03*
D23*
X127158750Y-132397500D02*
X128468752Y-130937500D01*
D21*
X133508750Y-129857500D03*
X133488750Y-130147500D03*
D23*
X133468750Y-130437500D02*
X133508750Y-129857500D01*
D20*
X116998750Y-134937500D03*
X106838750Y-134937500D03*
D21*
X109418750Y-130937500D03*
D22*
X111918750Y-134937500D03*
D21*
X108763751Y-131667500D03*
D23*
X108108750Y-132397500D02*
X109418752Y-130937500D01*
D21*
X114458750Y-129857500D03*
X114438750Y-130147500D03*
D23*
X114418750Y-130437500D02*
X114458750Y-129857500D01*
D20*
X193198750Y-115887500D03*
X183038750Y-115887500D03*
D21*
X185618750Y-111887500D03*
D22*
X188118750Y-115887500D03*
D21*
X184963751Y-112617500D03*
D23*
X184308750Y-113347500D02*
X185618752Y-111887500D01*
D21*
X190658750Y-110807500D03*
X190638750Y-111097500D03*
D23*
X190618750Y-111387500D02*
X190658750Y-110807500D01*
D20*
X174148750Y-115887500D03*
X163988750Y-115887500D03*
D21*
X166568750Y-111887500D03*
D22*
X169068750Y-115887500D03*
D21*
X165913751Y-112617500D03*
D23*
X165258750Y-113347500D02*
X166568752Y-111887500D01*
D21*
X171608750Y-110807500D03*
X171588750Y-111097500D03*
D23*
X171568750Y-111387500D02*
X171608750Y-110807500D01*
D20*
X155098750Y-115887500D03*
X144938750Y-115887500D03*
D21*
X147518750Y-111887500D03*
D22*
X150018750Y-115887500D03*
D21*
X146863751Y-112617500D03*
D23*
X146208750Y-113347500D02*
X147518752Y-111887500D01*
D21*
X152558750Y-110807500D03*
X152538750Y-111097500D03*
D23*
X152518750Y-111387500D02*
X152558750Y-110807500D01*
D20*
X136048750Y-115887500D03*
X125888750Y-115887500D03*
D21*
X128468750Y-111887500D03*
D22*
X130968750Y-115887500D03*
D21*
X127813751Y-112617500D03*
D23*
X127158750Y-113347500D02*
X128468752Y-111887500D01*
D21*
X133508750Y-110807500D03*
X133488750Y-111097500D03*
D23*
X133468750Y-111387500D02*
X133508750Y-110807500D01*
D20*
X116998750Y-115887500D03*
X106838750Y-115887500D03*
D21*
X109418750Y-111887500D03*
D22*
X111918750Y-115887500D03*
D21*
X108763751Y-112617500D03*
D23*
X108108750Y-113347500D02*
X109418752Y-111887500D01*
D21*
X114458750Y-110807500D03*
X114438750Y-111097500D03*
D23*
X114418750Y-111387500D02*
X114458750Y-110807500D01*
D20*
X193198750Y-96837500D03*
X183038750Y-96837500D03*
D21*
X185618750Y-92837500D03*
D22*
X188118750Y-96837500D03*
D21*
X184963751Y-93567500D03*
D23*
X184308750Y-94297500D02*
X185618752Y-92837500D01*
D21*
X190658750Y-91757500D03*
X190638750Y-92047500D03*
D23*
X190618750Y-92337500D02*
X190658750Y-91757500D01*
D20*
X174148750Y-96837500D03*
X163988750Y-96837500D03*
D21*
X166568750Y-92837500D03*
D22*
X169068750Y-96837500D03*
D21*
X165913751Y-93567500D03*
D23*
X165258750Y-94297500D02*
X166568752Y-92837500D01*
D21*
X171608750Y-91757500D03*
X171588750Y-92047500D03*
D23*
X171568750Y-92337500D02*
X171608750Y-91757500D01*
D20*
X155098750Y-96837500D03*
X144938750Y-96837500D03*
D21*
X147518750Y-92837500D03*
D22*
X150018750Y-96837500D03*
D21*
X146863751Y-93567500D03*
D23*
X146208750Y-94297500D02*
X147518752Y-92837500D01*
D21*
X152558750Y-91757500D03*
X152538750Y-92047500D03*
D23*
X152518750Y-92337500D02*
X152558750Y-91757500D01*
D20*
X136048750Y-96837500D03*
X125888750Y-96837500D03*
D21*
X128468750Y-92837500D03*
D22*
X130968750Y-96837500D03*
D21*
X127813751Y-93567500D03*
D23*
X127158750Y-94297500D02*
X128468752Y-92837500D01*
D21*
X133508750Y-91757500D03*
X133488750Y-92047500D03*
D23*
X133468750Y-92337500D02*
X133508750Y-91757500D01*
D20*
X116998750Y-96837500D03*
X106838750Y-96837500D03*
D21*
X109418750Y-92837500D03*
D22*
X111918750Y-96837500D03*
D21*
X108763751Y-93567500D03*
D23*
X108108750Y-94297500D02*
X109418752Y-92837500D01*
D21*
X114458750Y-91757500D03*
X114438750Y-92047500D03*
D23*
X114418750Y-92337500D02*
X114458750Y-91757500D01*
D18*
G36*
X64975854Y-102512802D02*
G01*
X65002102Y-102516696D01*
X65027843Y-102523143D01*
X65052828Y-102532083D01*
X65076816Y-102543428D01*
X65099576Y-102557071D01*
X65120890Y-102572878D01*
X65140552Y-102590698D01*
X65158372Y-102610360D01*
X65174179Y-102631674D01*
X65187822Y-102654434D01*
X65199167Y-102678422D01*
X65208107Y-102703407D01*
X65214554Y-102729148D01*
X65218448Y-102755396D01*
X65219750Y-102781900D01*
X65219750Y-103593100D01*
X65218448Y-103619604D01*
X65214554Y-103645852D01*
X65208107Y-103671593D01*
X65199167Y-103696578D01*
X65187822Y-103720566D01*
X65174179Y-103743326D01*
X65158372Y-103764640D01*
X65140552Y-103784302D01*
X65120890Y-103802122D01*
X65099576Y-103817929D01*
X65076816Y-103831572D01*
X65052828Y-103842917D01*
X65027843Y-103851857D01*
X65002102Y-103858304D01*
X64975854Y-103862198D01*
X64949350Y-103863500D01*
X63638150Y-103863500D01*
X63611646Y-103862198D01*
X63585398Y-103858304D01*
X63559657Y-103851857D01*
X63534672Y-103842917D01*
X63510684Y-103831572D01*
X63487924Y-103817929D01*
X63466610Y-103802122D01*
X63446948Y-103784302D01*
X63429128Y-103764640D01*
X63413321Y-103743326D01*
X63399678Y-103720566D01*
X63388333Y-103696578D01*
X63379393Y-103671593D01*
X63372946Y-103645852D01*
X63369052Y-103619604D01*
X63367750Y-103593100D01*
X63367750Y-102781900D01*
X63369052Y-102755396D01*
X63372946Y-102729148D01*
X63379393Y-102703407D01*
X63388333Y-102678422D01*
X63399678Y-102654434D01*
X63413321Y-102631674D01*
X63429128Y-102610360D01*
X63446948Y-102590698D01*
X63466610Y-102572878D01*
X63487924Y-102557071D01*
X63510684Y-102543428D01*
X63534672Y-102532083D01*
X63559657Y-102523143D01*
X63585398Y-102516696D01*
X63611646Y-102512802D01*
X63638150Y-102511500D01*
X64949350Y-102511500D01*
X64975854Y-102512802D01*
X64975854Y-102512802D01*
G37*
D24*
X64293750Y-103187500D03*
D18*
G36*
X64975854Y-105312802D02*
G01*
X65002102Y-105316696D01*
X65027843Y-105323143D01*
X65052828Y-105332083D01*
X65076816Y-105343428D01*
X65099576Y-105357071D01*
X65120890Y-105372878D01*
X65140552Y-105390698D01*
X65158372Y-105410360D01*
X65174179Y-105431674D01*
X65187822Y-105454434D01*
X65199167Y-105478422D01*
X65208107Y-105503407D01*
X65214554Y-105529148D01*
X65218448Y-105555396D01*
X65219750Y-105581900D01*
X65219750Y-106393100D01*
X65218448Y-106419604D01*
X65214554Y-106445852D01*
X65208107Y-106471593D01*
X65199167Y-106496578D01*
X65187822Y-106520566D01*
X65174179Y-106543326D01*
X65158372Y-106564640D01*
X65140552Y-106584302D01*
X65120890Y-106602122D01*
X65099576Y-106617929D01*
X65076816Y-106631572D01*
X65052828Y-106642917D01*
X65027843Y-106651857D01*
X65002102Y-106658304D01*
X64975854Y-106662198D01*
X64949350Y-106663500D01*
X63638150Y-106663500D01*
X63611646Y-106662198D01*
X63585398Y-106658304D01*
X63559657Y-106651857D01*
X63534672Y-106642917D01*
X63510684Y-106631572D01*
X63487924Y-106617929D01*
X63466610Y-106602122D01*
X63446948Y-106584302D01*
X63429128Y-106564640D01*
X63413321Y-106543326D01*
X63399678Y-106520566D01*
X63388333Y-106496578D01*
X63379393Y-106471593D01*
X63372946Y-106445852D01*
X63369052Y-106419604D01*
X63367750Y-106393100D01*
X63367750Y-105581900D01*
X63369052Y-105555396D01*
X63372946Y-105529148D01*
X63379393Y-105503407D01*
X63388333Y-105478422D01*
X63399678Y-105454434D01*
X63413321Y-105431674D01*
X63429128Y-105410360D01*
X63446948Y-105390698D01*
X63466610Y-105372878D01*
X63487924Y-105357071D01*
X63510684Y-105343428D01*
X63534672Y-105332083D01*
X63559657Y-105323143D01*
X63585398Y-105316696D01*
X63611646Y-105312802D01*
X63638150Y-105311500D01*
X64949350Y-105311500D01*
X64975854Y-105312802D01*
X64975854Y-105312802D01*
G37*
D24*
X64293750Y-105987500D03*
D25*
X196056250Y-152337500D03*
X196056250Y-155637500D03*
X177006250Y-152337500D03*
X177006250Y-155637500D03*
X157956250Y-152337500D03*
X157956250Y-155637500D03*
X138906250Y-152337500D03*
X138906250Y-155637500D03*
X119856250Y-152337500D03*
X119856250Y-155637500D03*
X196056250Y-133287500D03*
X196056250Y-136587500D03*
X177006250Y-133287500D03*
X177006250Y-136587500D03*
X157956250Y-133350000D03*
X157956250Y-136650000D03*
X138906250Y-133287500D03*
X138906250Y-136587500D03*
X119856250Y-133225000D03*
X119856250Y-136525000D03*
X196056250Y-114237500D03*
X196056250Y-117537500D03*
X177006250Y-114237500D03*
X177006250Y-117537500D03*
X157956250Y-114237500D03*
X157956250Y-117537500D03*
X138906250Y-114237500D03*
X138906250Y-117537500D03*
X119856250Y-114237500D03*
X119856250Y-117537500D03*
X196056250Y-95187500D03*
X196056250Y-98487500D03*
X177006250Y-95187500D03*
X177006250Y-98487500D03*
X157956250Y-95187500D03*
X157956250Y-98487500D03*
X138906250Y-95187500D03*
X138906250Y-98487500D03*
X119856250Y-95187500D03*
X119856250Y-98487500D03*
D18*
G36*
X78295641Y-107412797D02*
G01*
X78321778Y-107416674D01*
X78347409Y-107423094D01*
X78372288Y-107431995D01*
X78396174Y-107443293D01*
X78418837Y-107456877D01*
X78440060Y-107472617D01*
X78459639Y-107490361D01*
X78477383Y-107509940D01*
X78493123Y-107531163D01*
X78506707Y-107553826D01*
X78518005Y-107577712D01*
X78526906Y-107602591D01*
X78533326Y-107628222D01*
X78537203Y-107654359D01*
X78538500Y-107680750D01*
X78538500Y-108219250D01*
X78537203Y-108245641D01*
X78533326Y-108271778D01*
X78526906Y-108297409D01*
X78518005Y-108322288D01*
X78506707Y-108346174D01*
X78493123Y-108368837D01*
X78477383Y-108390060D01*
X78459639Y-108409639D01*
X78440060Y-108427383D01*
X78418837Y-108443123D01*
X78396174Y-108456707D01*
X78372288Y-108468005D01*
X78347409Y-108476906D01*
X78321778Y-108483326D01*
X78295641Y-108487203D01*
X78269250Y-108488500D01*
X77305750Y-108488500D01*
X77279359Y-108487203D01*
X77253222Y-108483326D01*
X77227591Y-108476906D01*
X77202712Y-108468005D01*
X77178826Y-108456707D01*
X77156163Y-108443123D01*
X77134940Y-108427383D01*
X77115361Y-108409639D01*
X77097617Y-108390060D01*
X77081877Y-108368837D01*
X77068293Y-108346174D01*
X77056995Y-108322288D01*
X77048094Y-108297409D01*
X77041674Y-108271778D01*
X77037797Y-108245641D01*
X77036500Y-108219250D01*
X77036500Y-107680750D01*
X77037797Y-107654359D01*
X77041674Y-107628222D01*
X77048094Y-107602591D01*
X77056995Y-107577712D01*
X77068293Y-107553826D01*
X77081877Y-107531163D01*
X77097617Y-107509940D01*
X77115361Y-107490361D01*
X77134940Y-107472617D01*
X77156163Y-107456877D01*
X77178826Y-107443293D01*
X77202712Y-107431995D01*
X77227591Y-107423094D01*
X77253222Y-107416674D01*
X77279359Y-107412797D01*
X77305750Y-107411500D01*
X78269250Y-107411500D01*
X78295641Y-107412797D01*
X78295641Y-107412797D01*
G37*
D19*
X77787500Y-107950000D03*
D18*
G36*
X78295641Y-109287797D02*
G01*
X78321778Y-109291674D01*
X78347409Y-109298094D01*
X78372288Y-109306995D01*
X78396174Y-109318293D01*
X78418837Y-109331877D01*
X78440060Y-109347617D01*
X78459639Y-109365361D01*
X78477383Y-109384940D01*
X78493123Y-109406163D01*
X78506707Y-109428826D01*
X78518005Y-109452712D01*
X78526906Y-109477591D01*
X78533326Y-109503222D01*
X78537203Y-109529359D01*
X78538500Y-109555750D01*
X78538500Y-110094250D01*
X78537203Y-110120641D01*
X78533326Y-110146778D01*
X78526906Y-110172409D01*
X78518005Y-110197288D01*
X78506707Y-110221174D01*
X78493123Y-110243837D01*
X78477383Y-110265060D01*
X78459639Y-110284639D01*
X78440060Y-110302383D01*
X78418837Y-110318123D01*
X78396174Y-110331707D01*
X78372288Y-110343005D01*
X78347409Y-110351906D01*
X78321778Y-110358326D01*
X78295641Y-110362203D01*
X78269250Y-110363500D01*
X77305750Y-110363500D01*
X77279359Y-110362203D01*
X77253222Y-110358326D01*
X77227591Y-110351906D01*
X77202712Y-110343005D01*
X77178826Y-110331707D01*
X77156163Y-110318123D01*
X77134940Y-110302383D01*
X77115361Y-110284639D01*
X77097617Y-110265060D01*
X77081877Y-110243837D01*
X77068293Y-110221174D01*
X77056995Y-110197288D01*
X77048094Y-110172409D01*
X77041674Y-110146778D01*
X77037797Y-110120641D01*
X77036500Y-110094250D01*
X77036500Y-109555750D01*
X77037797Y-109529359D01*
X77041674Y-109503222D01*
X77048094Y-109477591D01*
X77056995Y-109452712D01*
X77068293Y-109428826D01*
X77081877Y-109406163D01*
X77097617Y-109384940D01*
X77115361Y-109365361D01*
X77134940Y-109347617D01*
X77156163Y-109331877D01*
X77178826Y-109318293D01*
X77202712Y-109306995D01*
X77227591Y-109298094D01*
X77253222Y-109291674D01*
X77279359Y-109287797D01*
X77305750Y-109286500D01*
X78269250Y-109286500D01*
X78295641Y-109287797D01*
X78295641Y-109287797D01*
G37*
D19*
X77787500Y-109825000D03*
D18*
G36*
X96551891Y-96012797D02*
G01*
X96578028Y-96016674D01*
X96603659Y-96023094D01*
X96628538Y-96031995D01*
X96652424Y-96043293D01*
X96675087Y-96056877D01*
X96696310Y-96072617D01*
X96715889Y-96090361D01*
X96733633Y-96109940D01*
X96749373Y-96131163D01*
X96762957Y-96153826D01*
X96774255Y-96177712D01*
X96783156Y-96202591D01*
X96789576Y-96228222D01*
X96793453Y-96254359D01*
X96794750Y-96280750D01*
X96794750Y-96819250D01*
X96793453Y-96845641D01*
X96789576Y-96871778D01*
X96783156Y-96897409D01*
X96774255Y-96922288D01*
X96762957Y-96946174D01*
X96749373Y-96968837D01*
X96733633Y-96990060D01*
X96715889Y-97009639D01*
X96696310Y-97027383D01*
X96675087Y-97043123D01*
X96652424Y-97056707D01*
X96628538Y-97068005D01*
X96603659Y-97076906D01*
X96578028Y-97083326D01*
X96551891Y-97087203D01*
X96525500Y-97088500D01*
X95562000Y-97088500D01*
X95535609Y-97087203D01*
X95509472Y-97083326D01*
X95483841Y-97076906D01*
X95458962Y-97068005D01*
X95435076Y-97056707D01*
X95412413Y-97043123D01*
X95391190Y-97027383D01*
X95371611Y-97009639D01*
X95353867Y-96990060D01*
X95338127Y-96968837D01*
X95324543Y-96946174D01*
X95313245Y-96922288D01*
X95304344Y-96897409D01*
X95297924Y-96871778D01*
X95294047Y-96845641D01*
X95292750Y-96819250D01*
X95292750Y-96280750D01*
X95294047Y-96254359D01*
X95297924Y-96228222D01*
X95304344Y-96202591D01*
X95313245Y-96177712D01*
X95324543Y-96153826D01*
X95338127Y-96131163D01*
X95353867Y-96109940D01*
X95371611Y-96090361D01*
X95391190Y-96072617D01*
X95412413Y-96056877D01*
X95435076Y-96043293D01*
X95458962Y-96031995D01*
X95483841Y-96023094D01*
X95509472Y-96016674D01*
X95535609Y-96012797D01*
X95562000Y-96011500D01*
X96525500Y-96011500D01*
X96551891Y-96012797D01*
X96551891Y-96012797D01*
G37*
D19*
X96043750Y-96550000D03*
D18*
G36*
X96551891Y-97887797D02*
G01*
X96578028Y-97891674D01*
X96603659Y-97898094D01*
X96628538Y-97906995D01*
X96652424Y-97918293D01*
X96675087Y-97931877D01*
X96696310Y-97947617D01*
X96715889Y-97965361D01*
X96733633Y-97984940D01*
X96749373Y-98006163D01*
X96762957Y-98028826D01*
X96774255Y-98052712D01*
X96783156Y-98077591D01*
X96789576Y-98103222D01*
X96793453Y-98129359D01*
X96794750Y-98155750D01*
X96794750Y-98694250D01*
X96793453Y-98720641D01*
X96789576Y-98746778D01*
X96783156Y-98772409D01*
X96774255Y-98797288D01*
X96762957Y-98821174D01*
X96749373Y-98843837D01*
X96733633Y-98865060D01*
X96715889Y-98884639D01*
X96696310Y-98902383D01*
X96675087Y-98918123D01*
X96652424Y-98931707D01*
X96628538Y-98943005D01*
X96603659Y-98951906D01*
X96578028Y-98958326D01*
X96551891Y-98962203D01*
X96525500Y-98963500D01*
X95562000Y-98963500D01*
X95535609Y-98962203D01*
X95509472Y-98958326D01*
X95483841Y-98951906D01*
X95458962Y-98943005D01*
X95435076Y-98931707D01*
X95412413Y-98918123D01*
X95391190Y-98902383D01*
X95371611Y-98884639D01*
X95353867Y-98865060D01*
X95338127Y-98843837D01*
X95324543Y-98821174D01*
X95313245Y-98797288D01*
X95304344Y-98772409D01*
X95297924Y-98746778D01*
X95294047Y-98720641D01*
X95292750Y-98694250D01*
X95292750Y-98155750D01*
X95294047Y-98129359D01*
X95297924Y-98103222D01*
X95304344Y-98077591D01*
X95313245Y-98052712D01*
X95324543Y-98028826D01*
X95338127Y-98006163D01*
X95353867Y-97984940D01*
X95371611Y-97965361D01*
X95391190Y-97947617D01*
X95412413Y-97931877D01*
X95435076Y-97918293D01*
X95458962Y-97906995D01*
X95483841Y-97898094D01*
X95509472Y-97891674D01*
X95535609Y-97887797D01*
X95562000Y-97886500D01*
X96525500Y-97886500D01*
X96551891Y-97887797D01*
X96551891Y-97887797D01*
G37*
D19*
X96043750Y-98425000D03*
D18*
G36*
X79089391Y-92331547D02*
G01*
X79115528Y-92335424D01*
X79141159Y-92341844D01*
X79166038Y-92350745D01*
X79189924Y-92362043D01*
X79212587Y-92375627D01*
X79233810Y-92391367D01*
X79253389Y-92409111D01*
X79271133Y-92428690D01*
X79286873Y-92449913D01*
X79300457Y-92472576D01*
X79311755Y-92496462D01*
X79320656Y-92521341D01*
X79327076Y-92546972D01*
X79330953Y-92573109D01*
X79332250Y-92599500D01*
X79332250Y-93138000D01*
X79330953Y-93164391D01*
X79327076Y-93190528D01*
X79320656Y-93216159D01*
X79311755Y-93241038D01*
X79300457Y-93264924D01*
X79286873Y-93287587D01*
X79271133Y-93308810D01*
X79253389Y-93328389D01*
X79233810Y-93346133D01*
X79212587Y-93361873D01*
X79189924Y-93375457D01*
X79166038Y-93386755D01*
X79141159Y-93395656D01*
X79115528Y-93402076D01*
X79089391Y-93405953D01*
X79063000Y-93407250D01*
X78099500Y-93407250D01*
X78073109Y-93405953D01*
X78046972Y-93402076D01*
X78021341Y-93395656D01*
X77996462Y-93386755D01*
X77972576Y-93375457D01*
X77949913Y-93361873D01*
X77928690Y-93346133D01*
X77909111Y-93328389D01*
X77891367Y-93308810D01*
X77875627Y-93287587D01*
X77862043Y-93264924D01*
X77850745Y-93241038D01*
X77841844Y-93216159D01*
X77835424Y-93190528D01*
X77831547Y-93164391D01*
X77830250Y-93138000D01*
X77830250Y-92599500D01*
X77831547Y-92573109D01*
X77835424Y-92546972D01*
X77841844Y-92521341D01*
X77850745Y-92496462D01*
X77862043Y-92472576D01*
X77875627Y-92449913D01*
X77891367Y-92428690D01*
X77909111Y-92409111D01*
X77928690Y-92391367D01*
X77949913Y-92375627D01*
X77972576Y-92362043D01*
X77996462Y-92350745D01*
X78021341Y-92341844D01*
X78046972Y-92335424D01*
X78073109Y-92331547D01*
X78099500Y-92330250D01*
X79063000Y-92330250D01*
X79089391Y-92331547D01*
X79089391Y-92331547D01*
G37*
D19*
X78581250Y-92868750D03*
D18*
G36*
X79089391Y-94206547D02*
G01*
X79115528Y-94210424D01*
X79141159Y-94216844D01*
X79166038Y-94225745D01*
X79189924Y-94237043D01*
X79212587Y-94250627D01*
X79233810Y-94266367D01*
X79253389Y-94284111D01*
X79271133Y-94303690D01*
X79286873Y-94324913D01*
X79300457Y-94347576D01*
X79311755Y-94371462D01*
X79320656Y-94396341D01*
X79327076Y-94421972D01*
X79330953Y-94448109D01*
X79332250Y-94474500D01*
X79332250Y-95013000D01*
X79330953Y-95039391D01*
X79327076Y-95065528D01*
X79320656Y-95091159D01*
X79311755Y-95116038D01*
X79300457Y-95139924D01*
X79286873Y-95162587D01*
X79271133Y-95183810D01*
X79253389Y-95203389D01*
X79233810Y-95221133D01*
X79212587Y-95236873D01*
X79189924Y-95250457D01*
X79166038Y-95261755D01*
X79141159Y-95270656D01*
X79115528Y-95277076D01*
X79089391Y-95280953D01*
X79063000Y-95282250D01*
X78099500Y-95282250D01*
X78073109Y-95280953D01*
X78046972Y-95277076D01*
X78021341Y-95270656D01*
X77996462Y-95261755D01*
X77972576Y-95250457D01*
X77949913Y-95236873D01*
X77928690Y-95221133D01*
X77909111Y-95203389D01*
X77891367Y-95183810D01*
X77875627Y-95162587D01*
X77862043Y-95139924D01*
X77850745Y-95116038D01*
X77841844Y-95091159D01*
X77835424Y-95065528D01*
X77831547Y-95039391D01*
X77830250Y-95013000D01*
X77830250Y-94474500D01*
X77831547Y-94448109D01*
X77835424Y-94421972D01*
X77841844Y-94396341D01*
X77850745Y-94371462D01*
X77862043Y-94347576D01*
X77875627Y-94324913D01*
X77891367Y-94303690D01*
X77909111Y-94284111D01*
X77928690Y-94266367D01*
X77949913Y-94250627D01*
X77972576Y-94237043D01*
X77996462Y-94225745D01*
X78021341Y-94216844D01*
X78046972Y-94210424D01*
X78073109Y-94206547D01*
X78099500Y-94205250D01*
X79063000Y-94205250D01*
X79089391Y-94206547D01*
X79089391Y-94206547D01*
G37*
D19*
X78581250Y-94743750D03*
D18*
G36*
X89989391Y-111169047D02*
G01*
X90015528Y-111172924D01*
X90041159Y-111179344D01*
X90066038Y-111188245D01*
X90089924Y-111199543D01*
X90112587Y-111213127D01*
X90133810Y-111228867D01*
X90153389Y-111246611D01*
X90171133Y-111266190D01*
X90186873Y-111287413D01*
X90200457Y-111310076D01*
X90211755Y-111333962D01*
X90220656Y-111358841D01*
X90227076Y-111384472D01*
X90230953Y-111410609D01*
X90232250Y-111437000D01*
X90232250Y-112400500D01*
X90230953Y-112426891D01*
X90227076Y-112453028D01*
X90220656Y-112478659D01*
X90211755Y-112503538D01*
X90200457Y-112527424D01*
X90186873Y-112550087D01*
X90171133Y-112571310D01*
X90153389Y-112590889D01*
X90133810Y-112608633D01*
X90112587Y-112624373D01*
X90089924Y-112637957D01*
X90066038Y-112649255D01*
X90041159Y-112658156D01*
X90015528Y-112664576D01*
X89989391Y-112668453D01*
X89963000Y-112669750D01*
X89424500Y-112669750D01*
X89398109Y-112668453D01*
X89371972Y-112664576D01*
X89346341Y-112658156D01*
X89321462Y-112649255D01*
X89297576Y-112637957D01*
X89274913Y-112624373D01*
X89253690Y-112608633D01*
X89234111Y-112590889D01*
X89216367Y-112571310D01*
X89200627Y-112550087D01*
X89187043Y-112527424D01*
X89175745Y-112503538D01*
X89166844Y-112478659D01*
X89160424Y-112453028D01*
X89156547Y-112426891D01*
X89155250Y-112400500D01*
X89155250Y-111437000D01*
X89156547Y-111410609D01*
X89160424Y-111384472D01*
X89166844Y-111358841D01*
X89175745Y-111333962D01*
X89187043Y-111310076D01*
X89200627Y-111287413D01*
X89216367Y-111266190D01*
X89234111Y-111246611D01*
X89253690Y-111228867D01*
X89274913Y-111213127D01*
X89297576Y-111199543D01*
X89321462Y-111188245D01*
X89346341Y-111179344D01*
X89371972Y-111172924D01*
X89398109Y-111169047D01*
X89424500Y-111167750D01*
X89963000Y-111167750D01*
X89989391Y-111169047D01*
X89989391Y-111169047D01*
G37*
D19*
X89693750Y-111918750D03*
D18*
G36*
X91864391Y-111169047D02*
G01*
X91890528Y-111172924D01*
X91916159Y-111179344D01*
X91941038Y-111188245D01*
X91964924Y-111199543D01*
X91987587Y-111213127D01*
X92008810Y-111228867D01*
X92028389Y-111246611D01*
X92046133Y-111266190D01*
X92061873Y-111287413D01*
X92075457Y-111310076D01*
X92086755Y-111333962D01*
X92095656Y-111358841D01*
X92102076Y-111384472D01*
X92105953Y-111410609D01*
X92107250Y-111437000D01*
X92107250Y-112400500D01*
X92105953Y-112426891D01*
X92102076Y-112453028D01*
X92095656Y-112478659D01*
X92086755Y-112503538D01*
X92075457Y-112527424D01*
X92061873Y-112550087D01*
X92046133Y-112571310D01*
X92028389Y-112590889D01*
X92008810Y-112608633D01*
X91987587Y-112624373D01*
X91964924Y-112637957D01*
X91941038Y-112649255D01*
X91916159Y-112658156D01*
X91890528Y-112664576D01*
X91864391Y-112668453D01*
X91838000Y-112669750D01*
X91299500Y-112669750D01*
X91273109Y-112668453D01*
X91246972Y-112664576D01*
X91221341Y-112658156D01*
X91196462Y-112649255D01*
X91172576Y-112637957D01*
X91149913Y-112624373D01*
X91128690Y-112608633D01*
X91109111Y-112590889D01*
X91091367Y-112571310D01*
X91075627Y-112550087D01*
X91062043Y-112527424D01*
X91050745Y-112503538D01*
X91041844Y-112478659D01*
X91035424Y-112453028D01*
X91031547Y-112426891D01*
X91030250Y-112400500D01*
X91030250Y-111437000D01*
X91031547Y-111410609D01*
X91035424Y-111384472D01*
X91041844Y-111358841D01*
X91050745Y-111333962D01*
X91062043Y-111310076D01*
X91075627Y-111287413D01*
X91091367Y-111266190D01*
X91109111Y-111246611D01*
X91128690Y-111228867D01*
X91149913Y-111213127D01*
X91172576Y-111199543D01*
X91196462Y-111188245D01*
X91221341Y-111179344D01*
X91246972Y-111172924D01*
X91273109Y-111169047D01*
X91299500Y-111167750D01*
X91838000Y-111167750D01*
X91864391Y-111169047D01*
X91864391Y-111169047D01*
G37*
D19*
X91568750Y-111918750D03*
D18*
G36*
X75914391Y-101856547D02*
G01*
X75940528Y-101860424D01*
X75966159Y-101866844D01*
X75991038Y-101875745D01*
X76014924Y-101887043D01*
X76037587Y-101900627D01*
X76058810Y-101916367D01*
X76078389Y-101934111D01*
X76096133Y-101953690D01*
X76111873Y-101974913D01*
X76125457Y-101997576D01*
X76136755Y-102021462D01*
X76145656Y-102046341D01*
X76152076Y-102071972D01*
X76155953Y-102098109D01*
X76157250Y-102124500D01*
X76157250Y-102663000D01*
X76155953Y-102689391D01*
X76152076Y-102715528D01*
X76145656Y-102741159D01*
X76136755Y-102766038D01*
X76125457Y-102789924D01*
X76111873Y-102812587D01*
X76096133Y-102833810D01*
X76078389Y-102853389D01*
X76058810Y-102871133D01*
X76037587Y-102886873D01*
X76014924Y-102900457D01*
X75991038Y-102911755D01*
X75966159Y-102920656D01*
X75940528Y-102927076D01*
X75914391Y-102930953D01*
X75888000Y-102932250D01*
X74924500Y-102932250D01*
X74898109Y-102930953D01*
X74871972Y-102927076D01*
X74846341Y-102920656D01*
X74821462Y-102911755D01*
X74797576Y-102900457D01*
X74774913Y-102886873D01*
X74753690Y-102871133D01*
X74734111Y-102853389D01*
X74716367Y-102833810D01*
X74700627Y-102812587D01*
X74687043Y-102789924D01*
X74675745Y-102766038D01*
X74666844Y-102741159D01*
X74660424Y-102715528D01*
X74656547Y-102689391D01*
X74655250Y-102663000D01*
X74655250Y-102124500D01*
X74656547Y-102098109D01*
X74660424Y-102071972D01*
X74666844Y-102046341D01*
X74675745Y-102021462D01*
X74687043Y-101997576D01*
X74700627Y-101974913D01*
X74716367Y-101953690D01*
X74734111Y-101934111D01*
X74753690Y-101916367D01*
X74774913Y-101900627D01*
X74797576Y-101887043D01*
X74821462Y-101875745D01*
X74846341Y-101866844D01*
X74871972Y-101860424D01*
X74898109Y-101856547D01*
X74924500Y-101855250D01*
X75888000Y-101855250D01*
X75914391Y-101856547D01*
X75914391Y-101856547D01*
G37*
D19*
X75406250Y-102393750D03*
D18*
G36*
X75914391Y-103731547D02*
G01*
X75940528Y-103735424D01*
X75966159Y-103741844D01*
X75991038Y-103750745D01*
X76014924Y-103762043D01*
X76037587Y-103775627D01*
X76058810Y-103791367D01*
X76078389Y-103809111D01*
X76096133Y-103828690D01*
X76111873Y-103849913D01*
X76125457Y-103872576D01*
X76136755Y-103896462D01*
X76145656Y-103921341D01*
X76152076Y-103946972D01*
X76155953Y-103973109D01*
X76157250Y-103999500D01*
X76157250Y-104538000D01*
X76155953Y-104564391D01*
X76152076Y-104590528D01*
X76145656Y-104616159D01*
X76136755Y-104641038D01*
X76125457Y-104664924D01*
X76111873Y-104687587D01*
X76096133Y-104708810D01*
X76078389Y-104728389D01*
X76058810Y-104746133D01*
X76037587Y-104761873D01*
X76014924Y-104775457D01*
X75991038Y-104786755D01*
X75966159Y-104795656D01*
X75940528Y-104802076D01*
X75914391Y-104805953D01*
X75888000Y-104807250D01*
X74924500Y-104807250D01*
X74898109Y-104805953D01*
X74871972Y-104802076D01*
X74846341Y-104795656D01*
X74821462Y-104786755D01*
X74797576Y-104775457D01*
X74774913Y-104761873D01*
X74753690Y-104746133D01*
X74734111Y-104728389D01*
X74716367Y-104708810D01*
X74700627Y-104687587D01*
X74687043Y-104664924D01*
X74675745Y-104641038D01*
X74666844Y-104616159D01*
X74660424Y-104590528D01*
X74656547Y-104564391D01*
X74655250Y-104538000D01*
X74655250Y-103999500D01*
X74656547Y-103973109D01*
X74660424Y-103946972D01*
X74666844Y-103921341D01*
X74675745Y-103896462D01*
X74687043Y-103872576D01*
X74700627Y-103849913D01*
X74716367Y-103828690D01*
X74734111Y-103809111D01*
X74753690Y-103791367D01*
X74774913Y-103775627D01*
X74797576Y-103762043D01*
X74821462Y-103750745D01*
X74846341Y-103741844D01*
X74871972Y-103735424D01*
X74898109Y-103731547D01*
X74924500Y-103730250D01*
X75888000Y-103730250D01*
X75914391Y-103731547D01*
X75914391Y-103731547D01*
G37*
D19*
X75406250Y-104268750D03*
D18*
G36*
X82264391Y-88362797D02*
G01*
X82290528Y-88366674D01*
X82316159Y-88373094D01*
X82341038Y-88381995D01*
X82364924Y-88393293D01*
X82387587Y-88406877D01*
X82408810Y-88422617D01*
X82428389Y-88440361D01*
X82446133Y-88459940D01*
X82461873Y-88481163D01*
X82475457Y-88503826D01*
X82486755Y-88527712D01*
X82495656Y-88552591D01*
X82502076Y-88578222D01*
X82505953Y-88604359D01*
X82507250Y-88630750D01*
X82507250Y-89169250D01*
X82505953Y-89195641D01*
X82502076Y-89221778D01*
X82495656Y-89247409D01*
X82486755Y-89272288D01*
X82475457Y-89296174D01*
X82461873Y-89318837D01*
X82446133Y-89340060D01*
X82428389Y-89359639D01*
X82408810Y-89377383D01*
X82387587Y-89393123D01*
X82364924Y-89406707D01*
X82341038Y-89418005D01*
X82316159Y-89426906D01*
X82290528Y-89433326D01*
X82264391Y-89437203D01*
X82238000Y-89438500D01*
X81274500Y-89438500D01*
X81248109Y-89437203D01*
X81221972Y-89433326D01*
X81196341Y-89426906D01*
X81171462Y-89418005D01*
X81147576Y-89406707D01*
X81124913Y-89393123D01*
X81103690Y-89377383D01*
X81084111Y-89359639D01*
X81066367Y-89340060D01*
X81050627Y-89318837D01*
X81037043Y-89296174D01*
X81025745Y-89272288D01*
X81016844Y-89247409D01*
X81010424Y-89221778D01*
X81006547Y-89195641D01*
X81005250Y-89169250D01*
X81005250Y-88630750D01*
X81006547Y-88604359D01*
X81010424Y-88578222D01*
X81016844Y-88552591D01*
X81025745Y-88527712D01*
X81037043Y-88503826D01*
X81050627Y-88481163D01*
X81066367Y-88459940D01*
X81084111Y-88440361D01*
X81103690Y-88422617D01*
X81124913Y-88406877D01*
X81147576Y-88393293D01*
X81171462Y-88381995D01*
X81196341Y-88373094D01*
X81221972Y-88366674D01*
X81248109Y-88362797D01*
X81274500Y-88361500D01*
X82238000Y-88361500D01*
X82264391Y-88362797D01*
X82264391Y-88362797D01*
G37*
D19*
X81756250Y-88900000D03*
D18*
G36*
X82264391Y-90237797D02*
G01*
X82290528Y-90241674D01*
X82316159Y-90248094D01*
X82341038Y-90256995D01*
X82364924Y-90268293D01*
X82387587Y-90281877D01*
X82408810Y-90297617D01*
X82428389Y-90315361D01*
X82446133Y-90334940D01*
X82461873Y-90356163D01*
X82475457Y-90378826D01*
X82486755Y-90402712D01*
X82495656Y-90427591D01*
X82502076Y-90453222D01*
X82505953Y-90479359D01*
X82507250Y-90505750D01*
X82507250Y-91044250D01*
X82505953Y-91070641D01*
X82502076Y-91096778D01*
X82495656Y-91122409D01*
X82486755Y-91147288D01*
X82475457Y-91171174D01*
X82461873Y-91193837D01*
X82446133Y-91215060D01*
X82428389Y-91234639D01*
X82408810Y-91252383D01*
X82387587Y-91268123D01*
X82364924Y-91281707D01*
X82341038Y-91293005D01*
X82316159Y-91301906D01*
X82290528Y-91308326D01*
X82264391Y-91312203D01*
X82238000Y-91313500D01*
X81274500Y-91313500D01*
X81248109Y-91312203D01*
X81221972Y-91308326D01*
X81196341Y-91301906D01*
X81171462Y-91293005D01*
X81147576Y-91281707D01*
X81124913Y-91268123D01*
X81103690Y-91252383D01*
X81084111Y-91234639D01*
X81066367Y-91215060D01*
X81050627Y-91193837D01*
X81037043Y-91171174D01*
X81025745Y-91147288D01*
X81016844Y-91122409D01*
X81010424Y-91096778D01*
X81006547Y-91070641D01*
X81005250Y-91044250D01*
X81005250Y-90505750D01*
X81006547Y-90479359D01*
X81010424Y-90453222D01*
X81016844Y-90427591D01*
X81025745Y-90402712D01*
X81037043Y-90378826D01*
X81050627Y-90356163D01*
X81066367Y-90334940D01*
X81084111Y-90315361D01*
X81103690Y-90297617D01*
X81124913Y-90281877D01*
X81147576Y-90268293D01*
X81171462Y-90256995D01*
X81196341Y-90248094D01*
X81221972Y-90241674D01*
X81248109Y-90237797D01*
X81274500Y-90236500D01*
X82238000Y-90236500D01*
X82264391Y-90237797D01*
X82264391Y-90237797D01*
G37*
D19*
X81756250Y-90775000D03*
D18*
G36*
X90201891Y-90237797D02*
G01*
X90228028Y-90241674D01*
X90253659Y-90248094D01*
X90278538Y-90256995D01*
X90302424Y-90268293D01*
X90325087Y-90281877D01*
X90346310Y-90297617D01*
X90365889Y-90315361D01*
X90383633Y-90334940D01*
X90399373Y-90356163D01*
X90412957Y-90378826D01*
X90424255Y-90402712D01*
X90433156Y-90427591D01*
X90439576Y-90453222D01*
X90443453Y-90479359D01*
X90444750Y-90505750D01*
X90444750Y-91044250D01*
X90443453Y-91070641D01*
X90439576Y-91096778D01*
X90433156Y-91122409D01*
X90424255Y-91147288D01*
X90412957Y-91171174D01*
X90399373Y-91193837D01*
X90383633Y-91215060D01*
X90365889Y-91234639D01*
X90346310Y-91252383D01*
X90325087Y-91268123D01*
X90302424Y-91281707D01*
X90278538Y-91293005D01*
X90253659Y-91301906D01*
X90228028Y-91308326D01*
X90201891Y-91312203D01*
X90175500Y-91313500D01*
X89212000Y-91313500D01*
X89185609Y-91312203D01*
X89159472Y-91308326D01*
X89133841Y-91301906D01*
X89108962Y-91293005D01*
X89085076Y-91281707D01*
X89062413Y-91268123D01*
X89041190Y-91252383D01*
X89021611Y-91234639D01*
X89003867Y-91215060D01*
X88988127Y-91193837D01*
X88974543Y-91171174D01*
X88963245Y-91147288D01*
X88954344Y-91122409D01*
X88947924Y-91096778D01*
X88944047Y-91070641D01*
X88942750Y-91044250D01*
X88942750Y-90505750D01*
X88944047Y-90479359D01*
X88947924Y-90453222D01*
X88954344Y-90427591D01*
X88963245Y-90402712D01*
X88974543Y-90378826D01*
X88988127Y-90356163D01*
X89003867Y-90334940D01*
X89021611Y-90315361D01*
X89041190Y-90297617D01*
X89062413Y-90281877D01*
X89085076Y-90268293D01*
X89108962Y-90256995D01*
X89133841Y-90248094D01*
X89159472Y-90241674D01*
X89185609Y-90237797D01*
X89212000Y-90236500D01*
X90175500Y-90236500D01*
X90201891Y-90237797D01*
X90201891Y-90237797D01*
G37*
D19*
X89693750Y-90775000D03*
D18*
G36*
X90201891Y-88362797D02*
G01*
X90228028Y-88366674D01*
X90253659Y-88373094D01*
X90278538Y-88381995D01*
X90302424Y-88393293D01*
X90325087Y-88406877D01*
X90346310Y-88422617D01*
X90365889Y-88440361D01*
X90383633Y-88459940D01*
X90399373Y-88481163D01*
X90412957Y-88503826D01*
X90424255Y-88527712D01*
X90433156Y-88552591D01*
X90439576Y-88578222D01*
X90443453Y-88604359D01*
X90444750Y-88630750D01*
X90444750Y-89169250D01*
X90443453Y-89195641D01*
X90439576Y-89221778D01*
X90433156Y-89247409D01*
X90424255Y-89272288D01*
X90412957Y-89296174D01*
X90399373Y-89318837D01*
X90383633Y-89340060D01*
X90365889Y-89359639D01*
X90346310Y-89377383D01*
X90325087Y-89393123D01*
X90302424Y-89406707D01*
X90278538Y-89418005D01*
X90253659Y-89426906D01*
X90228028Y-89433326D01*
X90201891Y-89437203D01*
X90175500Y-89438500D01*
X89212000Y-89438500D01*
X89185609Y-89437203D01*
X89159472Y-89433326D01*
X89133841Y-89426906D01*
X89108962Y-89418005D01*
X89085076Y-89406707D01*
X89062413Y-89393123D01*
X89041190Y-89377383D01*
X89021611Y-89359639D01*
X89003867Y-89340060D01*
X88988127Y-89318837D01*
X88974543Y-89296174D01*
X88963245Y-89272288D01*
X88954344Y-89247409D01*
X88947924Y-89221778D01*
X88944047Y-89195641D01*
X88942750Y-89169250D01*
X88942750Y-88630750D01*
X88944047Y-88604359D01*
X88947924Y-88578222D01*
X88954344Y-88552591D01*
X88963245Y-88527712D01*
X88974543Y-88503826D01*
X88988127Y-88481163D01*
X89003867Y-88459940D01*
X89021611Y-88440361D01*
X89041190Y-88422617D01*
X89062413Y-88406877D01*
X89085076Y-88393293D01*
X89108962Y-88381995D01*
X89133841Y-88373094D01*
X89159472Y-88366674D01*
X89185609Y-88362797D01*
X89212000Y-88361500D01*
X90175500Y-88361500D01*
X90201891Y-88362797D01*
X90201891Y-88362797D01*
G37*
D19*
X89693750Y-88900000D03*
M02*
