G04 #@! TF.GenerationSoftware,KiCad,Pcbnew,(5.1.4)-1*
G04 #@! TF.CreationDate,2023-03-06T13:27:41+02:00*
G04 #@! TF.ProjectId,Keyboard,4b657962-6f61-4726-942e-6b696361645f,rev?*
G04 #@! TF.SameCoordinates,Original*
G04 #@! TF.FileFunction,Soldermask,Top*
G04 #@! TF.FilePolarity,Negative*
%FSLAX46Y46*%
G04 Gerber Fmt 4.6, Leading zero omitted, Abs format (unit mm)*
G04 Created by KiCad (PCBNEW (5.1.4)-1) date 2023-03-06 13:27:41*
%MOMM*%
%LPD*%
G04 APERTURE LIST*
%ADD10C,0.100000*%
G04 APERTURE END LIST*
D10*
G36*
X188715224Y-152021184D02*
G01*
X188933224Y-152111483D01*
X189087373Y-152175333D01*
X189422298Y-152399123D01*
X189707127Y-152683952D01*
X189930917Y-153018877D01*
X189963312Y-153097086D01*
X190085066Y-153391026D01*
X190163650Y-153786094D01*
X190163650Y-154188906D01*
X190085066Y-154583974D01*
X190034201Y-154706772D01*
X189930917Y-154956123D01*
X189707127Y-155291048D01*
X189422298Y-155575877D01*
X189087373Y-155799667D01*
X188933224Y-155863517D01*
X188715224Y-155953816D01*
X188320156Y-156032400D01*
X187917344Y-156032400D01*
X187522276Y-155953816D01*
X187304276Y-155863517D01*
X187150127Y-155799667D01*
X186815202Y-155575877D01*
X186530373Y-155291048D01*
X186306583Y-154956123D01*
X186203299Y-154706772D01*
X186152434Y-154583974D01*
X186073850Y-154188906D01*
X186073850Y-153786094D01*
X186152434Y-153391026D01*
X186274188Y-153097086D01*
X186306583Y-153018877D01*
X186530373Y-152683952D01*
X186815202Y-152399123D01*
X187150127Y-152175333D01*
X187304276Y-152111483D01*
X187522276Y-152021184D01*
X187917344Y-151942600D01*
X188320156Y-151942600D01*
X188715224Y-152021184D01*
X188715224Y-152021184D01*
G37*
G36*
X169665224Y-152021184D02*
G01*
X169883224Y-152111483D01*
X170037373Y-152175333D01*
X170372298Y-152399123D01*
X170657127Y-152683952D01*
X170880917Y-153018877D01*
X170913312Y-153097086D01*
X171035066Y-153391026D01*
X171113650Y-153786094D01*
X171113650Y-154188906D01*
X171035066Y-154583974D01*
X170984201Y-154706772D01*
X170880917Y-154956123D01*
X170657127Y-155291048D01*
X170372298Y-155575877D01*
X170037373Y-155799667D01*
X169883224Y-155863517D01*
X169665224Y-155953816D01*
X169270156Y-156032400D01*
X168867344Y-156032400D01*
X168472276Y-155953816D01*
X168254276Y-155863517D01*
X168100127Y-155799667D01*
X167765202Y-155575877D01*
X167480373Y-155291048D01*
X167256583Y-154956123D01*
X167153299Y-154706772D01*
X167102434Y-154583974D01*
X167023850Y-154188906D01*
X167023850Y-153786094D01*
X167102434Y-153391026D01*
X167224188Y-153097086D01*
X167256583Y-153018877D01*
X167480373Y-152683952D01*
X167765202Y-152399123D01*
X168100127Y-152175333D01*
X168254276Y-152111483D01*
X168472276Y-152021184D01*
X168867344Y-151942600D01*
X169270156Y-151942600D01*
X169665224Y-152021184D01*
X169665224Y-152021184D01*
G37*
G36*
X112515224Y-152021184D02*
G01*
X112733224Y-152111483D01*
X112887373Y-152175333D01*
X113222298Y-152399123D01*
X113507127Y-152683952D01*
X113730917Y-153018877D01*
X113763312Y-153097086D01*
X113885066Y-153391026D01*
X113963650Y-153786094D01*
X113963650Y-154188906D01*
X113885066Y-154583974D01*
X113834201Y-154706772D01*
X113730917Y-154956123D01*
X113507127Y-155291048D01*
X113222298Y-155575877D01*
X112887373Y-155799667D01*
X112733224Y-155863517D01*
X112515224Y-155953816D01*
X112120156Y-156032400D01*
X111717344Y-156032400D01*
X111322276Y-155953816D01*
X111104276Y-155863517D01*
X110950127Y-155799667D01*
X110615202Y-155575877D01*
X110330373Y-155291048D01*
X110106583Y-154956123D01*
X110003299Y-154706772D01*
X109952434Y-154583974D01*
X109873850Y-154188906D01*
X109873850Y-153786094D01*
X109952434Y-153391026D01*
X110074188Y-153097086D01*
X110106583Y-153018877D01*
X110330373Y-152683952D01*
X110615202Y-152399123D01*
X110950127Y-152175333D01*
X111104276Y-152111483D01*
X111322276Y-152021184D01*
X111717344Y-151942600D01*
X112120156Y-151942600D01*
X112515224Y-152021184D01*
X112515224Y-152021184D01*
G37*
G36*
X150615224Y-152021184D02*
G01*
X150833224Y-152111483D01*
X150987373Y-152175333D01*
X151322298Y-152399123D01*
X151607127Y-152683952D01*
X151830917Y-153018877D01*
X151863312Y-153097086D01*
X151985066Y-153391026D01*
X152063650Y-153786094D01*
X152063650Y-154188906D01*
X151985066Y-154583974D01*
X151934201Y-154706772D01*
X151830917Y-154956123D01*
X151607127Y-155291048D01*
X151322298Y-155575877D01*
X150987373Y-155799667D01*
X150833224Y-155863517D01*
X150615224Y-155953816D01*
X150220156Y-156032400D01*
X149817344Y-156032400D01*
X149422276Y-155953816D01*
X149204276Y-155863517D01*
X149050127Y-155799667D01*
X148715202Y-155575877D01*
X148430373Y-155291048D01*
X148206583Y-154956123D01*
X148103299Y-154706772D01*
X148052434Y-154583974D01*
X147973850Y-154188906D01*
X147973850Y-153786094D01*
X148052434Y-153391026D01*
X148174188Y-153097086D01*
X148206583Y-153018877D01*
X148430373Y-152683952D01*
X148715202Y-152399123D01*
X149050127Y-152175333D01*
X149204276Y-152111483D01*
X149422276Y-152021184D01*
X149817344Y-151942600D01*
X150220156Y-151942600D01*
X150615224Y-152021184D01*
X150615224Y-152021184D01*
G37*
G36*
X131565224Y-152021184D02*
G01*
X131783224Y-152111483D01*
X131937373Y-152175333D01*
X132272298Y-152399123D01*
X132557127Y-152683952D01*
X132780917Y-153018877D01*
X132813312Y-153097086D01*
X132935066Y-153391026D01*
X133013650Y-153786094D01*
X133013650Y-154188906D01*
X132935066Y-154583974D01*
X132884201Y-154706772D01*
X132780917Y-154956123D01*
X132557127Y-155291048D01*
X132272298Y-155575877D01*
X131937373Y-155799667D01*
X131783224Y-155863517D01*
X131565224Y-155953816D01*
X131170156Y-156032400D01*
X130767344Y-156032400D01*
X130372276Y-155953816D01*
X130154276Y-155863517D01*
X130000127Y-155799667D01*
X129665202Y-155575877D01*
X129380373Y-155291048D01*
X129156583Y-154956123D01*
X129053299Y-154706772D01*
X129002434Y-154583974D01*
X128923850Y-154188906D01*
X128923850Y-153786094D01*
X129002434Y-153391026D01*
X129124188Y-153097086D01*
X129156583Y-153018877D01*
X129380373Y-152683952D01*
X129665202Y-152399123D01*
X130000127Y-152175333D01*
X130154276Y-152111483D01*
X130372276Y-152021184D01*
X130767344Y-151942600D01*
X131170156Y-151942600D01*
X131565224Y-152021184D01*
X131565224Y-152021184D01*
G37*
G36*
X164258854Y-153097085D02*
G01*
X164427376Y-153166889D01*
X164579041Y-153268228D01*
X164708022Y-153397209D01*
X164809361Y-153548874D01*
X164879165Y-153717396D01*
X164914750Y-153896297D01*
X164914750Y-154078703D01*
X164879165Y-154257604D01*
X164809361Y-154426126D01*
X164708022Y-154577791D01*
X164579041Y-154706772D01*
X164427376Y-154808111D01*
X164258854Y-154877915D01*
X164079953Y-154913500D01*
X163897547Y-154913500D01*
X163718646Y-154877915D01*
X163550124Y-154808111D01*
X163398459Y-154706772D01*
X163269478Y-154577791D01*
X163168139Y-154426126D01*
X163098335Y-154257604D01*
X163062750Y-154078703D01*
X163062750Y-153896297D01*
X163098335Y-153717396D01*
X163168139Y-153548874D01*
X163269478Y-153397209D01*
X163398459Y-153268228D01*
X163550124Y-153166889D01*
X163718646Y-153097085D01*
X163897547Y-153061500D01*
X164079953Y-153061500D01*
X164258854Y-153097085D01*
X164258854Y-153097085D01*
G37*
G36*
X193468854Y-153097085D02*
G01*
X193637376Y-153166889D01*
X193789041Y-153268228D01*
X193918022Y-153397209D01*
X194019361Y-153548874D01*
X194089165Y-153717396D01*
X194124750Y-153896297D01*
X194124750Y-154078703D01*
X194089165Y-154257604D01*
X194019361Y-154426126D01*
X193918022Y-154577791D01*
X193789041Y-154706772D01*
X193637376Y-154808111D01*
X193468854Y-154877915D01*
X193289953Y-154913500D01*
X193107547Y-154913500D01*
X192928646Y-154877915D01*
X192760124Y-154808111D01*
X192608459Y-154706772D01*
X192479478Y-154577791D01*
X192378139Y-154426126D01*
X192308335Y-154257604D01*
X192272750Y-154078703D01*
X192272750Y-153896297D01*
X192308335Y-153717396D01*
X192378139Y-153548874D01*
X192479478Y-153397209D01*
X192608459Y-153268228D01*
X192760124Y-153166889D01*
X192928646Y-153097085D01*
X193107547Y-153061500D01*
X193289953Y-153061500D01*
X193468854Y-153097085D01*
X193468854Y-153097085D01*
G37*
G36*
X183308854Y-153097085D02*
G01*
X183477376Y-153166889D01*
X183629041Y-153268228D01*
X183758022Y-153397209D01*
X183859361Y-153548874D01*
X183929165Y-153717396D01*
X183964750Y-153896297D01*
X183964750Y-154078703D01*
X183929165Y-154257604D01*
X183859361Y-154426126D01*
X183758022Y-154577791D01*
X183629041Y-154706772D01*
X183477376Y-154808111D01*
X183308854Y-154877915D01*
X183129953Y-154913500D01*
X182947547Y-154913500D01*
X182768646Y-154877915D01*
X182600124Y-154808111D01*
X182448459Y-154706772D01*
X182319478Y-154577791D01*
X182218139Y-154426126D01*
X182148335Y-154257604D01*
X182112750Y-154078703D01*
X182112750Y-153896297D01*
X182148335Y-153717396D01*
X182218139Y-153548874D01*
X182319478Y-153397209D01*
X182448459Y-153268228D01*
X182600124Y-153166889D01*
X182768646Y-153097085D01*
X182947547Y-153061500D01*
X183129953Y-153061500D01*
X183308854Y-153097085D01*
X183308854Y-153097085D01*
G37*
G36*
X174418854Y-153097085D02*
G01*
X174587376Y-153166889D01*
X174739041Y-153268228D01*
X174868022Y-153397209D01*
X174969361Y-153548874D01*
X175039165Y-153717396D01*
X175074750Y-153896297D01*
X175074750Y-154078703D01*
X175039165Y-154257604D01*
X174969361Y-154426126D01*
X174868022Y-154577791D01*
X174739041Y-154706772D01*
X174587376Y-154808111D01*
X174418854Y-154877915D01*
X174239953Y-154913500D01*
X174057547Y-154913500D01*
X173878646Y-154877915D01*
X173710124Y-154808111D01*
X173558459Y-154706772D01*
X173429478Y-154577791D01*
X173328139Y-154426126D01*
X173258335Y-154257604D01*
X173222750Y-154078703D01*
X173222750Y-153896297D01*
X173258335Y-153717396D01*
X173328139Y-153548874D01*
X173429478Y-153397209D01*
X173558459Y-153268228D01*
X173710124Y-153166889D01*
X173878646Y-153097085D01*
X174057547Y-153061500D01*
X174239953Y-153061500D01*
X174418854Y-153097085D01*
X174418854Y-153097085D01*
G37*
G36*
X155368854Y-153097085D02*
G01*
X155537376Y-153166889D01*
X155689041Y-153268228D01*
X155818022Y-153397209D01*
X155919361Y-153548874D01*
X155989165Y-153717396D01*
X156024750Y-153896297D01*
X156024750Y-154078703D01*
X155989165Y-154257604D01*
X155919361Y-154426126D01*
X155818022Y-154577791D01*
X155689041Y-154706772D01*
X155537376Y-154808111D01*
X155368854Y-154877915D01*
X155189953Y-154913500D01*
X155007547Y-154913500D01*
X154828646Y-154877915D01*
X154660124Y-154808111D01*
X154508459Y-154706772D01*
X154379478Y-154577791D01*
X154278139Y-154426126D01*
X154208335Y-154257604D01*
X154172750Y-154078703D01*
X154172750Y-153896297D01*
X154208335Y-153717396D01*
X154278139Y-153548874D01*
X154379478Y-153397209D01*
X154508459Y-153268228D01*
X154660124Y-153166889D01*
X154828646Y-153097085D01*
X155007547Y-153061500D01*
X155189953Y-153061500D01*
X155368854Y-153097085D01*
X155368854Y-153097085D01*
G37*
G36*
X145208854Y-153097085D02*
G01*
X145377376Y-153166889D01*
X145529041Y-153268228D01*
X145658022Y-153397209D01*
X145759361Y-153548874D01*
X145829165Y-153717396D01*
X145864750Y-153896297D01*
X145864750Y-154078703D01*
X145829165Y-154257604D01*
X145759361Y-154426126D01*
X145658022Y-154577791D01*
X145529041Y-154706772D01*
X145377376Y-154808111D01*
X145208854Y-154877915D01*
X145029953Y-154913500D01*
X144847547Y-154913500D01*
X144668646Y-154877915D01*
X144500124Y-154808111D01*
X144348459Y-154706772D01*
X144219478Y-154577791D01*
X144118139Y-154426126D01*
X144048335Y-154257604D01*
X144012750Y-154078703D01*
X144012750Y-153896297D01*
X144048335Y-153717396D01*
X144118139Y-153548874D01*
X144219478Y-153397209D01*
X144348459Y-153268228D01*
X144500124Y-153166889D01*
X144668646Y-153097085D01*
X144847547Y-153061500D01*
X145029953Y-153061500D01*
X145208854Y-153097085D01*
X145208854Y-153097085D01*
G37*
G36*
X136318854Y-153097085D02*
G01*
X136487376Y-153166889D01*
X136639041Y-153268228D01*
X136768022Y-153397209D01*
X136869361Y-153548874D01*
X136939165Y-153717396D01*
X136974750Y-153896297D01*
X136974750Y-154078703D01*
X136939165Y-154257604D01*
X136869361Y-154426126D01*
X136768022Y-154577791D01*
X136639041Y-154706772D01*
X136487376Y-154808111D01*
X136318854Y-154877915D01*
X136139953Y-154913500D01*
X135957547Y-154913500D01*
X135778646Y-154877915D01*
X135610124Y-154808111D01*
X135458459Y-154706772D01*
X135329478Y-154577791D01*
X135228139Y-154426126D01*
X135158335Y-154257604D01*
X135122750Y-154078703D01*
X135122750Y-153896297D01*
X135158335Y-153717396D01*
X135228139Y-153548874D01*
X135329478Y-153397209D01*
X135458459Y-153268228D01*
X135610124Y-153166889D01*
X135778646Y-153097085D01*
X135957547Y-153061500D01*
X136139953Y-153061500D01*
X136318854Y-153097085D01*
X136318854Y-153097085D01*
G37*
G36*
X126158854Y-153097085D02*
G01*
X126327376Y-153166889D01*
X126479041Y-153268228D01*
X126608022Y-153397209D01*
X126709361Y-153548874D01*
X126779165Y-153717396D01*
X126814750Y-153896297D01*
X126814750Y-154078703D01*
X126779165Y-154257604D01*
X126709361Y-154426126D01*
X126608022Y-154577791D01*
X126479041Y-154706772D01*
X126327376Y-154808111D01*
X126158854Y-154877915D01*
X125979953Y-154913500D01*
X125797547Y-154913500D01*
X125618646Y-154877915D01*
X125450124Y-154808111D01*
X125298459Y-154706772D01*
X125169478Y-154577791D01*
X125068139Y-154426126D01*
X124998335Y-154257604D01*
X124962750Y-154078703D01*
X124962750Y-153896297D01*
X124998335Y-153717396D01*
X125068139Y-153548874D01*
X125169478Y-153397209D01*
X125298459Y-153268228D01*
X125450124Y-153166889D01*
X125618646Y-153097085D01*
X125797547Y-153061500D01*
X125979953Y-153061500D01*
X126158854Y-153097085D01*
X126158854Y-153097085D01*
G37*
G36*
X117268854Y-153097085D02*
G01*
X117437376Y-153166889D01*
X117589041Y-153268228D01*
X117718022Y-153397209D01*
X117819361Y-153548874D01*
X117889165Y-153717396D01*
X117924750Y-153896297D01*
X117924750Y-154078703D01*
X117889165Y-154257604D01*
X117819361Y-154426126D01*
X117718022Y-154577791D01*
X117589041Y-154706772D01*
X117437376Y-154808111D01*
X117268854Y-154877915D01*
X117089953Y-154913500D01*
X116907547Y-154913500D01*
X116728646Y-154877915D01*
X116560124Y-154808111D01*
X116408459Y-154706772D01*
X116279478Y-154577791D01*
X116178139Y-154426126D01*
X116108335Y-154257604D01*
X116072750Y-154078703D01*
X116072750Y-153896297D01*
X116108335Y-153717396D01*
X116178139Y-153548874D01*
X116279478Y-153397209D01*
X116408459Y-153268228D01*
X116560124Y-153166889D01*
X116728646Y-153097085D01*
X116907547Y-153061500D01*
X117089953Y-153061500D01*
X117268854Y-153097085D01*
X117268854Y-153097085D01*
G37*
G36*
X107108854Y-153097085D02*
G01*
X107277376Y-153166889D01*
X107429041Y-153268228D01*
X107558022Y-153397209D01*
X107659361Y-153548874D01*
X107729165Y-153717396D01*
X107764750Y-153896297D01*
X107764750Y-154078703D01*
X107729165Y-154257604D01*
X107659361Y-154426126D01*
X107558022Y-154577791D01*
X107429041Y-154706772D01*
X107277376Y-154808111D01*
X107108854Y-154877915D01*
X106929953Y-154913500D01*
X106747547Y-154913500D01*
X106568646Y-154877915D01*
X106400124Y-154808111D01*
X106248459Y-154706772D01*
X106119478Y-154577791D01*
X106018139Y-154426126D01*
X105948335Y-154257604D01*
X105912750Y-154078703D01*
X105912750Y-153896297D01*
X105948335Y-153717396D01*
X106018139Y-153548874D01*
X106119478Y-153397209D01*
X106248459Y-153268228D01*
X106400124Y-153166889D01*
X106568646Y-153097085D01*
X106747547Y-153061500D01*
X106929953Y-153061500D01*
X107108854Y-153097085D01*
X107108854Y-153097085D01*
G37*
G36*
X112515224Y-132971184D02*
G01*
X112733224Y-133061483D01*
X112887373Y-133125333D01*
X113222298Y-133349123D01*
X113507127Y-133633952D01*
X113730917Y-133968877D01*
X113763312Y-134047086D01*
X113885066Y-134341026D01*
X113963650Y-134736094D01*
X113963650Y-135138906D01*
X113885066Y-135533974D01*
X113834201Y-135656772D01*
X113730917Y-135906123D01*
X113507127Y-136241048D01*
X113222298Y-136525877D01*
X112887373Y-136749667D01*
X112733224Y-136813517D01*
X112515224Y-136903816D01*
X112120156Y-136982400D01*
X111717344Y-136982400D01*
X111322276Y-136903816D01*
X111104276Y-136813517D01*
X110950127Y-136749667D01*
X110615202Y-136525877D01*
X110330373Y-136241048D01*
X110106583Y-135906123D01*
X110003299Y-135656772D01*
X109952434Y-135533974D01*
X109873850Y-135138906D01*
X109873850Y-134736094D01*
X109952434Y-134341026D01*
X110074188Y-134047086D01*
X110106583Y-133968877D01*
X110330373Y-133633952D01*
X110615202Y-133349123D01*
X110950127Y-133125333D01*
X111104276Y-133061483D01*
X111322276Y-132971184D01*
X111717344Y-132892600D01*
X112120156Y-132892600D01*
X112515224Y-132971184D01*
X112515224Y-132971184D01*
G37*
G36*
X131565224Y-132971184D02*
G01*
X131783224Y-133061483D01*
X131937373Y-133125333D01*
X132272298Y-133349123D01*
X132557127Y-133633952D01*
X132780917Y-133968877D01*
X132813312Y-134047086D01*
X132935066Y-134341026D01*
X133013650Y-134736094D01*
X133013650Y-135138906D01*
X132935066Y-135533974D01*
X132884201Y-135656772D01*
X132780917Y-135906123D01*
X132557127Y-136241048D01*
X132272298Y-136525877D01*
X131937373Y-136749667D01*
X131783224Y-136813517D01*
X131565224Y-136903816D01*
X131170156Y-136982400D01*
X130767344Y-136982400D01*
X130372276Y-136903816D01*
X130154276Y-136813517D01*
X130000127Y-136749667D01*
X129665202Y-136525877D01*
X129380373Y-136241048D01*
X129156583Y-135906123D01*
X129053299Y-135656772D01*
X129002434Y-135533974D01*
X128923850Y-135138906D01*
X128923850Y-134736094D01*
X129002434Y-134341026D01*
X129124188Y-134047086D01*
X129156583Y-133968877D01*
X129380373Y-133633952D01*
X129665202Y-133349123D01*
X130000127Y-133125333D01*
X130154276Y-133061483D01*
X130372276Y-132971184D01*
X130767344Y-132892600D01*
X131170156Y-132892600D01*
X131565224Y-132971184D01*
X131565224Y-132971184D01*
G37*
G36*
X150615224Y-132971184D02*
G01*
X150833224Y-133061483D01*
X150987373Y-133125333D01*
X151322298Y-133349123D01*
X151607127Y-133633952D01*
X151830917Y-133968877D01*
X151863312Y-134047086D01*
X151985066Y-134341026D01*
X152063650Y-134736094D01*
X152063650Y-135138906D01*
X151985066Y-135533974D01*
X151934201Y-135656772D01*
X151830917Y-135906123D01*
X151607127Y-136241048D01*
X151322298Y-136525877D01*
X150987373Y-136749667D01*
X150833224Y-136813517D01*
X150615224Y-136903816D01*
X150220156Y-136982400D01*
X149817344Y-136982400D01*
X149422276Y-136903816D01*
X149204276Y-136813517D01*
X149050127Y-136749667D01*
X148715202Y-136525877D01*
X148430373Y-136241048D01*
X148206583Y-135906123D01*
X148103299Y-135656772D01*
X148052434Y-135533974D01*
X147973850Y-135138906D01*
X147973850Y-134736094D01*
X148052434Y-134341026D01*
X148174188Y-134047086D01*
X148206583Y-133968877D01*
X148430373Y-133633952D01*
X148715202Y-133349123D01*
X149050127Y-133125333D01*
X149204276Y-133061483D01*
X149422276Y-132971184D01*
X149817344Y-132892600D01*
X150220156Y-132892600D01*
X150615224Y-132971184D01*
X150615224Y-132971184D01*
G37*
G36*
X169665224Y-132971184D02*
G01*
X169883224Y-133061483D01*
X170037373Y-133125333D01*
X170372298Y-133349123D01*
X170657127Y-133633952D01*
X170880917Y-133968877D01*
X170913312Y-134047086D01*
X171035066Y-134341026D01*
X171113650Y-134736094D01*
X171113650Y-135138906D01*
X171035066Y-135533974D01*
X170984201Y-135656772D01*
X170880917Y-135906123D01*
X170657127Y-136241048D01*
X170372298Y-136525877D01*
X170037373Y-136749667D01*
X169883224Y-136813517D01*
X169665224Y-136903816D01*
X169270156Y-136982400D01*
X168867344Y-136982400D01*
X168472276Y-136903816D01*
X168254276Y-136813517D01*
X168100127Y-136749667D01*
X167765202Y-136525877D01*
X167480373Y-136241048D01*
X167256583Y-135906123D01*
X167153299Y-135656772D01*
X167102434Y-135533974D01*
X167023850Y-135138906D01*
X167023850Y-134736094D01*
X167102434Y-134341026D01*
X167224188Y-134047086D01*
X167256583Y-133968877D01*
X167480373Y-133633952D01*
X167765202Y-133349123D01*
X168100127Y-133125333D01*
X168254276Y-133061483D01*
X168472276Y-132971184D01*
X168867344Y-132892600D01*
X169270156Y-132892600D01*
X169665224Y-132971184D01*
X169665224Y-132971184D01*
G37*
G36*
X188715224Y-132971184D02*
G01*
X188933224Y-133061483D01*
X189087373Y-133125333D01*
X189422298Y-133349123D01*
X189707127Y-133633952D01*
X189930917Y-133968877D01*
X189963312Y-134047086D01*
X190085066Y-134341026D01*
X190163650Y-134736094D01*
X190163650Y-135138906D01*
X190085066Y-135533974D01*
X190034201Y-135656772D01*
X189930917Y-135906123D01*
X189707127Y-136241048D01*
X189422298Y-136525877D01*
X189087373Y-136749667D01*
X188933224Y-136813517D01*
X188715224Y-136903816D01*
X188320156Y-136982400D01*
X187917344Y-136982400D01*
X187522276Y-136903816D01*
X187304276Y-136813517D01*
X187150127Y-136749667D01*
X186815202Y-136525877D01*
X186530373Y-136241048D01*
X186306583Y-135906123D01*
X186203299Y-135656772D01*
X186152434Y-135533974D01*
X186073850Y-135138906D01*
X186073850Y-134736094D01*
X186152434Y-134341026D01*
X186274188Y-134047086D01*
X186306583Y-133968877D01*
X186530373Y-133633952D01*
X186815202Y-133349123D01*
X187150127Y-133125333D01*
X187304276Y-133061483D01*
X187522276Y-132971184D01*
X187917344Y-132892600D01*
X188320156Y-132892600D01*
X188715224Y-132971184D01*
X188715224Y-132971184D01*
G37*
G36*
X117268854Y-134047085D02*
G01*
X117437376Y-134116889D01*
X117589041Y-134218228D01*
X117718022Y-134347209D01*
X117819361Y-134498874D01*
X117889165Y-134667396D01*
X117924750Y-134846297D01*
X117924750Y-135028703D01*
X117889165Y-135207604D01*
X117819361Y-135376126D01*
X117718022Y-135527791D01*
X117589041Y-135656772D01*
X117437376Y-135758111D01*
X117268854Y-135827915D01*
X117089953Y-135863500D01*
X116907547Y-135863500D01*
X116728646Y-135827915D01*
X116560124Y-135758111D01*
X116408459Y-135656772D01*
X116279478Y-135527791D01*
X116178139Y-135376126D01*
X116108335Y-135207604D01*
X116072750Y-135028703D01*
X116072750Y-134846297D01*
X116108335Y-134667396D01*
X116178139Y-134498874D01*
X116279478Y-134347209D01*
X116408459Y-134218228D01*
X116560124Y-134116889D01*
X116728646Y-134047085D01*
X116907547Y-134011500D01*
X117089953Y-134011500D01*
X117268854Y-134047085D01*
X117268854Y-134047085D01*
G37*
G36*
X107108854Y-134047085D02*
G01*
X107277376Y-134116889D01*
X107429041Y-134218228D01*
X107558022Y-134347209D01*
X107659361Y-134498874D01*
X107729165Y-134667396D01*
X107764750Y-134846297D01*
X107764750Y-135028703D01*
X107729165Y-135207604D01*
X107659361Y-135376126D01*
X107558022Y-135527791D01*
X107429041Y-135656772D01*
X107277376Y-135758111D01*
X107108854Y-135827915D01*
X106929953Y-135863500D01*
X106747547Y-135863500D01*
X106568646Y-135827915D01*
X106400124Y-135758111D01*
X106248459Y-135656772D01*
X106119478Y-135527791D01*
X106018139Y-135376126D01*
X105948335Y-135207604D01*
X105912750Y-135028703D01*
X105912750Y-134846297D01*
X105948335Y-134667396D01*
X106018139Y-134498874D01*
X106119478Y-134347209D01*
X106248459Y-134218228D01*
X106400124Y-134116889D01*
X106568646Y-134047085D01*
X106747547Y-134011500D01*
X106929953Y-134011500D01*
X107108854Y-134047085D01*
X107108854Y-134047085D01*
G37*
G36*
X126158854Y-134047085D02*
G01*
X126327376Y-134116889D01*
X126479041Y-134218228D01*
X126608022Y-134347209D01*
X126709361Y-134498874D01*
X126779165Y-134667396D01*
X126814750Y-134846297D01*
X126814750Y-135028703D01*
X126779165Y-135207604D01*
X126709361Y-135376126D01*
X126608022Y-135527791D01*
X126479041Y-135656772D01*
X126327376Y-135758111D01*
X126158854Y-135827915D01*
X125979953Y-135863500D01*
X125797547Y-135863500D01*
X125618646Y-135827915D01*
X125450124Y-135758111D01*
X125298459Y-135656772D01*
X125169478Y-135527791D01*
X125068139Y-135376126D01*
X124998335Y-135207604D01*
X124962750Y-135028703D01*
X124962750Y-134846297D01*
X124998335Y-134667396D01*
X125068139Y-134498874D01*
X125169478Y-134347209D01*
X125298459Y-134218228D01*
X125450124Y-134116889D01*
X125618646Y-134047085D01*
X125797547Y-134011500D01*
X125979953Y-134011500D01*
X126158854Y-134047085D01*
X126158854Y-134047085D01*
G37*
G36*
X136318854Y-134047085D02*
G01*
X136487376Y-134116889D01*
X136639041Y-134218228D01*
X136768022Y-134347209D01*
X136869361Y-134498874D01*
X136939165Y-134667396D01*
X136974750Y-134846297D01*
X136974750Y-135028703D01*
X136939165Y-135207604D01*
X136869361Y-135376126D01*
X136768022Y-135527791D01*
X136639041Y-135656772D01*
X136487376Y-135758111D01*
X136318854Y-135827915D01*
X136139953Y-135863500D01*
X135957547Y-135863500D01*
X135778646Y-135827915D01*
X135610124Y-135758111D01*
X135458459Y-135656772D01*
X135329478Y-135527791D01*
X135228139Y-135376126D01*
X135158335Y-135207604D01*
X135122750Y-135028703D01*
X135122750Y-134846297D01*
X135158335Y-134667396D01*
X135228139Y-134498874D01*
X135329478Y-134347209D01*
X135458459Y-134218228D01*
X135610124Y-134116889D01*
X135778646Y-134047085D01*
X135957547Y-134011500D01*
X136139953Y-134011500D01*
X136318854Y-134047085D01*
X136318854Y-134047085D01*
G37*
G36*
X145208854Y-134047085D02*
G01*
X145377376Y-134116889D01*
X145529041Y-134218228D01*
X145658022Y-134347209D01*
X145759361Y-134498874D01*
X145829165Y-134667396D01*
X145864750Y-134846297D01*
X145864750Y-135028703D01*
X145829165Y-135207604D01*
X145759361Y-135376126D01*
X145658022Y-135527791D01*
X145529041Y-135656772D01*
X145377376Y-135758111D01*
X145208854Y-135827915D01*
X145029953Y-135863500D01*
X144847547Y-135863500D01*
X144668646Y-135827915D01*
X144500124Y-135758111D01*
X144348459Y-135656772D01*
X144219478Y-135527791D01*
X144118139Y-135376126D01*
X144048335Y-135207604D01*
X144012750Y-135028703D01*
X144012750Y-134846297D01*
X144048335Y-134667396D01*
X144118139Y-134498874D01*
X144219478Y-134347209D01*
X144348459Y-134218228D01*
X144500124Y-134116889D01*
X144668646Y-134047085D01*
X144847547Y-134011500D01*
X145029953Y-134011500D01*
X145208854Y-134047085D01*
X145208854Y-134047085D01*
G37*
G36*
X155368854Y-134047085D02*
G01*
X155537376Y-134116889D01*
X155689041Y-134218228D01*
X155818022Y-134347209D01*
X155919361Y-134498874D01*
X155989165Y-134667396D01*
X156024750Y-134846297D01*
X156024750Y-135028703D01*
X155989165Y-135207604D01*
X155919361Y-135376126D01*
X155818022Y-135527791D01*
X155689041Y-135656772D01*
X155537376Y-135758111D01*
X155368854Y-135827915D01*
X155189953Y-135863500D01*
X155007547Y-135863500D01*
X154828646Y-135827915D01*
X154660124Y-135758111D01*
X154508459Y-135656772D01*
X154379478Y-135527791D01*
X154278139Y-135376126D01*
X154208335Y-135207604D01*
X154172750Y-135028703D01*
X154172750Y-134846297D01*
X154208335Y-134667396D01*
X154278139Y-134498874D01*
X154379478Y-134347209D01*
X154508459Y-134218228D01*
X154660124Y-134116889D01*
X154828646Y-134047085D01*
X155007547Y-134011500D01*
X155189953Y-134011500D01*
X155368854Y-134047085D01*
X155368854Y-134047085D01*
G37*
G36*
X164258854Y-134047085D02*
G01*
X164427376Y-134116889D01*
X164579041Y-134218228D01*
X164708022Y-134347209D01*
X164809361Y-134498874D01*
X164879165Y-134667396D01*
X164914750Y-134846297D01*
X164914750Y-135028703D01*
X164879165Y-135207604D01*
X164809361Y-135376126D01*
X164708022Y-135527791D01*
X164579041Y-135656772D01*
X164427376Y-135758111D01*
X164258854Y-135827915D01*
X164079953Y-135863500D01*
X163897547Y-135863500D01*
X163718646Y-135827915D01*
X163550124Y-135758111D01*
X163398459Y-135656772D01*
X163269478Y-135527791D01*
X163168139Y-135376126D01*
X163098335Y-135207604D01*
X163062750Y-135028703D01*
X163062750Y-134846297D01*
X163098335Y-134667396D01*
X163168139Y-134498874D01*
X163269478Y-134347209D01*
X163398459Y-134218228D01*
X163550124Y-134116889D01*
X163718646Y-134047085D01*
X163897547Y-134011500D01*
X164079953Y-134011500D01*
X164258854Y-134047085D01*
X164258854Y-134047085D01*
G37*
G36*
X174418854Y-134047085D02*
G01*
X174587376Y-134116889D01*
X174739041Y-134218228D01*
X174868022Y-134347209D01*
X174969361Y-134498874D01*
X175039165Y-134667396D01*
X175074750Y-134846297D01*
X175074750Y-135028703D01*
X175039165Y-135207604D01*
X174969361Y-135376126D01*
X174868022Y-135527791D01*
X174739041Y-135656772D01*
X174587376Y-135758111D01*
X174418854Y-135827915D01*
X174239953Y-135863500D01*
X174057547Y-135863500D01*
X173878646Y-135827915D01*
X173710124Y-135758111D01*
X173558459Y-135656772D01*
X173429478Y-135527791D01*
X173328139Y-135376126D01*
X173258335Y-135207604D01*
X173222750Y-135028703D01*
X173222750Y-134846297D01*
X173258335Y-134667396D01*
X173328139Y-134498874D01*
X173429478Y-134347209D01*
X173558459Y-134218228D01*
X173710124Y-134116889D01*
X173878646Y-134047085D01*
X174057547Y-134011500D01*
X174239953Y-134011500D01*
X174418854Y-134047085D01*
X174418854Y-134047085D01*
G37*
G36*
X183308854Y-134047085D02*
G01*
X183477376Y-134116889D01*
X183629041Y-134218228D01*
X183758022Y-134347209D01*
X183859361Y-134498874D01*
X183929165Y-134667396D01*
X183964750Y-134846297D01*
X183964750Y-135028703D01*
X183929165Y-135207604D01*
X183859361Y-135376126D01*
X183758022Y-135527791D01*
X183629041Y-135656772D01*
X183477376Y-135758111D01*
X183308854Y-135827915D01*
X183129953Y-135863500D01*
X182947547Y-135863500D01*
X182768646Y-135827915D01*
X182600124Y-135758111D01*
X182448459Y-135656772D01*
X182319478Y-135527791D01*
X182218139Y-135376126D01*
X182148335Y-135207604D01*
X182112750Y-135028703D01*
X182112750Y-134846297D01*
X182148335Y-134667396D01*
X182218139Y-134498874D01*
X182319478Y-134347209D01*
X182448459Y-134218228D01*
X182600124Y-134116889D01*
X182768646Y-134047085D01*
X182947547Y-134011500D01*
X183129953Y-134011500D01*
X183308854Y-134047085D01*
X183308854Y-134047085D01*
G37*
G36*
X193468854Y-134047085D02*
G01*
X193637376Y-134116889D01*
X193789041Y-134218228D01*
X193918022Y-134347209D01*
X194019361Y-134498874D01*
X194089165Y-134667396D01*
X194124750Y-134846297D01*
X194124750Y-135028703D01*
X194089165Y-135207604D01*
X194019361Y-135376126D01*
X193918022Y-135527791D01*
X193789041Y-135656772D01*
X193637376Y-135758111D01*
X193468854Y-135827915D01*
X193289953Y-135863500D01*
X193107547Y-135863500D01*
X192928646Y-135827915D01*
X192760124Y-135758111D01*
X192608459Y-135656772D01*
X192479478Y-135527791D01*
X192378139Y-135376126D01*
X192308335Y-135207604D01*
X192272750Y-135028703D01*
X192272750Y-134846297D01*
X192308335Y-134667396D01*
X192378139Y-134498874D01*
X192479478Y-134347209D01*
X192608459Y-134218228D01*
X192760124Y-134116889D01*
X192928646Y-134047085D01*
X193107547Y-134011500D01*
X193289953Y-134011500D01*
X193468854Y-134047085D01*
X193468854Y-134047085D01*
G37*
G36*
X112515224Y-113921184D02*
G01*
X112733224Y-114011483D01*
X112887373Y-114075333D01*
X113222298Y-114299123D01*
X113507127Y-114583952D01*
X113730917Y-114918877D01*
X113763312Y-114997086D01*
X113885066Y-115291026D01*
X113963650Y-115686094D01*
X113963650Y-116088906D01*
X113885066Y-116483974D01*
X113834201Y-116606772D01*
X113730917Y-116856123D01*
X113507127Y-117191048D01*
X113222298Y-117475877D01*
X112887373Y-117699667D01*
X112733224Y-117763517D01*
X112515224Y-117853816D01*
X112120156Y-117932400D01*
X111717344Y-117932400D01*
X111322276Y-117853816D01*
X111104276Y-117763517D01*
X110950127Y-117699667D01*
X110615202Y-117475877D01*
X110330373Y-117191048D01*
X110106583Y-116856123D01*
X110003299Y-116606772D01*
X109952434Y-116483974D01*
X109873850Y-116088906D01*
X109873850Y-115686094D01*
X109952434Y-115291026D01*
X110074188Y-114997086D01*
X110106583Y-114918877D01*
X110330373Y-114583952D01*
X110615202Y-114299123D01*
X110950127Y-114075333D01*
X111104276Y-114011483D01*
X111322276Y-113921184D01*
X111717344Y-113842600D01*
X112120156Y-113842600D01*
X112515224Y-113921184D01*
X112515224Y-113921184D01*
G37*
G36*
X188715224Y-113921184D02*
G01*
X188933224Y-114011483D01*
X189087373Y-114075333D01*
X189422298Y-114299123D01*
X189707127Y-114583952D01*
X189930917Y-114918877D01*
X189963312Y-114997086D01*
X190085066Y-115291026D01*
X190163650Y-115686094D01*
X190163650Y-116088906D01*
X190085066Y-116483974D01*
X190034201Y-116606772D01*
X189930917Y-116856123D01*
X189707127Y-117191048D01*
X189422298Y-117475877D01*
X189087373Y-117699667D01*
X188933224Y-117763517D01*
X188715224Y-117853816D01*
X188320156Y-117932400D01*
X187917344Y-117932400D01*
X187522276Y-117853816D01*
X187304276Y-117763517D01*
X187150127Y-117699667D01*
X186815202Y-117475877D01*
X186530373Y-117191048D01*
X186306583Y-116856123D01*
X186203299Y-116606772D01*
X186152434Y-116483974D01*
X186073850Y-116088906D01*
X186073850Y-115686094D01*
X186152434Y-115291026D01*
X186274188Y-114997086D01*
X186306583Y-114918877D01*
X186530373Y-114583952D01*
X186815202Y-114299123D01*
X187150127Y-114075333D01*
X187304276Y-114011483D01*
X187522276Y-113921184D01*
X187917344Y-113842600D01*
X188320156Y-113842600D01*
X188715224Y-113921184D01*
X188715224Y-113921184D01*
G37*
G36*
X131565224Y-113921184D02*
G01*
X131783224Y-114011483D01*
X131937373Y-114075333D01*
X132272298Y-114299123D01*
X132557127Y-114583952D01*
X132780917Y-114918877D01*
X132813312Y-114997086D01*
X132935066Y-115291026D01*
X133013650Y-115686094D01*
X133013650Y-116088906D01*
X132935066Y-116483974D01*
X132884201Y-116606772D01*
X132780917Y-116856123D01*
X132557127Y-117191048D01*
X132272298Y-117475877D01*
X131937373Y-117699667D01*
X131783224Y-117763517D01*
X131565224Y-117853816D01*
X131170156Y-117932400D01*
X130767344Y-117932400D01*
X130372276Y-117853816D01*
X130154276Y-117763517D01*
X130000127Y-117699667D01*
X129665202Y-117475877D01*
X129380373Y-117191048D01*
X129156583Y-116856123D01*
X129053299Y-116606772D01*
X129002434Y-116483974D01*
X128923850Y-116088906D01*
X128923850Y-115686094D01*
X129002434Y-115291026D01*
X129124188Y-114997086D01*
X129156583Y-114918877D01*
X129380373Y-114583952D01*
X129665202Y-114299123D01*
X130000127Y-114075333D01*
X130154276Y-114011483D01*
X130372276Y-113921184D01*
X130767344Y-113842600D01*
X131170156Y-113842600D01*
X131565224Y-113921184D01*
X131565224Y-113921184D01*
G37*
G36*
X150615224Y-113921184D02*
G01*
X150833224Y-114011483D01*
X150987373Y-114075333D01*
X151322298Y-114299123D01*
X151607127Y-114583952D01*
X151830917Y-114918877D01*
X151863312Y-114997086D01*
X151985066Y-115291026D01*
X152063650Y-115686094D01*
X152063650Y-116088906D01*
X151985066Y-116483974D01*
X151934201Y-116606772D01*
X151830917Y-116856123D01*
X151607127Y-117191048D01*
X151322298Y-117475877D01*
X150987373Y-117699667D01*
X150833224Y-117763517D01*
X150615224Y-117853816D01*
X150220156Y-117932400D01*
X149817344Y-117932400D01*
X149422276Y-117853816D01*
X149204276Y-117763517D01*
X149050127Y-117699667D01*
X148715202Y-117475877D01*
X148430373Y-117191048D01*
X148206583Y-116856123D01*
X148103299Y-116606772D01*
X148052434Y-116483974D01*
X147973850Y-116088906D01*
X147973850Y-115686094D01*
X148052434Y-115291026D01*
X148174188Y-114997086D01*
X148206583Y-114918877D01*
X148430373Y-114583952D01*
X148715202Y-114299123D01*
X149050127Y-114075333D01*
X149204276Y-114011483D01*
X149422276Y-113921184D01*
X149817344Y-113842600D01*
X150220156Y-113842600D01*
X150615224Y-113921184D01*
X150615224Y-113921184D01*
G37*
G36*
X169665224Y-113921184D02*
G01*
X169883224Y-114011483D01*
X170037373Y-114075333D01*
X170372298Y-114299123D01*
X170657127Y-114583952D01*
X170880917Y-114918877D01*
X170913312Y-114997086D01*
X171035066Y-115291026D01*
X171113650Y-115686094D01*
X171113650Y-116088906D01*
X171035066Y-116483974D01*
X170984201Y-116606772D01*
X170880917Y-116856123D01*
X170657127Y-117191048D01*
X170372298Y-117475877D01*
X170037373Y-117699667D01*
X169883224Y-117763517D01*
X169665224Y-117853816D01*
X169270156Y-117932400D01*
X168867344Y-117932400D01*
X168472276Y-117853816D01*
X168254276Y-117763517D01*
X168100127Y-117699667D01*
X167765202Y-117475877D01*
X167480373Y-117191048D01*
X167256583Y-116856123D01*
X167153299Y-116606772D01*
X167102434Y-116483974D01*
X167023850Y-116088906D01*
X167023850Y-115686094D01*
X167102434Y-115291026D01*
X167224188Y-114997086D01*
X167256583Y-114918877D01*
X167480373Y-114583952D01*
X167765202Y-114299123D01*
X168100127Y-114075333D01*
X168254276Y-114011483D01*
X168472276Y-113921184D01*
X168867344Y-113842600D01*
X169270156Y-113842600D01*
X169665224Y-113921184D01*
X169665224Y-113921184D01*
G37*
G36*
X183308854Y-114997085D02*
G01*
X183477376Y-115066889D01*
X183629041Y-115168228D01*
X183758022Y-115297209D01*
X183859361Y-115448874D01*
X183929165Y-115617396D01*
X183964750Y-115796297D01*
X183964750Y-115978703D01*
X183929165Y-116157604D01*
X183859361Y-116326126D01*
X183758022Y-116477791D01*
X183629041Y-116606772D01*
X183477376Y-116708111D01*
X183308854Y-116777915D01*
X183129953Y-116813500D01*
X182947547Y-116813500D01*
X182768646Y-116777915D01*
X182600124Y-116708111D01*
X182448459Y-116606772D01*
X182319478Y-116477791D01*
X182218139Y-116326126D01*
X182148335Y-116157604D01*
X182112750Y-115978703D01*
X182112750Y-115796297D01*
X182148335Y-115617396D01*
X182218139Y-115448874D01*
X182319478Y-115297209D01*
X182448459Y-115168228D01*
X182600124Y-115066889D01*
X182768646Y-114997085D01*
X182947547Y-114961500D01*
X183129953Y-114961500D01*
X183308854Y-114997085D01*
X183308854Y-114997085D01*
G37*
G36*
X193468854Y-114997085D02*
G01*
X193637376Y-115066889D01*
X193789041Y-115168228D01*
X193918022Y-115297209D01*
X194019361Y-115448874D01*
X194089165Y-115617396D01*
X194124750Y-115796297D01*
X194124750Y-115978703D01*
X194089165Y-116157604D01*
X194019361Y-116326126D01*
X193918022Y-116477791D01*
X193789041Y-116606772D01*
X193637376Y-116708111D01*
X193468854Y-116777915D01*
X193289953Y-116813500D01*
X193107547Y-116813500D01*
X192928646Y-116777915D01*
X192760124Y-116708111D01*
X192608459Y-116606772D01*
X192479478Y-116477791D01*
X192378139Y-116326126D01*
X192308335Y-116157604D01*
X192272750Y-115978703D01*
X192272750Y-115796297D01*
X192308335Y-115617396D01*
X192378139Y-115448874D01*
X192479478Y-115297209D01*
X192608459Y-115168228D01*
X192760124Y-115066889D01*
X192928646Y-114997085D01*
X193107547Y-114961500D01*
X193289953Y-114961500D01*
X193468854Y-114997085D01*
X193468854Y-114997085D01*
G37*
G36*
X155368854Y-114997085D02*
G01*
X155537376Y-115066889D01*
X155689041Y-115168228D01*
X155818022Y-115297209D01*
X155919361Y-115448874D01*
X155989165Y-115617396D01*
X156024750Y-115796297D01*
X156024750Y-115978703D01*
X155989165Y-116157604D01*
X155919361Y-116326126D01*
X155818022Y-116477791D01*
X155689041Y-116606772D01*
X155537376Y-116708111D01*
X155368854Y-116777915D01*
X155189953Y-116813500D01*
X155007547Y-116813500D01*
X154828646Y-116777915D01*
X154660124Y-116708111D01*
X154508459Y-116606772D01*
X154379478Y-116477791D01*
X154278139Y-116326126D01*
X154208335Y-116157604D01*
X154172750Y-115978703D01*
X154172750Y-115796297D01*
X154208335Y-115617396D01*
X154278139Y-115448874D01*
X154379478Y-115297209D01*
X154508459Y-115168228D01*
X154660124Y-115066889D01*
X154828646Y-114997085D01*
X155007547Y-114961500D01*
X155189953Y-114961500D01*
X155368854Y-114997085D01*
X155368854Y-114997085D01*
G37*
G36*
X145208854Y-114997085D02*
G01*
X145377376Y-115066889D01*
X145529041Y-115168228D01*
X145658022Y-115297209D01*
X145759361Y-115448874D01*
X145829165Y-115617396D01*
X145864750Y-115796297D01*
X145864750Y-115978703D01*
X145829165Y-116157604D01*
X145759361Y-116326126D01*
X145658022Y-116477791D01*
X145529041Y-116606772D01*
X145377376Y-116708111D01*
X145208854Y-116777915D01*
X145029953Y-116813500D01*
X144847547Y-116813500D01*
X144668646Y-116777915D01*
X144500124Y-116708111D01*
X144348459Y-116606772D01*
X144219478Y-116477791D01*
X144118139Y-116326126D01*
X144048335Y-116157604D01*
X144012750Y-115978703D01*
X144012750Y-115796297D01*
X144048335Y-115617396D01*
X144118139Y-115448874D01*
X144219478Y-115297209D01*
X144348459Y-115168228D01*
X144500124Y-115066889D01*
X144668646Y-114997085D01*
X144847547Y-114961500D01*
X145029953Y-114961500D01*
X145208854Y-114997085D01*
X145208854Y-114997085D01*
G37*
G36*
X136318854Y-114997085D02*
G01*
X136487376Y-115066889D01*
X136639041Y-115168228D01*
X136768022Y-115297209D01*
X136869361Y-115448874D01*
X136939165Y-115617396D01*
X136974750Y-115796297D01*
X136974750Y-115978703D01*
X136939165Y-116157604D01*
X136869361Y-116326126D01*
X136768022Y-116477791D01*
X136639041Y-116606772D01*
X136487376Y-116708111D01*
X136318854Y-116777915D01*
X136139953Y-116813500D01*
X135957547Y-116813500D01*
X135778646Y-116777915D01*
X135610124Y-116708111D01*
X135458459Y-116606772D01*
X135329478Y-116477791D01*
X135228139Y-116326126D01*
X135158335Y-116157604D01*
X135122750Y-115978703D01*
X135122750Y-115796297D01*
X135158335Y-115617396D01*
X135228139Y-115448874D01*
X135329478Y-115297209D01*
X135458459Y-115168228D01*
X135610124Y-115066889D01*
X135778646Y-114997085D01*
X135957547Y-114961500D01*
X136139953Y-114961500D01*
X136318854Y-114997085D01*
X136318854Y-114997085D01*
G37*
G36*
X126158854Y-114997085D02*
G01*
X126327376Y-115066889D01*
X126479041Y-115168228D01*
X126608022Y-115297209D01*
X126709361Y-115448874D01*
X126779165Y-115617396D01*
X126814750Y-115796297D01*
X126814750Y-115978703D01*
X126779165Y-116157604D01*
X126709361Y-116326126D01*
X126608022Y-116477791D01*
X126479041Y-116606772D01*
X126327376Y-116708111D01*
X126158854Y-116777915D01*
X125979953Y-116813500D01*
X125797547Y-116813500D01*
X125618646Y-116777915D01*
X125450124Y-116708111D01*
X125298459Y-116606772D01*
X125169478Y-116477791D01*
X125068139Y-116326126D01*
X124998335Y-116157604D01*
X124962750Y-115978703D01*
X124962750Y-115796297D01*
X124998335Y-115617396D01*
X125068139Y-115448874D01*
X125169478Y-115297209D01*
X125298459Y-115168228D01*
X125450124Y-115066889D01*
X125618646Y-114997085D01*
X125797547Y-114961500D01*
X125979953Y-114961500D01*
X126158854Y-114997085D01*
X126158854Y-114997085D01*
G37*
G36*
X117268854Y-114997085D02*
G01*
X117437376Y-115066889D01*
X117589041Y-115168228D01*
X117718022Y-115297209D01*
X117819361Y-115448874D01*
X117889165Y-115617396D01*
X117924750Y-115796297D01*
X117924750Y-115978703D01*
X117889165Y-116157604D01*
X117819361Y-116326126D01*
X117718022Y-116477791D01*
X117589041Y-116606772D01*
X117437376Y-116708111D01*
X117268854Y-116777915D01*
X117089953Y-116813500D01*
X116907547Y-116813500D01*
X116728646Y-116777915D01*
X116560124Y-116708111D01*
X116408459Y-116606772D01*
X116279478Y-116477791D01*
X116178139Y-116326126D01*
X116108335Y-116157604D01*
X116072750Y-115978703D01*
X116072750Y-115796297D01*
X116108335Y-115617396D01*
X116178139Y-115448874D01*
X116279478Y-115297209D01*
X116408459Y-115168228D01*
X116560124Y-115066889D01*
X116728646Y-114997085D01*
X116907547Y-114961500D01*
X117089953Y-114961500D01*
X117268854Y-114997085D01*
X117268854Y-114997085D01*
G37*
G36*
X107108854Y-114997085D02*
G01*
X107277376Y-115066889D01*
X107429041Y-115168228D01*
X107558022Y-115297209D01*
X107659361Y-115448874D01*
X107729165Y-115617396D01*
X107764750Y-115796297D01*
X107764750Y-115978703D01*
X107729165Y-116157604D01*
X107659361Y-116326126D01*
X107558022Y-116477791D01*
X107429041Y-116606772D01*
X107277376Y-116708111D01*
X107108854Y-116777915D01*
X106929953Y-116813500D01*
X106747547Y-116813500D01*
X106568646Y-116777915D01*
X106400124Y-116708111D01*
X106248459Y-116606772D01*
X106119478Y-116477791D01*
X106018139Y-116326126D01*
X105948335Y-116157604D01*
X105912750Y-115978703D01*
X105912750Y-115796297D01*
X105948335Y-115617396D01*
X106018139Y-115448874D01*
X106119478Y-115297209D01*
X106248459Y-115168228D01*
X106400124Y-115066889D01*
X106568646Y-114997085D01*
X106747547Y-114961500D01*
X106929953Y-114961500D01*
X107108854Y-114997085D01*
X107108854Y-114997085D01*
G37*
G36*
X164258854Y-114997085D02*
G01*
X164427376Y-115066889D01*
X164579041Y-115168228D01*
X164708022Y-115297209D01*
X164809361Y-115448874D01*
X164879165Y-115617396D01*
X164914750Y-115796297D01*
X164914750Y-115978703D01*
X164879165Y-116157604D01*
X164809361Y-116326126D01*
X164708022Y-116477791D01*
X164579041Y-116606772D01*
X164427376Y-116708111D01*
X164258854Y-116777915D01*
X164079953Y-116813500D01*
X163897547Y-116813500D01*
X163718646Y-116777915D01*
X163550124Y-116708111D01*
X163398459Y-116606772D01*
X163269478Y-116477791D01*
X163168139Y-116326126D01*
X163098335Y-116157604D01*
X163062750Y-115978703D01*
X163062750Y-115796297D01*
X163098335Y-115617396D01*
X163168139Y-115448874D01*
X163269478Y-115297209D01*
X163398459Y-115168228D01*
X163550124Y-115066889D01*
X163718646Y-114997085D01*
X163897547Y-114961500D01*
X164079953Y-114961500D01*
X164258854Y-114997085D01*
X164258854Y-114997085D01*
G37*
G36*
X174418854Y-114997085D02*
G01*
X174587376Y-115066889D01*
X174739041Y-115168228D01*
X174868022Y-115297209D01*
X174969361Y-115448874D01*
X175039165Y-115617396D01*
X175074750Y-115796297D01*
X175074750Y-115978703D01*
X175039165Y-116157604D01*
X174969361Y-116326126D01*
X174868022Y-116477791D01*
X174739041Y-116606772D01*
X174587376Y-116708111D01*
X174418854Y-116777915D01*
X174239953Y-116813500D01*
X174057547Y-116813500D01*
X173878646Y-116777915D01*
X173710124Y-116708111D01*
X173558459Y-116606772D01*
X173429478Y-116477791D01*
X173328139Y-116326126D01*
X173258335Y-116157604D01*
X173222750Y-115978703D01*
X173222750Y-115796297D01*
X173258335Y-115617396D01*
X173328139Y-115448874D01*
X173429478Y-115297209D01*
X173558459Y-115168228D01*
X173710124Y-115066889D01*
X173878646Y-114997085D01*
X174057547Y-114961500D01*
X174239953Y-114961500D01*
X174418854Y-114997085D01*
X174418854Y-114997085D01*
G37*
G36*
X169665224Y-94871184D02*
G01*
X169883224Y-94961483D01*
X170037373Y-95025333D01*
X170372298Y-95249123D01*
X170657127Y-95533952D01*
X170880917Y-95868877D01*
X170913312Y-95947086D01*
X171035066Y-96241026D01*
X171113650Y-96636094D01*
X171113650Y-97038906D01*
X171035066Y-97433974D01*
X170984201Y-97556772D01*
X170880917Y-97806123D01*
X170657127Y-98141048D01*
X170372298Y-98425877D01*
X170037373Y-98649667D01*
X169883224Y-98713517D01*
X169665224Y-98803816D01*
X169270156Y-98882400D01*
X168867344Y-98882400D01*
X168472276Y-98803816D01*
X168254276Y-98713517D01*
X168100127Y-98649667D01*
X167765202Y-98425877D01*
X167480373Y-98141048D01*
X167256583Y-97806123D01*
X167153299Y-97556772D01*
X167102434Y-97433974D01*
X167023850Y-97038906D01*
X167023850Y-96636094D01*
X167102434Y-96241026D01*
X167224188Y-95947086D01*
X167256583Y-95868877D01*
X167480373Y-95533952D01*
X167765202Y-95249123D01*
X168100127Y-95025333D01*
X168254276Y-94961483D01*
X168472276Y-94871184D01*
X168867344Y-94792600D01*
X169270156Y-94792600D01*
X169665224Y-94871184D01*
X169665224Y-94871184D01*
G37*
G36*
X188715224Y-94871184D02*
G01*
X188933224Y-94961483D01*
X189087373Y-95025333D01*
X189422298Y-95249123D01*
X189707127Y-95533952D01*
X189930917Y-95868877D01*
X189963312Y-95947086D01*
X190085066Y-96241026D01*
X190163650Y-96636094D01*
X190163650Y-97038906D01*
X190085066Y-97433974D01*
X190034201Y-97556772D01*
X189930917Y-97806123D01*
X189707127Y-98141048D01*
X189422298Y-98425877D01*
X189087373Y-98649667D01*
X188933224Y-98713517D01*
X188715224Y-98803816D01*
X188320156Y-98882400D01*
X187917344Y-98882400D01*
X187522276Y-98803816D01*
X187304276Y-98713517D01*
X187150127Y-98649667D01*
X186815202Y-98425877D01*
X186530373Y-98141048D01*
X186306583Y-97806123D01*
X186203299Y-97556772D01*
X186152434Y-97433974D01*
X186073850Y-97038906D01*
X186073850Y-96636094D01*
X186152434Y-96241026D01*
X186274188Y-95947086D01*
X186306583Y-95868877D01*
X186530373Y-95533952D01*
X186815202Y-95249123D01*
X187150127Y-95025333D01*
X187304276Y-94961483D01*
X187522276Y-94871184D01*
X187917344Y-94792600D01*
X188320156Y-94792600D01*
X188715224Y-94871184D01*
X188715224Y-94871184D01*
G37*
G36*
X131565224Y-94871184D02*
G01*
X131783224Y-94961483D01*
X131937373Y-95025333D01*
X132272298Y-95249123D01*
X132557127Y-95533952D01*
X132780917Y-95868877D01*
X132813312Y-95947086D01*
X132935066Y-96241026D01*
X133013650Y-96636094D01*
X133013650Y-97038906D01*
X132935066Y-97433974D01*
X132884201Y-97556772D01*
X132780917Y-97806123D01*
X132557127Y-98141048D01*
X132272298Y-98425877D01*
X131937373Y-98649667D01*
X131783224Y-98713517D01*
X131565224Y-98803816D01*
X131170156Y-98882400D01*
X130767344Y-98882400D01*
X130372276Y-98803816D01*
X130154276Y-98713517D01*
X130000127Y-98649667D01*
X129665202Y-98425877D01*
X129380373Y-98141048D01*
X129156583Y-97806123D01*
X129053299Y-97556772D01*
X129002434Y-97433974D01*
X128923850Y-97038906D01*
X128923850Y-96636094D01*
X129002434Y-96241026D01*
X129124188Y-95947086D01*
X129156583Y-95868877D01*
X129380373Y-95533952D01*
X129665202Y-95249123D01*
X130000127Y-95025333D01*
X130154276Y-94961483D01*
X130372276Y-94871184D01*
X130767344Y-94792600D01*
X131170156Y-94792600D01*
X131565224Y-94871184D01*
X131565224Y-94871184D01*
G37*
G36*
X112515224Y-94871184D02*
G01*
X112733224Y-94961483D01*
X112887373Y-95025333D01*
X113222298Y-95249123D01*
X113507127Y-95533952D01*
X113730917Y-95868877D01*
X113763312Y-95947086D01*
X113885066Y-96241026D01*
X113963650Y-96636094D01*
X113963650Y-97038906D01*
X113885066Y-97433974D01*
X113834201Y-97556772D01*
X113730917Y-97806123D01*
X113507127Y-98141048D01*
X113222298Y-98425877D01*
X112887373Y-98649667D01*
X112733224Y-98713517D01*
X112515224Y-98803816D01*
X112120156Y-98882400D01*
X111717344Y-98882400D01*
X111322276Y-98803816D01*
X111104276Y-98713517D01*
X110950127Y-98649667D01*
X110615202Y-98425877D01*
X110330373Y-98141048D01*
X110106583Y-97806123D01*
X110003299Y-97556772D01*
X109952434Y-97433974D01*
X109873850Y-97038906D01*
X109873850Y-96636094D01*
X109952434Y-96241026D01*
X110074188Y-95947086D01*
X110106583Y-95868877D01*
X110330373Y-95533952D01*
X110615202Y-95249123D01*
X110950127Y-95025333D01*
X111104276Y-94961483D01*
X111322276Y-94871184D01*
X111717344Y-94792600D01*
X112120156Y-94792600D01*
X112515224Y-94871184D01*
X112515224Y-94871184D01*
G37*
G36*
X150615224Y-94871184D02*
G01*
X150833224Y-94961483D01*
X150987373Y-95025333D01*
X151322298Y-95249123D01*
X151607127Y-95533952D01*
X151830917Y-95868877D01*
X151863312Y-95947086D01*
X151985066Y-96241026D01*
X152063650Y-96636094D01*
X152063650Y-97038906D01*
X151985066Y-97433974D01*
X151934201Y-97556772D01*
X151830917Y-97806123D01*
X151607127Y-98141048D01*
X151322298Y-98425877D01*
X150987373Y-98649667D01*
X150833224Y-98713517D01*
X150615224Y-98803816D01*
X150220156Y-98882400D01*
X149817344Y-98882400D01*
X149422276Y-98803816D01*
X149204276Y-98713517D01*
X149050127Y-98649667D01*
X148715202Y-98425877D01*
X148430373Y-98141048D01*
X148206583Y-97806123D01*
X148103299Y-97556772D01*
X148052434Y-97433974D01*
X147973850Y-97038906D01*
X147973850Y-96636094D01*
X148052434Y-96241026D01*
X148174188Y-95947086D01*
X148206583Y-95868877D01*
X148430373Y-95533952D01*
X148715202Y-95249123D01*
X149050127Y-95025333D01*
X149204276Y-94961483D01*
X149422276Y-94871184D01*
X149817344Y-94792600D01*
X150220156Y-94792600D01*
X150615224Y-94871184D01*
X150615224Y-94871184D01*
G37*
G36*
X145208854Y-95947085D02*
G01*
X145377376Y-96016889D01*
X145529041Y-96118228D01*
X145658022Y-96247209D01*
X145759361Y-96398874D01*
X145829165Y-96567396D01*
X145864750Y-96746297D01*
X145864750Y-96928703D01*
X145829165Y-97107604D01*
X145759361Y-97276126D01*
X145658022Y-97427791D01*
X145529041Y-97556772D01*
X145377376Y-97658111D01*
X145208854Y-97727915D01*
X145029953Y-97763500D01*
X144847547Y-97763500D01*
X144668646Y-97727915D01*
X144500124Y-97658111D01*
X144348459Y-97556772D01*
X144219478Y-97427791D01*
X144118139Y-97276126D01*
X144048335Y-97107604D01*
X144012750Y-96928703D01*
X144012750Y-96746297D01*
X144048335Y-96567396D01*
X144118139Y-96398874D01*
X144219478Y-96247209D01*
X144348459Y-96118228D01*
X144500124Y-96016889D01*
X144668646Y-95947085D01*
X144847547Y-95911500D01*
X145029953Y-95911500D01*
X145208854Y-95947085D01*
X145208854Y-95947085D01*
G37*
G36*
X107108854Y-95947085D02*
G01*
X107277376Y-96016889D01*
X107429041Y-96118228D01*
X107558022Y-96247209D01*
X107659361Y-96398874D01*
X107729165Y-96567396D01*
X107764750Y-96746297D01*
X107764750Y-96928703D01*
X107729165Y-97107604D01*
X107659361Y-97276126D01*
X107558022Y-97427791D01*
X107429041Y-97556772D01*
X107277376Y-97658111D01*
X107108854Y-97727915D01*
X106929953Y-97763500D01*
X106747547Y-97763500D01*
X106568646Y-97727915D01*
X106400124Y-97658111D01*
X106248459Y-97556772D01*
X106119478Y-97427791D01*
X106018139Y-97276126D01*
X105948335Y-97107604D01*
X105912750Y-96928703D01*
X105912750Y-96746297D01*
X105948335Y-96567396D01*
X106018139Y-96398874D01*
X106119478Y-96247209D01*
X106248459Y-96118228D01*
X106400124Y-96016889D01*
X106568646Y-95947085D01*
X106747547Y-95911500D01*
X106929953Y-95911500D01*
X107108854Y-95947085D01*
X107108854Y-95947085D01*
G37*
G36*
X117268854Y-95947085D02*
G01*
X117437376Y-96016889D01*
X117589041Y-96118228D01*
X117718022Y-96247209D01*
X117819361Y-96398874D01*
X117889165Y-96567396D01*
X117924750Y-96746297D01*
X117924750Y-96928703D01*
X117889165Y-97107604D01*
X117819361Y-97276126D01*
X117718022Y-97427791D01*
X117589041Y-97556772D01*
X117437376Y-97658111D01*
X117268854Y-97727915D01*
X117089953Y-97763500D01*
X116907547Y-97763500D01*
X116728646Y-97727915D01*
X116560124Y-97658111D01*
X116408459Y-97556772D01*
X116279478Y-97427791D01*
X116178139Y-97276126D01*
X116108335Y-97107604D01*
X116072750Y-96928703D01*
X116072750Y-96746297D01*
X116108335Y-96567396D01*
X116178139Y-96398874D01*
X116279478Y-96247209D01*
X116408459Y-96118228D01*
X116560124Y-96016889D01*
X116728646Y-95947085D01*
X116907547Y-95911500D01*
X117089953Y-95911500D01*
X117268854Y-95947085D01*
X117268854Y-95947085D01*
G37*
G36*
X126158854Y-95947085D02*
G01*
X126327376Y-96016889D01*
X126479041Y-96118228D01*
X126608022Y-96247209D01*
X126709361Y-96398874D01*
X126779165Y-96567396D01*
X126814750Y-96746297D01*
X126814750Y-96928703D01*
X126779165Y-97107604D01*
X126709361Y-97276126D01*
X126608022Y-97427791D01*
X126479041Y-97556772D01*
X126327376Y-97658111D01*
X126158854Y-97727915D01*
X125979953Y-97763500D01*
X125797547Y-97763500D01*
X125618646Y-97727915D01*
X125450124Y-97658111D01*
X125298459Y-97556772D01*
X125169478Y-97427791D01*
X125068139Y-97276126D01*
X124998335Y-97107604D01*
X124962750Y-96928703D01*
X124962750Y-96746297D01*
X124998335Y-96567396D01*
X125068139Y-96398874D01*
X125169478Y-96247209D01*
X125298459Y-96118228D01*
X125450124Y-96016889D01*
X125618646Y-95947085D01*
X125797547Y-95911500D01*
X125979953Y-95911500D01*
X126158854Y-95947085D01*
X126158854Y-95947085D01*
G37*
G36*
X136318854Y-95947085D02*
G01*
X136487376Y-96016889D01*
X136639041Y-96118228D01*
X136768022Y-96247209D01*
X136869361Y-96398874D01*
X136939165Y-96567396D01*
X136974750Y-96746297D01*
X136974750Y-96928703D01*
X136939165Y-97107604D01*
X136869361Y-97276126D01*
X136768022Y-97427791D01*
X136639041Y-97556772D01*
X136487376Y-97658111D01*
X136318854Y-97727915D01*
X136139953Y-97763500D01*
X135957547Y-97763500D01*
X135778646Y-97727915D01*
X135610124Y-97658111D01*
X135458459Y-97556772D01*
X135329478Y-97427791D01*
X135228139Y-97276126D01*
X135158335Y-97107604D01*
X135122750Y-96928703D01*
X135122750Y-96746297D01*
X135158335Y-96567396D01*
X135228139Y-96398874D01*
X135329478Y-96247209D01*
X135458459Y-96118228D01*
X135610124Y-96016889D01*
X135778646Y-95947085D01*
X135957547Y-95911500D01*
X136139953Y-95911500D01*
X136318854Y-95947085D01*
X136318854Y-95947085D01*
G37*
G36*
X155368854Y-95947085D02*
G01*
X155537376Y-96016889D01*
X155689041Y-96118228D01*
X155818022Y-96247209D01*
X155919361Y-96398874D01*
X155989165Y-96567396D01*
X156024750Y-96746297D01*
X156024750Y-96928703D01*
X155989165Y-97107604D01*
X155919361Y-97276126D01*
X155818022Y-97427791D01*
X155689041Y-97556772D01*
X155537376Y-97658111D01*
X155368854Y-97727915D01*
X155189953Y-97763500D01*
X155007547Y-97763500D01*
X154828646Y-97727915D01*
X154660124Y-97658111D01*
X154508459Y-97556772D01*
X154379478Y-97427791D01*
X154278139Y-97276126D01*
X154208335Y-97107604D01*
X154172750Y-96928703D01*
X154172750Y-96746297D01*
X154208335Y-96567396D01*
X154278139Y-96398874D01*
X154379478Y-96247209D01*
X154508459Y-96118228D01*
X154660124Y-96016889D01*
X154828646Y-95947085D01*
X155007547Y-95911500D01*
X155189953Y-95911500D01*
X155368854Y-95947085D01*
X155368854Y-95947085D01*
G37*
G36*
X164258854Y-95947085D02*
G01*
X164427376Y-96016889D01*
X164579041Y-96118228D01*
X164708022Y-96247209D01*
X164809361Y-96398874D01*
X164879165Y-96567396D01*
X164914750Y-96746297D01*
X164914750Y-96928703D01*
X164879165Y-97107604D01*
X164809361Y-97276126D01*
X164708022Y-97427791D01*
X164579041Y-97556772D01*
X164427376Y-97658111D01*
X164258854Y-97727915D01*
X164079953Y-97763500D01*
X163897547Y-97763500D01*
X163718646Y-97727915D01*
X163550124Y-97658111D01*
X163398459Y-97556772D01*
X163269478Y-97427791D01*
X163168139Y-97276126D01*
X163098335Y-97107604D01*
X163062750Y-96928703D01*
X163062750Y-96746297D01*
X163098335Y-96567396D01*
X163168139Y-96398874D01*
X163269478Y-96247209D01*
X163398459Y-96118228D01*
X163550124Y-96016889D01*
X163718646Y-95947085D01*
X163897547Y-95911500D01*
X164079953Y-95911500D01*
X164258854Y-95947085D01*
X164258854Y-95947085D01*
G37*
G36*
X174418854Y-95947085D02*
G01*
X174587376Y-96016889D01*
X174739041Y-96118228D01*
X174868022Y-96247209D01*
X174969361Y-96398874D01*
X175039165Y-96567396D01*
X175074750Y-96746297D01*
X175074750Y-96928703D01*
X175039165Y-97107604D01*
X174969361Y-97276126D01*
X174868022Y-97427791D01*
X174739041Y-97556772D01*
X174587376Y-97658111D01*
X174418854Y-97727915D01*
X174239953Y-97763500D01*
X174057547Y-97763500D01*
X173878646Y-97727915D01*
X173710124Y-97658111D01*
X173558459Y-97556772D01*
X173429478Y-97427791D01*
X173328139Y-97276126D01*
X173258335Y-97107604D01*
X173222750Y-96928703D01*
X173222750Y-96746297D01*
X173258335Y-96567396D01*
X173328139Y-96398874D01*
X173429478Y-96247209D01*
X173558459Y-96118228D01*
X173710124Y-96016889D01*
X173878646Y-95947085D01*
X174057547Y-95911500D01*
X174239953Y-95911500D01*
X174418854Y-95947085D01*
X174418854Y-95947085D01*
G37*
G36*
X183308854Y-95947085D02*
G01*
X183477376Y-96016889D01*
X183629041Y-96118228D01*
X183758022Y-96247209D01*
X183859361Y-96398874D01*
X183929165Y-96567396D01*
X183964750Y-96746297D01*
X183964750Y-96928703D01*
X183929165Y-97107604D01*
X183859361Y-97276126D01*
X183758022Y-97427791D01*
X183629041Y-97556772D01*
X183477376Y-97658111D01*
X183308854Y-97727915D01*
X183129953Y-97763500D01*
X182947547Y-97763500D01*
X182768646Y-97727915D01*
X182600124Y-97658111D01*
X182448459Y-97556772D01*
X182319478Y-97427791D01*
X182218139Y-97276126D01*
X182148335Y-97107604D01*
X182112750Y-96928703D01*
X182112750Y-96746297D01*
X182148335Y-96567396D01*
X182218139Y-96398874D01*
X182319478Y-96247209D01*
X182448459Y-96118228D01*
X182600124Y-96016889D01*
X182768646Y-95947085D01*
X182947547Y-95911500D01*
X183129953Y-95911500D01*
X183308854Y-95947085D01*
X183308854Y-95947085D01*
G37*
G36*
X193468854Y-95947085D02*
G01*
X193637376Y-96016889D01*
X193789041Y-96118228D01*
X193918022Y-96247209D01*
X194019361Y-96398874D01*
X194089165Y-96567396D01*
X194124750Y-96746297D01*
X194124750Y-96928703D01*
X194089165Y-97107604D01*
X194019361Y-97276126D01*
X193918022Y-97427791D01*
X193789041Y-97556772D01*
X193637376Y-97658111D01*
X193468854Y-97727915D01*
X193289953Y-97763500D01*
X193107547Y-97763500D01*
X192928646Y-97727915D01*
X192760124Y-97658111D01*
X192608459Y-97556772D01*
X192479478Y-97427791D01*
X192378139Y-97276126D01*
X192308335Y-97107604D01*
X192272750Y-96928703D01*
X192272750Y-96746297D01*
X192308335Y-96567396D01*
X192378139Y-96398874D01*
X192479478Y-96247209D01*
X192608459Y-96118228D01*
X192760124Y-96016889D01*
X192928646Y-95947085D01*
X193107547Y-95911500D01*
X193289953Y-95911500D01*
X193468854Y-95947085D01*
X193468854Y-95947085D01*
G37*
G36*
X63995377Y-92012037D02*
G01*
X64165216Y-92063557D01*
X64321741Y-92147222D01*
X64357479Y-92176552D01*
X64458936Y-92259814D01*
X64542198Y-92361271D01*
X64571528Y-92397009D01*
X64655193Y-92553534D01*
X64706713Y-92723373D01*
X64719750Y-92855742D01*
X64719750Y-93944258D01*
X64706713Y-94076627D01*
X64655193Y-94246466D01*
X64571528Y-94402991D01*
X64542198Y-94438729D01*
X64458936Y-94540186D01*
X64321739Y-94652779D01*
X64165217Y-94736442D01*
X64165215Y-94736443D01*
X63995376Y-94787963D01*
X63818750Y-94805359D01*
X63642123Y-94787963D01*
X63472284Y-94736443D01*
X63315759Y-94652778D01*
X63280021Y-94623448D01*
X63178564Y-94540186D01*
X63065971Y-94402989D01*
X62982308Y-94246467D01*
X62982307Y-94246465D01*
X62930787Y-94076626D01*
X62917750Y-93944257D01*
X62917751Y-92855742D01*
X62930788Y-92723373D01*
X62982308Y-92553534D01*
X63065973Y-92397009D01*
X63095303Y-92361271D01*
X63178565Y-92259814D01*
X63280022Y-92176552D01*
X63315760Y-92147222D01*
X63472285Y-92063557D01*
X63642124Y-92012037D01*
X63818750Y-91994641D01*
X63995377Y-92012037D01*
X63995377Y-92012037D01*
G37*
G36*
X71295377Y-92012037D02*
G01*
X71465216Y-92063557D01*
X71621741Y-92147222D01*
X71657479Y-92176552D01*
X71758936Y-92259814D01*
X71842198Y-92361271D01*
X71871528Y-92397009D01*
X71955193Y-92553534D01*
X72006713Y-92723373D01*
X72019750Y-92855742D01*
X72019750Y-93944258D01*
X72006713Y-94076627D01*
X71955193Y-94246466D01*
X71871528Y-94402991D01*
X71842198Y-94438729D01*
X71758936Y-94540186D01*
X71621739Y-94652779D01*
X71465217Y-94736442D01*
X71465215Y-94736443D01*
X71295376Y-94787963D01*
X71118750Y-94805359D01*
X70942123Y-94787963D01*
X70772284Y-94736443D01*
X70615759Y-94652778D01*
X70580021Y-94623448D01*
X70478564Y-94540186D01*
X70365971Y-94402989D01*
X70282308Y-94246467D01*
X70282307Y-94246465D01*
X70230787Y-94076626D01*
X70217750Y-93944257D01*
X70217751Y-92855742D01*
X70230788Y-92723373D01*
X70282308Y-92553534D01*
X70365973Y-92397009D01*
X70395303Y-92361271D01*
X70478565Y-92259814D01*
X70580022Y-92176552D01*
X70615760Y-92147222D01*
X70772285Y-92063557D01*
X70942124Y-92012037D01*
X71118750Y-91994641D01*
X71295377Y-92012037D01*
X71295377Y-92012037D01*
G37*
G36*
X63995377Y-87512037D02*
G01*
X64165216Y-87563557D01*
X64321741Y-87647222D01*
X64357479Y-87676552D01*
X64458936Y-87759814D01*
X64542198Y-87861271D01*
X64571528Y-87897009D01*
X64655193Y-88053534D01*
X64706713Y-88223373D01*
X64719750Y-88355742D01*
X64719750Y-89444258D01*
X64706713Y-89576627D01*
X64655193Y-89746466D01*
X64571528Y-89902991D01*
X64542198Y-89938729D01*
X64458936Y-90040186D01*
X64321739Y-90152779D01*
X64165217Y-90236442D01*
X64165215Y-90236443D01*
X63995376Y-90287963D01*
X63818750Y-90305359D01*
X63642123Y-90287963D01*
X63472284Y-90236443D01*
X63315759Y-90152778D01*
X63280021Y-90123448D01*
X63178564Y-90040186D01*
X63065971Y-89902989D01*
X62982308Y-89746467D01*
X62982307Y-89746465D01*
X62930787Y-89576626D01*
X62917750Y-89444257D01*
X62917751Y-88355742D01*
X62930788Y-88223373D01*
X62982308Y-88053534D01*
X63065973Y-87897009D01*
X63095303Y-87861271D01*
X63178565Y-87759814D01*
X63280022Y-87676552D01*
X63315760Y-87647222D01*
X63472285Y-87563557D01*
X63642124Y-87512037D01*
X63818750Y-87494641D01*
X63995377Y-87512037D01*
X63995377Y-87512037D01*
G37*
G36*
X71295377Y-87512037D02*
G01*
X71465216Y-87563557D01*
X71621741Y-87647222D01*
X71657479Y-87676552D01*
X71758936Y-87759814D01*
X71842198Y-87861271D01*
X71871528Y-87897009D01*
X71955193Y-88053534D01*
X72006713Y-88223373D01*
X72019750Y-88355742D01*
X72019750Y-89444258D01*
X72006713Y-89576627D01*
X71955193Y-89746466D01*
X71871528Y-89902991D01*
X71842198Y-89938729D01*
X71758936Y-90040186D01*
X71621739Y-90152779D01*
X71465217Y-90236442D01*
X71465215Y-90236443D01*
X71295376Y-90287963D01*
X71118750Y-90305359D01*
X70942123Y-90287963D01*
X70772284Y-90236443D01*
X70615759Y-90152778D01*
X70580021Y-90123448D01*
X70478564Y-90040186D01*
X70365971Y-89902989D01*
X70282308Y-89746467D01*
X70282307Y-89746465D01*
X70230787Y-89576626D01*
X70217750Y-89444257D01*
X70217751Y-88355742D01*
X70230788Y-88223373D01*
X70282308Y-88053534D01*
X70365973Y-87897009D01*
X70395303Y-87861271D01*
X70478565Y-87759814D01*
X70580022Y-87676552D01*
X70615760Y-87647222D01*
X70772285Y-87563557D01*
X70942124Y-87512037D01*
X71118750Y-87494641D01*
X71295377Y-87512037D01*
X71295377Y-87512037D01*
G37*
M02*
