M48
; DRILL file {KiCad (5.1.4)-1} date 3/6/2023 1:27:09 PM
; FORMAT={-:-/ absolute / inch / decimal}
; #@! TF.CreationDate,2023-03-06T13:27:09+02:00
; #@! TF.GenerationSoftware,Kicad,Pcbnew,(5.1.4)-1
; #@! TF.FileFunction,NonPlated,1,2,NPTH
FMAT,2
INCH
T1C0.0689
T2C0.1570
%
G90
G05
T1
X7.6063Y-5.3125
X6.4562Y-6.0625
X5.7062Y-6.0625
X6.1063Y-6.0625
X6.4562Y-3.8125
X6.8563Y-3.8125
X5.7062Y-4.5625
X6.1063Y-4.5625
X6.4562Y-5.3125
X6.8563Y-5.3125
X7.2062Y-6.0625
X7.6063Y-6.0625
X5.7062Y-5.3125
X6.1063Y-5.3125
X7.2062Y-4.5625
X7.6063Y-4.5625
X7.2062Y-3.8125
X7.6063Y-3.8125
X6.4562Y-4.5625
X6.8563Y-4.5625
X7.2062Y-5.3125
X4.2062Y-3.8125
X4.6063Y-3.8125
X4.2062Y-6.0625
X4.6063Y-6.0625
X5.7062Y-3.8125
X6.1063Y-3.8125
X4.9562Y-4.5625
X5.3563Y-4.5625
X6.8563Y-6.0625
X4.2062Y-4.5625
X4.6063Y-4.5625
X4.9562Y-3.8125
X5.3563Y-3.8125
X4.2062Y-5.3125
X4.6063Y-5.3125
X4.9562Y-6.0625
X5.3563Y-6.0625
X4.9562Y-5.3125
X5.3563Y-5.3125
T2
X6.6562Y-3.8125
X5.9062Y-4.5625
X6.6562Y-5.3125
X7.4062Y-6.0625
X5.9062Y-5.3125
X7.4062Y-4.5625
X7.4062Y-3.8125
X6.6562Y-4.5625
X7.4062Y-5.3125
X4.4062Y-3.8125
X4.4062Y-6.0625
X5.9062Y-3.8125
X5.1562Y-4.5625
X6.6562Y-6.0625
X4.4062Y-4.5625
X5.1562Y-3.8125
X4.4062Y-5.3125
X5.1562Y-6.0625
X5.1562Y-5.3125
X5.9062Y-6.0625
T0
M30
