G04 #@! TF.GenerationSoftware,KiCad,Pcbnew,(5.1.4)-1*
G04 #@! TF.CreationDate,2023-03-06T13:27:41+02:00*
G04 #@! TF.ProjectId,Keyboard,4b657962-6f61-4726-942e-6b696361645f,rev?*
G04 #@! TF.SameCoordinates,Original*
G04 #@! TF.FileFunction,Copper,L2,Bot*
G04 #@! TF.FilePolarity,Positive*
%FSLAX46Y46*%
G04 Gerber Fmt 4.6, Leading zero omitted, Abs format (unit mm)*
G04 Created by KiCad (PCBNEW (5.1.4)-1) date 2023-03-06 13:27:41*
%MOMM*%
%LPD*%
G04 APERTURE LIST*
%ADD10R,1.400000X1.200000*%
%ADD11O,1.700000X2.700000*%
%ADD12R,0.500000X2.250000*%
%ADD13R,0.550000X1.500000*%
%ADD14R,1.500000X0.550000*%
%ADD15R,1.800000X1.100000*%
%ADD16C,0.100000*%
%ADD17C,0.975000*%
%ADD18C,2.250000*%
%ADD19C,2.250000*%
%ADD20C,1.250000*%
%ADD21R,1.200000X0.900000*%
%ADD22C,0.800000*%
%ADD23C,0.254000*%
%ADD24C,0.381000*%
G04 APERTURE END LIST*
D10*
X86825000Y-88843750D03*
X84625000Y-88843750D03*
X84625000Y-90543750D03*
X86825000Y-90543750D03*
D11*
X63818750Y-88900000D03*
X71118750Y-88900000D03*
X71118750Y-93400000D03*
X63818750Y-93400000D03*
D12*
X65868750Y-93400000D03*
X66668750Y-93400000D03*
X67468750Y-93400000D03*
X68268750Y-93400000D03*
X69068750Y-93400000D03*
D13*
X82518750Y-108093750D03*
X83318750Y-108093750D03*
X84118750Y-108093750D03*
X84918750Y-108093750D03*
X85718750Y-108093750D03*
X86518750Y-108093750D03*
X87318750Y-108093750D03*
X88118750Y-108093750D03*
X88918750Y-108093750D03*
X89718750Y-108093750D03*
X90518750Y-108093750D03*
D14*
X92218750Y-106393750D03*
X92218750Y-105593750D03*
X92218750Y-104793750D03*
X92218750Y-103993750D03*
X92218750Y-103193750D03*
X92218750Y-102393750D03*
X92218750Y-101593750D03*
X92218750Y-100793750D03*
X92218750Y-99993750D03*
X92218750Y-99193750D03*
X92218750Y-98393750D03*
D13*
X90518750Y-96693750D03*
X89718750Y-96693750D03*
X88918750Y-96693750D03*
X88118750Y-96693750D03*
X87318750Y-96693750D03*
X86518750Y-96693750D03*
X85718750Y-96693750D03*
X84918750Y-96693750D03*
X84118750Y-96693750D03*
X83318750Y-96693750D03*
X82518750Y-96693750D03*
D14*
X80818750Y-98393750D03*
X80818750Y-99193750D03*
X80818750Y-99993750D03*
X80818750Y-100793750D03*
X80818750Y-101593750D03*
X80818750Y-102393750D03*
X80818750Y-103193750D03*
X80818750Y-103993750D03*
X80818750Y-104793750D03*
X80818750Y-105593750D03*
X80818750Y-106393750D03*
D15*
X70000000Y-96575000D03*
X76200000Y-100275000D03*
X70000000Y-100275000D03*
X76200000Y-96575000D03*
D16*
G36*
X95805142Y-111219924D02*
G01*
X95828803Y-111223434D01*
X95852007Y-111229246D01*
X95874529Y-111237304D01*
X95896153Y-111247532D01*
X95916670Y-111259829D01*
X95935883Y-111274079D01*
X95953607Y-111290143D01*
X95969671Y-111307867D01*
X95983921Y-111327080D01*
X95996218Y-111347597D01*
X96006446Y-111369221D01*
X96014504Y-111391743D01*
X96020316Y-111414947D01*
X96023826Y-111438608D01*
X96025000Y-111462500D01*
X96025000Y-112375000D01*
X96023826Y-112398892D01*
X96020316Y-112422553D01*
X96014504Y-112445757D01*
X96006446Y-112468279D01*
X95996218Y-112489903D01*
X95983921Y-112510420D01*
X95969671Y-112529633D01*
X95953607Y-112547357D01*
X95935883Y-112563421D01*
X95916670Y-112577671D01*
X95896153Y-112589968D01*
X95874529Y-112600196D01*
X95852007Y-112608254D01*
X95828803Y-112614066D01*
X95805142Y-112617576D01*
X95781250Y-112618750D01*
X95293750Y-112618750D01*
X95269858Y-112617576D01*
X95246197Y-112614066D01*
X95222993Y-112608254D01*
X95200471Y-112600196D01*
X95178847Y-112589968D01*
X95158330Y-112577671D01*
X95139117Y-112563421D01*
X95121393Y-112547357D01*
X95105329Y-112529633D01*
X95091079Y-112510420D01*
X95078782Y-112489903D01*
X95068554Y-112468279D01*
X95060496Y-112445757D01*
X95054684Y-112422553D01*
X95051174Y-112398892D01*
X95050000Y-112375000D01*
X95050000Y-111462500D01*
X95051174Y-111438608D01*
X95054684Y-111414947D01*
X95060496Y-111391743D01*
X95068554Y-111369221D01*
X95078782Y-111347597D01*
X95091079Y-111327080D01*
X95105329Y-111307867D01*
X95121393Y-111290143D01*
X95139117Y-111274079D01*
X95158330Y-111259829D01*
X95178847Y-111247532D01*
X95200471Y-111237304D01*
X95222993Y-111229246D01*
X95246197Y-111223434D01*
X95269858Y-111219924D01*
X95293750Y-111218750D01*
X95781250Y-111218750D01*
X95805142Y-111219924D01*
X95805142Y-111219924D01*
G37*
D17*
X95537500Y-111918750D03*
D16*
G36*
X93930142Y-111219924D02*
G01*
X93953803Y-111223434D01*
X93977007Y-111229246D01*
X93999529Y-111237304D01*
X94021153Y-111247532D01*
X94041670Y-111259829D01*
X94060883Y-111274079D01*
X94078607Y-111290143D01*
X94094671Y-111307867D01*
X94108921Y-111327080D01*
X94121218Y-111347597D01*
X94131446Y-111369221D01*
X94139504Y-111391743D01*
X94145316Y-111414947D01*
X94148826Y-111438608D01*
X94150000Y-111462500D01*
X94150000Y-112375000D01*
X94148826Y-112398892D01*
X94145316Y-112422553D01*
X94139504Y-112445757D01*
X94131446Y-112468279D01*
X94121218Y-112489903D01*
X94108921Y-112510420D01*
X94094671Y-112529633D01*
X94078607Y-112547357D01*
X94060883Y-112563421D01*
X94041670Y-112577671D01*
X94021153Y-112589968D01*
X93999529Y-112600196D01*
X93977007Y-112608254D01*
X93953803Y-112614066D01*
X93930142Y-112617576D01*
X93906250Y-112618750D01*
X93418750Y-112618750D01*
X93394858Y-112617576D01*
X93371197Y-112614066D01*
X93347993Y-112608254D01*
X93325471Y-112600196D01*
X93303847Y-112589968D01*
X93283330Y-112577671D01*
X93264117Y-112563421D01*
X93246393Y-112547357D01*
X93230329Y-112529633D01*
X93216079Y-112510420D01*
X93203782Y-112489903D01*
X93193554Y-112468279D01*
X93185496Y-112445757D01*
X93179684Y-112422553D01*
X93176174Y-112398892D01*
X93175000Y-112375000D01*
X93175000Y-111462500D01*
X93176174Y-111438608D01*
X93179684Y-111414947D01*
X93185496Y-111391743D01*
X93193554Y-111369221D01*
X93203782Y-111347597D01*
X93216079Y-111327080D01*
X93230329Y-111307867D01*
X93246393Y-111290143D01*
X93264117Y-111274079D01*
X93283330Y-111259829D01*
X93303847Y-111247532D01*
X93325471Y-111237304D01*
X93347993Y-111229246D01*
X93371197Y-111223434D01*
X93394858Y-111219924D01*
X93418750Y-111218750D01*
X93906250Y-111218750D01*
X93930142Y-111219924D01*
X93930142Y-111219924D01*
G37*
D17*
X93662500Y-111918750D03*
D16*
G36*
X67948892Y-102701174D02*
G01*
X67972553Y-102704684D01*
X67995757Y-102710496D01*
X68018279Y-102718554D01*
X68039903Y-102728782D01*
X68060420Y-102741079D01*
X68079633Y-102755329D01*
X68097357Y-102771393D01*
X68113421Y-102789117D01*
X68127671Y-102808330D01*
X68139968Y-102828847D01*
X68150196Y-102850471D01*
X68158254Y-102872993D01*
X68164066Y-102896197D01*
X68167576Y-102919858D01*
X68168750Y-102943750D01*
X68168750Y-103431250D01*
X68167576Y-103455142D01*
X68164066Y-103478803D01*
X68158254Y-103502007D01*
X68150196Y-103524529D01*
X68139968Y-103546153D01*
X68127671Y-103566670D01*
X68113421Y-103585883D01*
X68097357Y-103603607D01*
X68079633Y-103619671D01*
X68060420Y-103633921D01*
X68039903Y-103646218D01*
X68018279Y-103656446D01*
X67995757Y-103664504D01*
X67972553Y-103670316D01*
X67948892Y-103673826D01*
X67925000Y-103675000D01*
X67012500Y-103675000D01*
X66988608Y-103673826D01*
X66964947Y-103670316D01*
X66941743Y-103664504D01*
X66919221Y-103656446D01*
X66897597Y-103646218D01*
X66877080Y-103633921D01*
X66857867Y-103619671D01*
X66840143Y-103603607D01*
X66824079Y-103585883D01*
X66809829Y-103566670D01*
X66797532Y-103546153D01*
X66787304Y-103524529D01*
X66779246Y-103502007D01*
X66773434Y-103478803D01*
X66769924Y-103455142D01*
X66768750Y-103431250D01*
X66768750Y-102943750D01*
X66769924Y-102919858D01*
X66773434Y-102896197D01*
X66779246Y-102872993D01*
X66787304Y-102850471D01*
X66797532Y-102828847D01*
X66809829Y-102808330D01*
X66824079Y-102789117D01*
X66840143Y-102771393D01*
X66857867Y-102755329D01*
X66877080Y-102741079D01*
X66897597Y-102728782D01*
X66919221Y-102718554D01*
X66941743Y-102710496D01*
X66964947Y-102704684D01*
X66988608Y-102701174D01*
X67012500Y-102700000D01*
X67925000Y-102700000D01*
X67948892Y-102701174D01*
X67948892Y-102701174D01*
G37*
D17*
X67468750Y-103187500D03*
D16*
G36*
X67948892Y-104576174D02*
G01*
X67972553Y-104579684D01*
X67995757Y-104585496D01*
X68018279Y-104593554D01*
X68039903Y-104603782D01*
X68060420Y-104616079D01*
X68079633Y-104630329D01*
X68097357Y-104646393D01*
X68113421Y-104664117D01*
X68127671Y-104683330D01*
X68139968Y-104703847D01*
X68150196Y-104725471D01*
X68158254Y-104747993D01*
X68164066Y-104771197D01*
X68167576Y-104794858D01*
X68168750Y-104818750D01*
X68168750Y-105306250D01*
X68167576Y-105330142D01*
X68164066Y-105353803D01*
X68158254Y-105377007D01*
X68150196Y-105399529D01*
X68139968Y-105421153D01*
X68127671Y-105441670D01*
X68113421Y-105460883D01*
X68097357Y-105478607D01*
X68079633Y-105494671D01*
X68060420Y-105508921D01*
X68039903Y-105521218D01*
X68018279Y-105531446D01*
X67995757Y-105539504D01*
X67972553Y-105545316D01*
X67948892Y-105548826D01*
X67925000Y-105550000D01*
X67012500Y-105550000D01*
X66988608Y-105548826D01*
X66964947Y-105545316D01*
X66941743Y-105539504D01*
X66919221Y-105531446D01*
X66897597Y-105521218D01*
X66877080Y-105508921D01*
X66857867Y-105494671D01*
X66840143Y-105478607D01*
X66824079Y-105460883D01*
X66809829Y-105441670D01*
X66797532Y-105421153D01*
X66787304Y-105399529D01*
X66779246Y-105377007D01*
X66773434Y-105353803D01*
X66769924Y-105330142D01*
X66768750Y-105306250D01*
X66768750Y-104818750D01*
X66769924Y-104794858D01*
X66773434Y-104771197D01*
X66779246Y-104747993D01*
X66787304Y-104725471D01*
X66797532Y-104703847D01*
X66809829Y-104683330D01*
X66824079Y-104664117D01*
X66840143Y-104646393D01*
X66857867Y-104630329D01*
X66877080Y-104616079D01*
X66897597Y-104603782D01*
X66919221Y-104593554D01*
X66941743Y-104585496D01*
X66964947Y-104579684D01*
X66988608Y-104576174D01*
X67012500Y-104575000D01*
X67925000Y-104575000D01*
X67948892Y-104576174D01*
X67948892Y-104576174D01*
G37*
D17*
X67468750Y-105062500D03*
D16*
G36*
X70330142Y-102701174D02*
G01*
X70353803Y-102704684D01*
X70377007Y-102710496D01*
X70399529Y-102718554D01*
X70421153Y-102728782D01*
X70441670Y-102741079D01*
X70460883Y-102755329D01*
X70478607Y-102771393D01*
X70494671Y-102789117D01*
X70508921Y-102808330D01*
X70521218Y-102828847D01*
X70531446Y-102850471D01*
X70539504Y-102872993D01*
X70545316Y-102896197D01*
X70548826Y-102919858D01*
X70550000Y-102943750D01*
X70550000Y-103431250D01*
X70548826Y-103455142D01*
X70545316Y-103478803D01*
X70539504Y-103502007D01*
X70531446Y-103524529D01*
X70521218Y-103546153D01*
X70508921Y-103566670D01*
X70494671Y-103585883D01*
X70478607Y-103603607D01*
X70460883Y-103619671D01*
X70441670Y-103633921D01*
X70421153Y-103646218D01*
X70399529Y-103656446D01*
X70377007Y-103664504D01*
X70353803Y-103670316D01*
X70330142Y-103673826D01*
X70306250Y-103675000D01*
X69393750Y-103675000D01*
X69369858Y-103673826D01*
X69346197Y-103670316D01*
X69322993Y-103664504D01*
X69300471Y-103656446D01*
X69278847Y-103646218D01*
X69258330Y-103633921D01*
X69239117Y-103619671D01*
X69221393Y-103603607D01*
X69205329Y-103585883D01*
X69191079Y-103566670D01*
X69178782Y-103546153D01*
X69168554Y-103524529D01*
X69160496Y-103502007D01*
X69154684Y-103478803D01*
X69151174Y-103455142D01*
X69150000Y-103431250D01*
X69150000Y-102943750D01*
X69151174Y-102919858D01*
X69154684Y-102896197D01*
X69160496Y-102872993D01*
X69168554Y-102850471D01*
X69178782Y-102828847D01*
X69191079Y-102808330D01*
X69205329Y-102789117D01*
X69221393Y-102771393D01*
X69239117Y-102755329D01*
X69258330Y-102741079D01*
X69278847Y-102728782D01*
X69300471Y-102718554D01*
X69322993Y-102710496D01*
X69346197Y-102704684D01*
X69369858Y-102701174D01*
X69393750Y-102700000D01*
X70306250Y-102700000D01*
X70330142Y-102701174D01*
X70330142Y-102701174D01*
G37*
D17*
X69850000Y-103187500D03*
D16*
G36*
X70330142Y-104576174D02*
G01*
X70353803Y-104579684D01*
X70377007Y-104585496D01*
X70399529Y-104593554D01*
X70421153Y-104603782D01*
X70441670Y-104616079D01*
X70460883Y-104630329D01*
X70478607Y-104646393D01*
X70494671Y-104664117D01*
X70508921Y-104683330D01*
X70521218Y-104703847D01*
X70531446Y-104725471D01*
X70539504Y-104747993D01*
X70545316Y-104771197D01*
X70548826Y-104794858D01*
X70550000Y-104818750D01*
X70550000Y-105306250D01*
X70548826Y-105330142D01*
X70545316Y-105353803D01*
X70539504Y-105377007D01*
X70531446Y-105399529D01*
X70521218Y-105421153D01*
X70508921Y-105441670D01*
X70494671Y-105460883D01*
X70478607Y-105478607D01*
X70460883Y-105494671D01*
X70441670Y-105508921D01*
X70421153Y-105521218D01*
X70399529Y-105531446D01*
X70377007Y-105539504D01*
X70353803Y-105545316D01*
X70330142Y-105548826D01*
X70306250Y-105550000D01*
X69393750Y-105550000D01*
X69369858Y-105548826D01*
X69346197Y-105545316D01*
X69322993Y-105539504D01*
X69300471Y-105531446D01*
X69278847Y-105521218D01*
X69258330Y-105508921D01*
X69239117Y-105494671D01*
X69221393Y-105478607D01*
X69205329Y-105460883D01*
X69191079Y-105441670D01*
X69178782Y-105421153D01*
X69168554Y-105399529D01*
X69160496Y-105377007D01*
X69154684Y-105353803D01*
X69151174Y-105330142D01*
X69150000Y-105306250D01*
X69150000Y-104818750D01*
X69151174Y-104794858D01*
X69154684Y-104771197D01*
X69160496Y-104747993D01*
X69168554Y-104725471D01*
X69178782Y-104703847D01*
X69191079Y-104683330D01*
X69205329Y-104664117D01*
X69221393Y-104646393D01*
X69239117Y-104630329D01*
X69258330Y-104616079D01*
X69278847Y-104603782D01*
X69300471Y-104593554D01*
X69322993Y-104585496D01*
X69346197Y-104579684D01*
X69369858Y-104576174D01*
X69393750Y-104575000D01*
X70306250Y-104575000D01*
X70330142Y-104576174D01*
X70330142Y-104576174D01*
G37*
D17*
X69850000Y-105062500D03*
D16*
G36*
X81442642Y-92382424D02*
G01*
X81466303Y-92385934D01*
X81489507Y-92391746D01*
X81512029Y-92399804D01*
X81533653Y-92410032D01*
X81554170Y-92422329D01*
X81573383Y-92436579D01*
X81591107Y-92452643D01*
X81607171Y-92470367D01*
X81621421Y-92489580D01*
X81633718Y-92510097D01*
X81643946Y-92531721D01*
X81652004Y-92554243D01*
X81657816Y-92577447D01*
X81661326Y-92601108D01*
X81662500Y-92625000D01*
X81662500Y-93112500D01*
X81661326Y-93136392D01*
X81657816Y-93160053D01*
X81652004Y-93183257D01*
X81643946Y-93205779D01*
X81633718Y-93227403D01*
X81621421Y-93247920D01*
X81607171Y-93267133D01*
X81591107Y-93284857D01*
X81573383Y-93300921D01*
X81554170Y-93315171D01*
X81533653Y-93327468D01*
X81512029Y-93337696D01*
X81489507Y-93345754D01*
X81466303Y-93351566D01*
X81442642Y-93355076D01*
X81418750Y-93356250D01*
X80506250Y-93356250D01*
X80482358Y-93355076D01*
X80458697Y-93351566D01*
X80435493Y-93345754D01*
X80412971Y-93337696D01*
X80391347Y-93327468D01*
X80370830Y-93315171D01*
X80351617Y-93300921D01*
X80333893Y-93284857D01*
X80317829Y-93267133D01*
X80303579Y-93247920D01*
X80291282Y-93227403D01*
X80281054Y-93205779D01*
X80272996Y-93183257D01*
X80267184Y-93160053D01*
X80263674Y-93136392D01*
X80262500Y-93112500D01*
X80262500Y-92625000D01*
X80263674Y-92601108D01*
X80267184Y-92577447D01*
X80272996Y-92554243D01*
X80281054Y-92531721D01*
X80291282Y-92510097D01*
X80303579Y-92489580D01*
X80317829Y-92470367D01*
X80333893Y-92452643D01*
X80351617Y-92436579D01*
X80370830Y-92422329D01*
X80391347Y-92410032D01*
X80412971Y-92399804D01*
X80435493Y-92391746D01*
X80458697Y-92385934D01*
X80482358Y-92382424D01*
X80506250Y-92381250D01*
X81418750Y-92381250D01*
X81442642Y-92382424D01*
X81442642Y-92382424D01*
G37*
D17*
X80962500Y-92868750D03*
D16*
G36*
X81442642Y-94257424D02*
G01*
X81466303Y-94260934D01*
X81489507Y-94266746D01*
X81512029Y-94274804D01*
X81533653Y-94285032D01*
X81554170Y-94297329D01*
X81573383Y-94311579D01*
X81591107Y-94327643D01*
X81607171Y-94345367D01*
X81621421Y-94364580D01*
X81633718Y-94385097D01*
X81643946Y-94406721D01*
X81652004Y-94429243D01*
X81657816Y-94452447D01*
X81661326Y-94476108D01*
X81662500Y-94500000D01*
X81662500Y-94987500D01*
X81661326Y-95011392D01*
X81657816Y-95035053D01*
X81652004Y-95058257D01*
X81643946Y-95080779D01*
X81633718Y-95102403D01*
X81621421Y-95122920D01*
X81607171Y-95142133D01*
X81591107Y-95159857D01*
X81573383Y-95175921D01*
X81554170Y-95190171D01*
X81533653Y-95202468D01*
X81512029Y-95212696D01*
X81489507Y-95220754D01*
X81466303Y-95226566D01*
X81442642Y-95230076D01*
X81418750Y-95231250D01*
X80506250Y-95231250D01*
X80482358Y-95230076D01*
X80458697Y-95226566D01*
X80435493Y-95220754D01*
X80412971Y-95212696D01*
X80391347Y-95202468D01*
X80370830Y-95190171D01*
X80351617Y-95175921D01*
X80333893Y-95159857D01*
X80317829Y-95142133D01*
X80303579Y-95122920D01*
X80291282Y-95102403D01*
X80281054Y-95080779D01*
X80272996Y-95058257D01*
X80267184Y-95035053D01*
X80263674Y-95011392D01*
X80262500Y-94987500D01*
X80262500Y-94500000D01*
X80263674Y-94476108D01*
X80267184Y-94452447D01*
X80272996Y-94429243D01*
X80281054Y-94406721D01*
X80291282Y-94385097D01*
X80303579Y-94364580D01*
X80317829Y-94345367D01*
X80333893Y-94327643D01*
X80351617Y-94311579D01*
X80370830Y-94297329D01*
X80391347Y-94285032D01*
X80412971Y-94274804D01*
X80435493Y-94266746D01*
X80458697Y-94260934D01*
X80482358Y-94257424D01*
X80506250Y-94256250D01*
X81418750Y-94256250D01*
X81442642Y-94257424D01*
X81442642Y-94257424D01*
G37*
D17*
X80962500Y-94743750D03*
D18*
X185618750Y-149987500D03*
X184963751Y-150717500D03*
D19*
X184308750Y-151447500D02*
X185618752Y-149987500D01*
D18*
X190658750Y-148907500D03*
X190638750Y-149197500D03*
D19*
X190618750Y-149487500D02*
X190658750Y-148907500D01*
D18*
X166568750Y-149987500D03*
X165913751Y-150717500D03*
D19*
X165258750Y-151447500D02*
X166568752Y-149987500D01*
D18*
X171608750Y-148907500D03*
X171588750Y-149197500D03*
D19*
X171568750Y-149487500D02*
X171608750Y-148907500D01*
D18*
X147518750Y-149987500D03*
X146863751Y-150717500D03*
D19*
X146208750Y-151447500D02*
X147518752Y-149987500D01*
D18*
X152558750Y-148907500D03*
X152538750Y-149197500D03*
D19*
X152518750Y-149487500D02*
X152558750Y-148907500D01*
D18*
X128468750Y-149987500D03*
X127813751Y-150717500D03*
D19*
X127158750Y-151447500D02*
X128468752Y-149987500D01*
D18*
X133508750Y-148907500D03*
X133488750Y-149197500D03*
D19*
X133468750Y-149487500D02*
X133508750Y-148907500D01*
D18*
X109418750Y-149987500D03*
X108763751Y-150717500D03*
D19*
X108108750Y-151447500D02*
X109418752Y-149987500D01*
D18*
X114458750Y-148907500D03*
X114438750Y-149197500D03*
D19*
X114418750Y-149487500D02*
X114458750Y-148907500D01*
D18*
X185618750Y-130937500D03*
X184963751Y-131667500D03*
D19*
X184308750Y-132397500D02*
X185618752Y-130937500D01*
D18*
X190658750Y-129857500D03*
X190638750Y-130147500D03*
D19*
X190618750Y-130437500D02*
X190658750Y-129857500D01*
D18*
X166568750Y-130937500D03*
X165913751Y-131667500D03*
D19*
X165258750Y-132397500D02*
X166568752Y-130937500D01*
D18*
X171608750Y-129857500D03*
X171588750Y-130147500D03*
D19*
X171568750Y-130437500D02*
X171608750Y-129857500D01*
D18*
X147518750Y-130937500D03*
X146863751Y-131667500D03*
D19*
X146208750Y-132397500D02*
X147518752Y-130937500D01*
D18*
X152558750Y-129857500D03*
X152538750Y-130147500D03*
D19*
X152518750Y-130437500D02*
X152558750Y-129857500D01*
D18*
X128468750Y-130937500D03*
X127813751Y-131667500D03*
D19*
X127158750Y-132397500D02*
X128468752Y-130937500D01*
D18*
X133508750Y-129857500D03*
X133488750Y-130147500D03*
D19*
X133468750Y-130437500D02*
X133508750Y-129857500D01*
D18*
X109418750Y-130937500D03*
X108763751Y-131667500D03*
D19*
X108108750Y-132397500D02*
X109418752Y-130937500D01*
D18*
X114458750Y-129857500D03*
X114438750Y-130147500D03*
D19*
X114418750Y-130437500D02*
X114458750Y-129857500D01*
D18*
X185618750Y-111887500D03*
X184963751Y-112617500D03*
D19*
X184308750Y-113347500D02*
X185618752Y-111887500D01*
D18*
X190658750Y-110807500D03*
X190638750Y-111097500D03*
D19*
X190618750Y-111387500D02*
X190658750Y-110807500D01*
D18*
X166568750Y-111887500D03*
X165913751Y-112617500D03*
D19*
X165258750Y-113347500D02*
X166568752Y-111887500D01*
D18*
X171608750Y-110807500D03*
X171588750Y-111097500D03*
D19*
X171568750Y-111387500D02*
X171608750Y-110807500D01*
D18*
X147518750Y-111887500D03*
X146863751Y-112617500D03*
D19*
X146208750Y-113347500D02*
X147518752Y-111887500D01*
D18*
X152558750Y-110807500D03*
X152538750Y-111097500D03*
D19*
X152518750Y-111387500D02*
X152558750Y-110807500D01*
D18*
X128468750Y-111887500D03*
X127813751Y-112617500D03*
D19*
X127158750Y-113347500D02*
X128468752Y-111887500D01*
D18*
X133508750Y-110807500D03*
X133488750Y-111097500D03*
D19*
X133468750Y-111387500D02*
X133508750Y-110807500D01*
D18*
X109418750Y-111887500D03*
X108763751Y-112617500D03*
D19*
X108108750Y-113347500D02*
X109418752Y-111887500D01*
D18*
X114458750Y-110807500D03*
X114438750Y-111097500D03*
D19*
X114418750Y-111387500D02*
X114458750Y-110807500D01*
D18*
X185618750Y-92837500D03*
X184963751Y-93567500D03*
D19*
X184308750Y-94297500D02*
X185618752Y-92837500D01*
D18*
X190658750Y-91757500D03*
X190638750Y-92047500D03*
D19*
X190618750Y-92337500D02*
X190658750Y-91757500D01*
D18*
X166568750Y-92837500D03*
X165913751Y-93567500D03*
D19*
X165258750Y-94297500D02*
X166568752Y-92837500D01*
D18*
X171608750Y-91757500D03*
X171588750Y-92047500D03*
D19*
X171568750Y-92337500D02*
X171608750Y-91757500D01*
D18*
X147518750Y-92837500D03*
X146863751Y-93567500D03*
D19*
X146208750Y-94297500D02*
X147518752Y-92837500D01*
D18*
X152558750Y-91757500D03*
X152538750Y-92047500D03*
D19*
X152518750Y-92337500D02*
X152558750Y-91757500D01*
D18*
X128468750Y-92837500D03*
X127813751Y-93567500D03*
D19*
X127158750Y-94297500D02*
X128468752Y-92837500D01*
D18*
X133508750Y-91757500D03*
X133488750Y-92047500D03*
D19*
X133468750Y-92337500D02*
X133508750Y-91757500D01*
D18*
X109418750Y-92837500D03*
X108763751Y-93567500D03*
D19*
X108108750Y-94297500D02*
X109418752Y-92837500D01*
D18*
X114458750Y-91757500D03*
X114438750Y-92047500D03*
D19*
X114418750Y-92337500D02*
X114458750Y-91757500D01*
D16*
G36*
X64943254Y-102563704D02*
G01*
X64967523Y-102567304D01*
X64991321Y-102573265D01*
X65014421Y-102581530D01*
X65036599Y-102592020D01*
X65057643Y-102604633D01*
X65077348Y-102619247D01*
X65095527Y-102635723D01*
X65112003Y-102653902D01*
X65126617Y-102673607D01*
X65139230Y-102694651D01*
X65149720Y-102716829D01*
X65157985Y-102739929D01*
X65163946Y-102763727D01*
X65167546Y-102787996D01*
X65168750Y-102812500D01*
X65168750Y-103562500D01*
X65167546Y-103587004D01*
X65163946Y-103611273D01*
X65157985Y-103635071D01*
X65149720Y-103658171D01*
X65139230Y-103680349D01*
X65126617Y-103701393D01*
X65112003Y-103721098D01*
X65095527Y-103739277D01*
X65077348Y-103755753D01*
X65057643Y-103770367D01*
X65036599Y-103782980D01*
X65014421Y-103793470D01*
X64991321Y-103801735D01*
X64967523Y-103807696D01*
X64943254Y-103811296D01*
X64918750Y-103812500D01*
X63668750Y-103812500D01*
X63644246Y-103811296D01*
X63619977Y-103807696D01*
X63596179Y-103801735D01*
X63573079Y-103793470D01*
X63550901Y-103782980D01*
X63529857Y-103770367D01*
X63510152Y-103755753D01*
X63491973Y-103739277D01*
X63475497Y-103721098D01*
X63460883Y-103701393D01*
X63448270Y-103680349D01*
X63437780Y-103658171D01*
X63429515Y-103635071D01*
X63423554Y-103611273D01*
X63419954Y-103587004D01*
X63418750Y-103562500D01*
X63418750Y-102812500D01*
X63419954Y-102787996D01*
X63423554Y-102763727D01*
X63429515Y-102739929D01*
X63437780Y-102716829D01*
X63448270Y-102694651D01*
X63460883Y-102673607D01*
X63475497Y-102653902D01*
X63491973Y-102635723D01*
X63510152Y-102619247D01*
X63529857Y-102604633D01*
X63550901Y-102592020D01*
X63573079Y-102581530D01*
X63596179Y-102573265D01*
X63619977Y-102567304D01*
X63644246Y-102563704D01*
X63668750Y-102562500D01*
X64918750Y-102562500D01*
X64943254Y-102563704D01*
X64943254Y-102563704D01*
G37*
D20*
X64293750Y-103187500D03*
D16*
G36*
X64943254Y-105363704D02*
G01*
X64967523Y-105367304D01*
X64991321Y-105373265D01*
X65014421Y-105381530D01*
X65036599Y-105392020D01*
X65057643Y-105404633D01*
X65077348Y-105419247D01*
X65095527Y-105435723D01*
X65112003Y-105453902D01*
X65126617Y-105473607D01*
X65139230Y-105494651D01*
X65149720Y-105516829D01*
X65157985Y-105539929D01*
X65163946Y-105563727D01*
X65167546Y-105587996D01*
X65168750Y-105612500D01*
X65168750Y-106362500D01*
X65167546Y-106387004D01*
X65163946Y-106411273D01*
X65157985Y-106435071D01*
X65149720Y-106458171D01*
X65139230Y-106480349D01*
X65126617Y-106501393D01*
X65112003Y-106521098D01*
X65095527Y-106539277D01*
X65077348Y-106555753D01*
X65057643Y-106570367D01*
X65036599Y-106582980D01*
X65014421Y-106593470D01*
X64991321Y-106601735D01*
X64967523Y-106607696D01*
X64943254Y-106611296D01*
X64918750Y-106612500D01*
X63668750Y-106612500D01*
X63644246Y-106611296D01*
X63619977Y-106607696D01*
X63596179Y-106601735D01*
X63573079Y-106593470D01*
X63550901Y-106582980D01*
X63529857Y-106570367D01*
X63510152Y-106555753D01*
X63491973Y-106539277D01*
X63475497Y-106521098D01*
X63460883Y-106501393D01*
X63448270Y-106480349D01*
X63437780Y-106458171D01*
X63429515Y-106435071D01*
X63423554Y-106411273D01*
X63419954Y-106387004D01*
X63418750Y-106362500D01*
X63418750Y-105612500D01*
X63419954Y-105587996D01*
X63423554Y-105563727D01*
X63429515Y-105539929D01*
X63437780Y-105516829D01*
X63448270Y-105494651D01*
X63460883Y-105473607D01*
X63475497Y-105453902D01*
X63491973Y-105435723D01*
X63510152Y-105419247D01*
X63529857Y-105404633D01*
X63550901Y-105392020D01*
X63573079Y-105381530D01*
X63596179Y-105373265D01*
X63619977Y-105367304D01*
X63644246Y-105363704D01*
X63668750Y-105362500D01*
X64918750Y-105362500D01*
X64943254Y-105363704D01*
X64943254Y-105363704D01*
G37*
D20*
X64293750Y-105987500D03*
D21*
X196056250Y-152337500D03*
X196056250Y-155637500D03*
X177006250Y-152337500D03*
X177006250Y-155637500D03*
X157956250Y-152337500D03*
X157956250Y-155637500D03*
X138906250Y-152337500D03*
X138906250Y-155637500D03*
X119856250Y-152337500D03*
X119856250Y-155637500D03*
X196056250Y-133287500D03*
X196056250Y-136587500D03*
X177006250Y-133287500D03*
X177006250Y-136587500D03*
X157956250Y-133350000D03*
X157956250Y-136650000D03*
X138906250Y-133287500D03*
X138906250Y-136587500D03*
X119856250Y-133225000D03*
X119856250Y-136525000D03*
X196056250Y-114237500D03*
X196056250Y-117537500D03*
X177006250Y-114237500D03*
X177006250Y-117537500D03*
X157956250Y-114237500D03*
X157956250Y-117537500D03*
X138906250Y-114237500D03*
X138906250Y-117537500D03*
X119856250Y-114237500D03*
X119856250Y-117537500D03*
X196056250Y-95187500D03*
X196056250Y-98487500D03*
X177006250Y-95187500D03*
X177006250Y-98487500D03*
X157956250Y-95187500D03*
X157956250Y-98487500D03*
X138906250Y-95187500D03*
X138906250Y-98487500D03*
X119856250Y-95187500D03*
X119856250Y-98487500D03*
D16*
G36*
X78267642Y-107463674D02*
G01*
X78291303Y-107467184D01*
X78314507Y-107472996D01*
X78337029Y-107481054D01*
X78358653Y-107491282D01*
X78379170Y-107503579D01*
X78398383Y-107517829D01*
X78416107Y-107533893D01*
X78432171Y-107551617D01*
X78446421Y-107570830D01*
X78458718Y-107591347D01*
X78468946Y-107612971D01*
X78477004Y-107635493D01*
X78482816Y-107658697D01*
X78486326Y-107682358D01*
X78487500Y-107706250D01*
X78487500Y-108193750D01*
X78486326Y-108217642D01*
X78482816Y-108241303D01*
X78477004Y-108264507D01*
X78468946Y-108287029D01*
X78458718Y-108308653D01*
X78446421Y-108329170D01*
X78432171Y-108348383D01*
X78416107Y-108366107D01*
X78398383Y-108382171D01*
X78379170Y-108396421D01*
X78358653Y-108408718D01*
X78337029Y-108418946D01*
X78314507Y-108427004D01*
X78291303Y-108432816D01*
X78267642Y-108436326D01*
X78243750Y-108437500D01*
X77331250Y-108437500D01*
X77307358Y-108436326D01*
X77283697Y-108432816D01*
X77260493Y-108427004D01*
X77237971Y-108418946D01*
X77216347Y-108408718D01*
X77195830Y-108396421D01*
X77176617Y-108382171D01*
X77158893Y-108366107D01*
X77142829Y-108348383D01*
X77128579Y-108329170D01*
X77116282Y-108308653D01*
X77106054Y-108287029D01*
X77097996Y-108264507D01*
X77092184Y-108241303D01*
X77088674Y-108217642D01*
X77087500Y-108193750D01*
X77087500Y-107706250D01*
X77088674Y-107682358D01*
X77092184Y-107658697D01*
X77097996Y-107635493D01*
X77106054Y-107612971D01*
X77116282Y-107591347D01*
X77128579Y-107570830D01*
X77142829Y-107551617D01*
X77158893Y-107533893D01*
X77176617Y-107517829D01*
X77195830Y-107503579D01*
X77216347Y-107491282D01*
X77237971Y-107481054D01*
X77260493Y-107472996D01*
X77283697Y-107467184D01*
X77307358Y-107463674D01*
X77331250Y-107462500D01*
X78243750Y-107462500D01*
X78267642Y-107463674D01*
X78267642Y-107463674D01*
G37*
D17*
X77787500Y-107950000D03*
D16*
G36*
X78267642Y-109338674D02*
G01*
X78291303Y-109342184D01*
X78314507Y-109347996D01*
X78337029Y-109356054D01*
X78358653Y-109366282D01*
X78379170Y-109378579D01*
X78398383Y-109392829D01*
X78416107Y-109408893D01*
X78432171Y-109426617D01*
X78446421Y-109445830D01*
X78458718Y-109466347D01*
X78468946Y-109487971D01*
X78477004Y-109510493D01*
X78482816Y-109533697D01*
X78486326Y-109557358D01*
X78487500Y-109581250D01*
X78487500Y-110068750D01*
X78486326Y-110092642D01*
X78482816Y-110116303D01*
X78477004Y-110139507D01*
X78468946Y-110162029D01*
X78458718Y-110183653D01*
X78446421Y-110204170D01*
X78432171Y-110223383D01*
X78416107Y-110241107D01*
X78398383Y-110257171D01*
X78379170Y-110271421D01*
X78358653Y-110283718D01*
X78337029Y-110293946D01*
X78314507Y-110302004D01*
X78291303Y-110307816D01*
X78267642Y-110311326D01*
X78243750Y-110312500D01*
X77331250Y-110312500D01*
X77307358Y-110311326D01*
X77283697Y-110307816D01*
X77260493Y-110302004D01*
X77237971Y-110293946D01*
X77216347Y-110283718D01*
X77195830Y-110271421D01*
X77176617Y-110257171D01*
X77158893Y-110241107D01*
X77142829Y-110223383D01*
X77128579Y-110204170D01*
X77116282Y-110183653D01*
X77106054Y-110162029D01*
X77097996Y-110139507D01*
X77092184Y-110116303D01*
X77088674Y-110092642D01*
X77087500Y-110068750D01*
X77087500Y-109581250D01*
X77088674Y-109557358D01*
X77092184Y-109533697D01*
X77097996Y-109510493D01*
X77106054Y-109487971D01*
X77116282Y-109466347D01*
X77128579Y-109445830D01*
X77142829Y-109426617D01*
X77158893Y-109408893D01*
X77176617Y-109392829D01*
X77195830Y-109378579D01*
X77216347Y-109366282D01*
X77237971Y-109356054D01*
X77260493Y-109347996D01*
X77283697Y-109342184D01*
X77307358Y-109338674D01*
X77331250Y-109337500D01*
X78243750Y-109337500D01*
X78267642Y-109338674D01*
X78267642Y-109338674D01*
G37*
D17*
X77787500Y-109825000D03*
D16*
G36*
X96523892Y-96063674D02*
G01*
X96547553Y-96067184D01*
X96570757Y-96072996D01*
X96593279Y-96081054D01*
X96614903Y-96091282D01*
X96635420Y-96103579D01*
X96654633Y-96117829D01*
X96672357Y-96133893D01*
X96688421Y-96151617D01*
X96702671Y-96170830D01*
X96714968Y-96191347D01*
X96725196Y-96212971D01*
X96733254Y-96235493D01*
X96739066Y-96258697D01*
X96742576Y-96282358D01*
X96743750Y-96306250D01*
X96743750Y-96793750D01*
X96742576Y-96817642D01*
X96739066Y-96841303D01*
X96733254Y-96864507D01*
X96725196Y-96887029D01*
X96714968Y-96908653D01*
X96702671Y-96929170D01*
X96688421Y-96948383D01*
X96672357Y-96966107D01*
X96654633Y-96982171D01*
X96635420Y-96996421D01*
X96614903Y-97008718D01*
X96593279Y-97018946D01*
X96570757Y-97027004D01*
X96547553Y-97032816D01*
X96523892Y-97036326D01*
X96500000Y-97037500D01*
X95587500Y-97037500D01*
X95563608Y-97036326D01*
X95539947Y-97032816D01*
X95516743Y-97027004D01*
X95494221Y-97018946D01*
X95472597Y-97008718D01*
X95452080Y-96996421D01*
X95432867Y-96982171D01*
X95415143Y-96966107D01*
X95399079Y-96948383D01*
X95384829Y-96929170D01*
X95372532Y-96908653D01*
X95362304Y-96887029D01*
X95354246Y-96864507D01*
X95348434Y-96841303D01*
X95344924Y-96817642D01*
X95343750Y-96793750D01*
X95343750Y-96306250D01*
X95344924Y-96282358D01*
X95348434Y-96258697D01*
X95354246Y-96235493D01*
X95362304Y-96212971D01*
X95372532Y-96191347D01*
X95384829Y-96170830D01*
X95399079Y-96151617D01*
X95415143Y-96133893D01*
X95432867Y-96117829D01*
X95452080Y-96103579D01*
X95472597Y-96091282D01*
X95494221Y-96081054D01*
X95516743Y-96072996D01*
X95539947Y-96067184D01*
X95563608Y-96063674D01*
X95587500Y-96062500D01*
X96500000Y-96062500D01*
X96523892Y-96063674D01*
X96523892Y-96063674D01*
G37*
D17*
X96043750Y-96550000D03*
D16*
G36*
X96523892Y-97938674D02*
G01*
X96547553Y-97942184D01*
X96570757Y-97947996D01*
X96593279Y-97956054D01*
X96614903Y-97966282D01*
X96635420Y-97978579D01*
X96654633Y-97992829D01*
X96672357Y-98008893D01*
X96688421Y-98026617D01*
X96702671Y-98045830D01*
X96714968Y-98066347D01*
X96725196Y-98087971D01*
X96733254Y-98110493D01*
X96739066Y-98133697D01*
X96742576Y-98157358D01*
X96743750Y-98181250D01*
X96743750Y-98668750D01*
X96742576Y-98692642D01*
X96739066Y-98716303D01*
X96733254Y-98739507D01*
X96725196Y-98762029D01*
X96714968Y-98783653D01*
X96702671Y-98804170D01*
X96688421Y-98823383D01*
X96672357Y-98841107D01*
X96654633Y-98857171D01*
X96635420Y-98871421D01*
X96614903Y-98883718D01*
X96593279Y-98893946D01*
X96570757Y-98902004D01*
X96547553Y-98907816D01*
X96523892Y-98911326D01*
X96500000Y-98912500D01*
X95587500Y-98912500D01*
X95563608Y-98911326D01*
X95539947Y-98907816D01*
X95516743Y-98902004D01*
X95494221Y-98893946D01*
X95472597Y-98883718D01*
X95452080Y-98871421D01*
X95432867Y-98857171D01*
X95415143Y-98841107D01*
X95399079Y-98823383D01*
X95384829Y-98804170D01*
X95372532Y-98783653D01*
X95362304Y-98762029D01*
X95354246Y-98739507D01*
X95348434Y-98716303D01*
X95344924Y-98692642D01*
X95343750Y-98668750D01*
X95343750Y-98181250D01*
X95344924Y-98157358D01*
X95348434Y-98133697D01*
X95354246Y-98110493D01*
X95362304Y-98087971D01*
X95372532Y-98066347D01*
X95384829Y-98045830D01*
X95399079Y-98026617D01*
X95415143Y-98008893D01*
X95432867Y-97992829D01*
X95452080Y-97978579D01*
X95472597Y-97966282D01*
X95494221Y-97956054D01*
X95516743Y-97947996D01*
X95539947Y-97942184D01*
X95563608Y-97938674D01*
X95587500Y-97937500D01*
X96500000Y-97937500D01*
X96523892Y-97938674D01*
X96523892Y-97938674D01*
G37*
D17*
X96043750Y-98425000D03*
D16*
G36*
X79061392Y-92382424D02*
G01*
X79085053Y-92385934D01*
X79108257Y-92391746D01*
X79130779Y-92399804D01*
X79152403Y-92410032D01*
X79172920Y-92422329D01*
X79192133Y-92436579D01*
X79209857Y-92452643D01*
X79225921Y-92470367D01*
X79240171Y-92489580D01*
X79252468Y-92510097D01*
X79262696Y-92531721D01*
X79270754Y-92554243D01*
X79276566Y-92577447D01*
X79280076Y-92601108D01*
X79281250Y-92625000D01*
X79281250Y-93112500D01*
X79280076Y-93136392D01*
X79276566Y-93160053D01*
X79270754Y-93183257D01*
X79262696Y-93205779D01*
X79252468Y-93227403D01*
X79240171Y-93247920D01*
X79225921Y-93267133D01*
X79209857Y-93284857D01*
X79192133Y-93300921D01*
X79172920Y-93315171D01*
X79152403Y-93327468D01*
X79130779Y-93337696D01*
X79108257Y-93345754D01*
X79085053Y-93351566D01*
X79061392Y-93355076D01*
X79037500Y-93356250D01*
X78125000Y-93356250D01*
X78101108Y-93355076D01*
X78077447Y-93351566D01*
X78054243Y-93345754D01*
X78031721Y-93337696D01*
X78010097Y-93327468D01*
X77989580Y-93315171D01*
X77970367Y-93300921D01*
X77952643Y-93284857D01*
X77936579Y-93267133D01*
X77922329Y-93247920D01*
X77910032Y-93227403D01*
X77899804Y-93205779D01*
X77891746Y-93183257D01*
X77885934Y-93160053D01*
X77882424Y-93136392D01*
X77881250Y-93112500D01*
X77881250Y-92625000D01*
X77882424Y-92601108D01*
X77885934Y-92577447D01*
X77891746Y-92554243D01*
X77899804Y-92531721D01*
X77910032Y-92510097D01*
X77922329Y-92489580D01*
X77936579Y-92470367D01*
X77952643Y-92452643D01*
X77970367Y-92436579D01*
X77989580Y-92422329D01*
X78010097Y-92410032D01*
X78031721Y-92399804D01*
X78054243Y-92391746D01*
X78077447Y-92385934D01*
X78101108Y-92382424D01*
X78125000Y-92381250D01*
X79037500Y-92381250D01*
X79061392Y-92382424D01*
X79061392Y-92382424D01*
G37*
D17*
X78581250Y-92868750D03*
D16*
G36*
X79061392Y-94257424D02*
G01*
X79085053Y-94260934D01*
X79108257Y-94266746D01*
X79130779Y-94274804D01*
X79152403Y-94285032D01*
X79172920Y-94297329D01*
X79192133Y-94311579D01*
X79209857Y-94327643D01*
X79225921Y-94345367D01*
X79240171Y-94364580D01*
X79252468Y-94385097D01*
X79262696Y-94406721D01*
X79270754Y-94429243D01*
X79276566Y-94452447D01*
X79280076Y-94476108D01*
X79281250Y-94500000D01*
X79281250Y-94987500D01*
X79280076Y-95011392D01*
X79276566Y-95035053D01*
X79270754Y-95058257D01*
X79262696Y-95080779D01*
X79252468Y-95102403D01*
X79240171Y-95122920D01*
X79225921Y-95142133D01*
X79209857Y-95159857D01*
X79192133Y-95175921D01*
X79172920Y-95190171D01*
X79152403Y-95202468D01*
X79130779Y-95212696D01*
X79108257Y-95220754D01*
X79085053Y-95226566D01*
X79061392Y-95230076D01*
X79037500Y-95231250D01*
X78125000Y-95231250D01*
X78101108Y-95230076D01*
X78077447Y-95226566D01*
X78054243Y-95220754D01*
X78031721Y-95212696D01*
X78010097Y-95202468D01*
X77989580Y-95190171D01*
X77970367Y-95175921D01*
X77952643Y-95159857D01*
X77936579Y-95142133D01*
X77922329Y-95122920D01*
X77910032Y-95102403D01*
X77899804Y-95080779D01*
X77891746Y-95058257D01*
X77885934Y-95035053D01*
X77882424Y-95011392D01*
X77881250Y-94987500D01*
X77881250Y-94500000D01*
X77882424Y-94476108D01*
X77885934Y-94452447D01*
X77891746Y-94429243D01*
X77899804Y-94406721D01*
X77910032Y-94385097D01*
X77922329Y-94364580D01*
X77936579Y-94345367D01*
X77952643Y-94327643D01*
X77970367Y-94311579D01*
X77989580Y-94297329D01*
X78010097Y-94285032D01*
X78031721Y-94274804D01*
X78054243Y-94266746D01*
X78077447Y-94260934D01*
X78101108Y-94257424D01*
X78125000Y-94256250D01*
X79037500Y-94256250D01*
X79061392Y-94257424D01*
X79061392Y-94257424D01*
G37*
D17*
X78581250Y-94743750D03*
D16*
G36*
X89961392Y-111219924D02*
G01*
X89985053Y-111223434D01*
X90008257Y-111229246D01*
X90030779Y-111237304D01*
X90052403Y-111247532D01*
X90072920Y-111259829D01*
X90092133Y-111274079D01*
X90109857Y-111290143D01*
X90125921Y-111307867D01*
X90140171Y-111327080D01*
X90152468Y-111347597D01*
X90162696Y-111369221D01*
X90170754Y-111391743D01*
X90176566Y-111414947D01*
X90180076Y-111438608D01*
X90181250Y-111462500D01*
X90181250Y-112375000D01*
X90180076Y-112398892D01*
X90176566Y-112422553D01*
X90170754Y-112445757D01*
X90162696Y-112468279D01*
X90152468Y-112489903D01*
X90140171Y-112510420D01*
X90125921Y-112529633D01*
X90109857Y-112547357D01*
X90092133Y-112563421D01*
X90072920Y-112577671D01*
X90052403Y-112589968D01*
X90030779Y-112600196D01*
X90008257Y-112608254D01*
X89985053Y-112614066D01*
X89961392Y-112617576D01*
X89937500Y-112618750D01*
X89450000Y-112618750D01*
X89426108Y-112617576D01*
X89402447Y-112614066D01*
X89379243Y-112608254D01*
X89356721Y-112600196D01*
X89335097Y-112589968D01*
X89314580Y-112577671D01*
X89295367Y-112563421D01*
X89277643Y-112547357D01*
X89261579Y-112529633D01*
X89247329Y-112510420D01*
X89235032Y-112489903D01*
X89224804Y-112468279D01*
X89216746Y-112445757D01*
X89210934Y-112422553D01*
X89207424Y-112398892D01*
X89206250Y-112375000D01*
X89206250Y-111462500D01*
X89207424Y-111438608D01*
X89210934Y-111414947D01*
X89216746Y-111391743D01*
X89224804Y-111369221D01*
X89235032Y-111347597D01*
X89247329Y-111327080D01*
X89261579Y-111307867D01*
X89277643Y-111290143D01*
X89295367Y-111274079D01*
X89314580Y-111259829D01*
X89335097Y-111247532D01*
X89356721Y-111237304D01*
X89379243Y-111229246D01*
X89402447Y-111223434D01*
X89426108Y-111219924D01*
X89450000Y-111218750D01*
X89937500Y-111218750D01*
X89961392Y-111219924D01*
X89961392Y-111219924D01*
G37*
D17*
X89693750Y-111918750D03*
D16*
G36*
X91836392Y-111219924D02*
G01*
X91860053Y-111223434D01*
X91883257Y-111229246D01*
X91905779Y-111237304D01*
X91927403Y-111247532D01*
X91947920Y-111259829D01*
X91967133Y-111274079D01*
X91984857Y-111290143D01*
X92000921Y-111307867D01*
X92015171Y-111327080D01*
X92027468Y-111347597D01*
X92037696Y-111369221D01*
X92045754Y-111391743D01*
X92051566Y-111414947D01*
X92055076Y-111438608D01*
X92056250Y-111462500D01*
X92056250Y-112375000D01*
X92055076Y-112398892D01*
X92051566Y-112422553D01*
X92045754Y-112445757D01*
X92037696Y-112468279D01*
X92027468Y-112489903D01*
X92015171Y-112510420D01*
X92000921Y-112529633D01*
X91984857Y-112547357D01*
X91967133Y-112563421D01*
X91947920Y-112577671D01*
X91927403Y-112589968D01*
X91905779Y-112600196D01*
X91883257Y-112608254D01*
X91860053Y-112614066D01*
X91836392Y-112617576D01*
X91812500Y-112618750D01*
X91325000Y-112618750D01*
X91301108Y-112617576D01*
X91277447Y-112614066D01*
X91254243Y-112608254D01*
X91231721Y-112600196D01*
X91210097Y-112589968D01*
X91189580Y-112577671D01*
X91170367Y-112563421D01*
X91152643Y-112547357D01*
X91136579Y-112529633D01*
X91122329Y-112510420D01*
X91110032Y-112489903D01*
X91099804Y-112468279D01*
X91091746Y-112445757D01*
X91085934Y-112422553D01*
X91082424Y-112398892D01*
X91081250Y-112375000D01*
X91081250Y-111462500D01*
X91082424Y-111438608D01*
X91085934Y-111414947D01*
X91091746Y-111391743D01*
X91099804Y-111369221D01*
X91110032Y-111347597D01*
X91122329Y-111327080D01*
X91136579Y-111307867D01*
X91152643Y-111290143D01*
X91170367Y-111274079D01*
X91189580Y-111259829D01*
X91210097Y-111247532D01*
X91231721Y-111237304D01*
X91254243Y-111229246D01*
X91277447Y-111223434D01*
X91301108Y-111219924D01*
X91325000Y-111218750D01*
X91812500Y-111218750D01*
X91836392Y-111219924D01*
X91836392Y-111219924D01*
G37*
D17*
X91568750Y-111918750D03*
D16*
G36*
X75886392Y-101907424D02*
G01*
X75910053Y-101910934D01*
X75933257Y-101916746D01*
X75955779Y-101924804D01*
X75977403Y-101935032D01*
X75997920Y-101947329D01*
X76017133Y-101961579D01*
X76034857Y-101977643D01*
X76050921Y-101995367D01*
X76065171Y-102014580D01*
X76077468Y-102035097D01*
X76087696Y-102056721D01*
X76095754Y-102079243D01*
X76101566Y-102102447D01*
X76105076Y-102126108D01*
X76106250Y-102150000D01*
X76106250Y-102637500D01*
X76105076Y-102661392D01*
X76101566Y-102685053D01*
X76095754Y-102708257D01*
X76087696Y-102730779D01*
X76077468Y-102752403D01*
X76065171Y-102772920D01*
X76050921Y-102792133D01*
X76034857Y-102809857D01*
X76017133Y-102825921D01*
X75997920Y-102840171D01*
X75977403Y-102852468D01*
X75955779Y-102862696D01*
X75933257Y-102870754D01*
X75910053Y-102876566D01*
X75886392Y-102880076D01*
X75862500Y-102881250D01*
X74950000Y-102881250D01*
X74926108Y-102880076D01*
X74902447Y-102876566D01*
X74879243Y-102870754D01*
X74856721Y-102862696D01*
X74835097Y-102852468D01*
X74814580Y-102840171D01*
X74795367Y-102825921D01*
X74777643Y-102809857D01*
X74761579Y-102792133D01*
X74747329Y-102772920D01*
X74735032Y-102752403D01*
X74724804Y-102730779D01*
X74716746Y-102708257D01*
X74710934Y-102685053D01*
X74707424Y-102661392D01*
X74706250Y-102637500D01*
X74706250Y-102150000D01*
X74707424Y-102126108D01*
X74710934Y-102102447D01*
X74716746Y-102079243D01*
X74724804Y-102056721D01*
X74735032Y-102035097D01*
X74747329Y-102014580D01*
X74761579Y-101995367D01*
X74777643Y-101977643D01*
X74795367Y-101961579D01*
X74814580Y-101947329D01*
X74835097Y-101935032D01*
X74856721Y-101924804D01*
X74879243Y-101916746D01*
X74902447Y-101910934D01*
X74926108Y-101907424D01*
X74950000Y-101906250D01*
X75862500Y-101906250D01*
X75886392Y-101907424D01*
X75886392Y-101907424D01*
G37*
D17*
X75406250Y-102393750D03*
D16*
G36*
X75886392Y-103782424D02*
G01*
X75910053Y-103785934D01*
X75933257Y-103791746D01*
X75955779Y-103799804D01*
X75977403Y-103810032D01*
X75997920Y-103822329D01*
X76017133Y-103836579D01*
X76034857Y-103852643D01*
X76050921Y-103870367D01*
X76065171Y-103889580D01*
X76077468Y-103910097D01*
X76087696Y-103931721D01*
X76095754Y-103954243D01*
X76101566Y-103977447D01*
X76105076Y-104001108D01*
X76106250Y-104025000D01*
X76106250Y-104512500D01*
X76105076Y-104536392D01*
X76101566Y-104560053D01*
X76095754Y-104583257D01*
X76087696Y-104605779D01*
X76077468Y-104627403D01*
X76065171Y-104647920D01*
X76050921Y-104667133D01*
X76034857Y-104684857D01*
X76017133Y-104700921D01*
X75997920Y-104715171D01*
X75977403Y-104727468D01*
X75955779Y-104737696D01*
X75933257Y-104745754D01*
X75910053Y-104751566D01*
X75886392Y-104755076D01*
X75862500Y-104756250D01*
X74950000Y-104756250D01*
X74926108Y-104755076D01*
X74902447Y-104751566D01*
X74879243Y-104745754D01*
X74856721Y-104737696D01*
X74835097Y-104727468D01*
X74814580Y-104715171D01*
X74795367Y-104700921D01*
X74777643Y-104684857D01*
X74761579Y-104667133D01*
X74747329Y-104647920D01*
X74735032Y-104627403D01*
X74724804Y-104605779D01*
X74716746Y-104583257D01*
X74710934Y-104560053D01*
X74707424Y-104536392D01*
X74706250Y-104512500D01*
X74706250Y-104025000D01*
X74707424Y-104001108D01*
X74710934Y-103977447D01*
X74716746Y-103954243D01*
X74724804Y-103931721D01*
X74735032Y-103910097D01*
X74747329Y-103889580D01*
X74761579Y-103870367D01*
X74777643Y-103852643D01*
X74795367Y-103836579D01*
X74814580Y-103822329D01*
X74835097Y-103810032D01*
X74856721Y-103799804D01*
X74879243Y-103791746D01*
X74902447Y-103785934D01*
X74926108Y-103782424D01*
X74950000Y-103781250D01*
X75862500Y-103781250D01*
X75886392Y-103782424D01*
X75886392Y-103782424D01*
G37*
D17*
X75406250Y-104268750D03*
D16*
G36*
X82236392Y-88413674D02*
G01*
X82260053Y-88417184D01*
X82283257Y-88422996D01*
X82305779Y-88431054D01*
X82327403Y-88441282D01*
X82347920Y-88453579D01*
X82367133Y-88467829D01*
X82384857Y-88483893D01*
X82400921Y-88501617D01*
X82415171Y-88520830D01*
X82427468Y-88541347D01*
X82437696Y-88562971D01*
X82445754Y-88585493D01*
X82451566Y-88608697D01*
X82455076Y-88632358D01*
X82456250Y-88656250D01*
X82456250Y-89143750D01*
X82455076Y-89167642D01*
X82451566Y-89191303D01*
X82445754Y-89214507D01*
X82437696Y-89237029D01*
X82427468Y-89258653D01*
X82415171Y-89279170D01*
X82400921Y-89298383D01*
X82384857Y-89316107D01*
X82367133Y-89332171D01*
X82347920Y-89346421D01*
X82327403Y-89358718D01*
X82305779Y-89368946D01*
X82283257Y-89377004D01*
X82260053Y-89382816D01*
X82236392Y-89386326D01*
X82212500Y-89387500D01*
X81300000Y-89387500D01*
X81276108Y-89386326D01*
X81252447Y-89382816D01*
X81229243Y-89377004D01*
X81206721Y-89368946D01*
X81185097Y-89358718D01*
X81164580Y-89346421D01*
X81145367Y-89332171D01*
X81127643Y-89316107D01*
X81111579Y-89298383D01*
X81097329Y-89279170D01*
X81085032Y-89258653D01*
X81074804Y-89237029D01*
X81066746Y-89214507D01*
X81060934Y-89191303D01*
X81057424Y-89167642D01*
X81056250Y-89143750D01*
X81056250Y-88656250D01*
X81057424Y-88632358D01*
X81060934Y-88608697D01*
X81066746Y-88585493D01*
X81074804Y-88562971D01*
X81085032Y-88541347D01*
X81097329Y-88520830D01*
X81111579Y-88501617D01*
X81127643Y-88483893D01*
X81145367Y-88467829D01*
X81164580Y-88453579D01*
X81185097Y-88441282D01*
X81206721Y-88431054D01*
X81229243Y-88422996D01*
X81252447Y-88417184D01*
X81276108Y-88413674D01*
X81300000Y-88412500D01*
X82212500Y-88412500D01*
X82236392Y-88413674D01*
X82236392Y-88413674D01*
G37*
D17*
X81756250Y-88900000D03*
D16*
G36*
X82236392Y-90288674D02*
G01*
X82260053Y-90292184D01*
X82283257Y-90297996D01*
X82305779Y-90306054D01*
X82327403Y-90316282D01*
X82347920Y-90328579D01*
X82367133Y-90342829D01*
X82384857Y-90358893D01*
X82400921Y-90376617D01*
X82415171Y-90395830D01*
X82427468Y-90416347D01*
X82437696Y-90437971D01*
X82445754Y-90460493D01*
X82451566Y-90483697D01*
X82455076Y-90507358D01*
X82456250Y-90531250D01*
X82456250Y-91018750D01*
X82455076Y-91042642D01*
X82451566Y-91066303D01*
X82445754Y-91089507D01*
X82437696Y-91112029D01*
X82427468Y-91133653D01*
X82415171Y-91154170D01*
X82400921Y-91173383D01*
X82384857Y-91191107D01*
X82367133Y-91207171D01*
X82347920Y-91221421D01*
X82327403Y-91233718D01*
X82305779Y-91243946D01*
X82283257Y-91252004D01*
X82260053Y-91257816D01*
X82236392Y-91261326D01*
X82212500Y-91262500D01*
X81300000Y-91262500D01*
X81276108Y-91261326D01*
X81252447Y-91257816D01*
X81229243Y-91252004D01*
X81206721Y-91243946D01*
X81185097Y-91233718D01*
X81164580Y-91221421D01*
X81145367Y-91207171D01*
X81127643Y-91191107D01*
X81111579Y-91173383D01*
X81097329Y-91154170D01*
X81085032Y-91133653D01*
X81074804Y-91112029D01*
X81066746Y-91089507D01*
X81060934Y-91066303D01*
X81057424Y-91042642D01*
X81056250Y-91018750D01*
X81056250Y-90531250D01*
X81057424Y-90507358D01*
X81060934Y-90483697D01*
X81066746Y-90460493D01*
X81074804Y-90437971D01*
X81085032Y-90416347D01*
X81097329Y-90395830D01*
X81111579Y-90376617D01*
X81127643Y-90358893D01*
X81145367Y-90342829D01*
X81164580Y-90328579D01*
X81185097Y-90316282D01*
X81206721Y-90306054D01*
X81229243Y-90297996D01*
X81252447Y-90292184D01*
X81276108Y-90288674D01*
X81300000Y-90287500D01*
X82212500Y-90287500D01*
X82236392Y-90288674D01*
X82236392Y-90288674D01*
G37*
D17*
X81756250Y-90775000D03*
D16*
G36*
X90173892Y-90288674D02*
G01*
X90197553Y-90292184D01*
X90220757Y-90297996D01*
X90243279Y-90306054D01*
X90264903Y-90316282D01*
X90285420Y-90328579D01*
X90304633Y-90342829D01*
X90322357Y-90358893D01*
X90338421Y-90376617D01*
X90352671Y-90395830D01*
X90364968Y-90416347D01*
X90375196Y-90437971D01*
X90383254Y-90460493D01*
X90389066Y-90483697D01*
X90392576Y-90507358D01*
X90393750Y-90531250D01*
X90393750Y-91018750D01*
X90392576Y-91042642D01*
X90389066Y-91066303D01*
X90383254Y-91089507D01*
X90375196Y-91112029D01*
X90364968Y-91133653D01*
X90352671Y-91154170D01*
X90338421Y-91173383D01*
X90322357Y-91191107D01*
X90304633Y-91207171D01*
X90285420Y-91221421D01*
X90264903Y-91233718D01*
X90243279Y-91243946D01*
X90220757Y-91252004D01*
X90197553Y-91257816D01*
X90173892Y-91261326D01*
X90150000Y-91262500D01*
X89237500Y-91262500D01*
X89213608Y-91261326D01*
X89189947Y-91257816D01*
X89166743Y-91252004D01*
X89144221Y-91243946D01*
X89122597Y-91233718D01*
X89102080Y-91221421D01*
X89082867Y-91207171D01*
X89065143Y-91191107D01*
X89049079Y-91173383D01*
X89034829Y-91154170D01*
X89022532Y-91133653D01*
X89012304Y-91112029D01*
X89004246Y-91089507D01*
X88998434Y-91066303D01*
X88994924Y-91042642D01*
X88993750Y-91018750D01*
X88993750Y-90531250D01*
X88994924Y-90507358D01*
X88998434Y-90483697D01*
X89004246Y-90460493D01*
X89012304Y-90437971D01*
X89022532Y-90416347D01*
X89034829Y-90395830D01*
X89049079Y-90376617D01*
X89065143Y-90358893D01*
X89082867Y-90342829D01*
X89102080Y-90328579D01*
X89122597Y-90316282D01*
X89144221Y-90306054D01*
X89166743Y-90297996D01*
X89189947Y-90292184D01*
X89213608Y-90288674D01*
X89237500Y-90287500D01*
X90150000Y-90287500D01*
X90173892Y-90288674D01*
X90173892Y-90288674D01*
G37*
D17*
X89693750Y-90775000D03*
D16*
G36*
X90173892Y-88413674D02*
G01*
X90197553Y-88417184D01*
X90220757Y-88422996D01*
X90243279Y-88431054D01*
X90264903Y-88441282D01*
X90285420Y-88453579D01*
X90304633Y-88467829D01*
X90322357Y-88483893D01*
X90338421Y-88501617D01*
X90352671Y-88520830D01*
X90364968Y-88541347D01*
X90375196Y-88562971D01*
X90383254Y-88585493D01*
X90389066Y-88608697D01*
X90392576Y-88632358D01*
X90393750Y-88656250D01*
X90393750Y-89143750D01*
X90392576Y-89167642D01*
X90389066Y-89191303D01*
X90383254Y-89214507D01*
X90375196Y-89237029D01*
X90364968Y-89258653D01*
X90352671Y-89279170D01*
X90338421Y-89298383D01*
X90322357Y-89316107D01*
X90304633Y-89332171D01*
X90285420Y-89346421D01*
X90264903Y-89358718D01*
X90243279Y-89368946D01*
X90220757Y-89377004D01*
X90197553Y-89382816D01*
X90173892Y-89386326D01*
X90150000Y-89387500D01*
X89237500Y-89387500D01*
X89213608Y-89386326D01*
X89189947Y-89382816D01*
X89166743Y-89377004D01*
X89144221Y-89368946D01*
X89122597Y-89358718D01*
X89102080Y-89346421D01*
X89082867Y-89332171D01*
X89065143Y-89316107D01*
X89049079Y-89298383D01*
X89034829Y-89279170D01*
X89022532Y-89258653D01*
X89012304Y-89237029D01*
X89004246Y-89214507D01*
X88998434Y-89191303D01*
X88994924Y-89167642D01*
X88993750Y-89143750D01*
X88993750Y-88656250D01*
X88994924Y-88632358D01*
X88998434Y-88608697D01*
X89004246Y-88585493D01*
X89012304Y-88562971D01*
X89022532Y-88541347D01*
X89034829Y-88520830D01*
X89049079Y-88501617D01*
X89065143Y-88483893D01*
X89082867Y-88467829D01*
X89102080Y-88453579D01*
X89122597Y-88441282D01*
X89144221Y-88431054D01*
X89166743Y-88422996D01*
X89189947Y-88417184D01*
X89213608Y-88413674D01*
X89237500Y-88412500D01*
X90150000Y-88412500D01*
X90173892Y-88413674D01*
X90173892Y-88413674D01*
G37*
D17*
X89693750Y-88900000D03*
D22*
X80962500Y-107950000D03*
X90518750Y-110300000D03*
X78648524Y-106790948D03*
X78581250Y-101600000D03*
X78581250Y-96837500D03*
X83343750Y-93662500D03*
X94456250Y-100012500D03*
X84118750Y-95231250D03*
X119856250Y-100012500D03*
X109537500Y-100012500D03*
X104775000Y-100012500D03*
X96043750Y-103981250D03*
X110933013Y-118286801D03*
X109537500Y-123031250D03*
X101600000Y-115093750D03*
X99218750Y-104775000D03*
X159543750Y-103187500D03*
D23*
X87056250Y-90775000D02*
X86825000Y-90543750D01*
X89693750Y-90775000D02*
X87056250Y-90775000D01*
X86518750Y-95689750D02*
X86518750Y-96693750D01*
X86518750Y-91704000D02*
X86518750Y-95689750D01*
X86825000Y-91397750D02*
X86518750Y-91704000D01*
X86825000Y-90543750D02*
X86825000Y-91397750D01*
D24*
X84918750Y-90837500D02*
X84625000Y-90543750D01*
X86522098Y-88843750D02*
X86825000Y-88843750D01*
X84822098Y-90543750D02*
X86522098Y-88843750D01*
X84625000Y-90543750D02*
X84822098Y-90543750D01*
X89637500Y-88843750D02*
X89693750Y-88900000D01*
X86825000Y-88843750D02*
X89637500Y-88843750D01*
X84393750Y-90775000D02*
X84625000Y-90543750D01*
X80665740Y-89684490D02*
X80665740Y-88393530D01*
X81756250Y-90775000D02*
X80665740Y-89684490D01*
X86725000Y-88843750D02*
X86825000Y-88843750D01*
X85734499Y-87853249D02*
X86725000Y-88843750D01*
X81206021Y-87853249D02*
X85734499Y-87853249D01*
X80665740Y-88393530D02*
X81206021Y-87853249D01*
X84918750Y-93937500D02*
X84918750Y-96693750D01*
X81756250Y-90775000D02*
X84918750Y-93937500D01*
X79137487Y-92312513D02*
X78581250Y-92868750D01*
X80118763Y-91331237D02*
X79137487Y-92312513D01*
X81200013Y-91331237D02*
X80118763Y-91331237D01*
X81756250Y-90775000D02*
X81200013Y-91331237D01*
X78581250Y-92868750D02*
X75406250Y-92868750D01*
X75406250Y-92868750D02*
X75331250Y-92943750D01*
X69968750Y-95175000D02*
X75331250Y-95175000D01*
X69068750Y-93400000D02*
X69068750Y-94275000D01*
X75331250Y-92943750D02*
X75331250Y-95175000D01*
X76481250Y-103193750D02*
X80818750Y-103193750D01*
X75406250Y-104268750D02*
X76481250Y-103193750D01*
X76200000Y-95644000D02*
X76200000Y-96575000D01*
X75731000Y-95175000D02*
X76200000Y-95644000D01*
X75331250Y-95175000D02*
X75731000Y-95175000D01*
X83318750Y-109224750D02*
X83318750Y-108093750D01*
X83309249Y-109234251D02*
X83318750Y-109224750D01*
X77787500Y-107950000D02*
X79071751Y-109234251D01*
X79678249Y-109234251D02*
X79678249Y-111615501D01*
X79678249Y-109234251D02*
X83309249Y-109234251D01*
X79071751Y-109234251D02*
X79678249Y-109234251D01*
X79678249Y-111615501D02*
X79375000Y-111918750D01*
X79375000Y-111918750D02*
X62706250Y-111918750D01*
X62706250Y-111918750D02*
X62706250Y-104775000D01*
X74606250Y-104268750D02*
X75406250Y-104268750D01*
X74403010Y-104065510D02*
X74606250Y-104268750D01*
X66040290Y-104775000D02*
X66749780Y-104065510D01*
X62706250Y-104775000D02*
X66040290Y-104775000D01*
X89718750Y-107165848D02*
X89718750Y-108093750D01*
X89506151Y-106953249D02*
X89718750Y-107165848D01*
X83328251Y-106953249D02*
X89506151Y-106953249D01*
X83318750Y-106962750D02*
X83328251Y-106953249D01*
X83318750Y-108093750D02*
X83318750Y-106962750D01*
X94200000Y-98393750D02*
X96043750Y-96550000D01*
X92218750Y-98393750D02*
X94200000Y-98393750D01*
X91087750Y-98393750D02*
X92218750Y-98393750D01*
X85487750Y-98393750D02*
X91087750Y-98393750D01*
X84918750Y-97824750D02*
X85487750Y-98393750D01*
X84918750Y-96693750D02*
X84918750Y-97824750D01*
X89718750Y-111893750D02*
X89693750Y-111918750D01*
X89718750Y-108093750D02*
X89718750Y-111893750D01*
X90249987Y-112474987D02*
X89693750Y-111918750D01*
X90784260Y-113009260D02*
X90249987Y-112474987D01*
X92571990Y-113009260D02*
X90784260Y-113009260D01*
X93662500Y-111918750D02*
X92571990Y-113009260D01*
X68709499Y-101137401D02*
X69881588Y-102309490D01*
X68709499Y-95596751D02*
X68709499Y-101137401D01*
X72146990Y-102309490D02*
X73903010Y-104065510D01*
X69550000Y-94756250D02*
X68709499Y-95596751D01*
X69068750Y-94275000D02*
X69550000Y-94756250D01*
X69550000Y-94756250D02*
X69968750Y-95175000D01*
X66749780Y-104065510D02*
X73903010Y-104065510D01*
X69881588Y-102309490D02*
X72146990Y-102309490D01*
X73903010Y-104065510D02*
X74403010Y-104065510D01*
D23*
X84568750Y-88900000D02*
X84625000Y-88843750D01*
X81756250Y-88900000D02*
X84568750Y-88900000D01*
X85718750Y-95689750D02*
X85718750Y-96693750D01*
X85718750Y-94005632D02*
X85718750Y-95689750D01*
X83343750Y-91630632D02*
X85718750Y-94005632D01*
X83343750Y-90025000D02*
X83343750Y-91630632D01*
X84525000Y-88843750D02*
X83343750Y-90025000D01*
X84625000Y-88843750D02*
X84525000Y-88843750D01*
X75406250Y-102393750D02*
X80818750Y-102393750D01*
D24*
X78581250Y-94743750D02*
X80962500Y-94743750D01*
X64293750Y-105987500D02*
X68131250Y-109825000D01*
X81862750Y-108093750D02*
X82518750Y-108093750D01*
X80840990Y-107071990D02*
X81862750Y-108093750D01*
X75693750Y-108446770D02*
X77068530Y-107071990D01*
X75693750Y-109825000D02*
X75693750Y-108446770D01*
X68131250Y-109825000D02*
X75693750Y-109825000D01*
X75693750Y-109825000D02*
X77787500Y-109825000D01*
X96043750Y-98425000D02*
X95250000Y-99218750D01*
X95250000Y-99218750D02*
X95225000Y-99193750D01*
X90518750Y-110868750D02*
X91568750Y-111918750D01*
X80840990Y-107071990D02*
X80840990Y-107828490D01*
X80840990Y-107828490D02*
X80962500Y-107950000D01*
X90518750Y-108093750D02*
X90518750Y-110300000D01*
X90518750Y-110300000D02*
X90518750Y-110868750D01*
X80818750Y-105593750D02*
X79845722Y-105593750D01*
X79845722Y-105593750D02*
X78648524Y-106790948D01*
X80812500Y-101600000D02*
X80818750Y-101593750D01*
X78581250Y-101600000D02*
X80812500Y-101600000D01*
X78581250Y-101600000D02*
X78581250Y-96837500D01*
X83343750Y-93662500D02*
X84118750Y-94437500D01*
X94481250Y-99987500D02*
X94456250Y-100012500D01*
X94481250Y-99193750D02*
X94481250Y-99987500D01*
X94481250Y-99193750D02*
X92218750Y-99193750D01*
X95225000Y-99193750D02*
X94481250Y-99193750D01*
X84118750Y-94437500D02*
X84118750Y-95231250D01*
X84118750Y-95231250D02*
X84118750Y-96693750D01*
X80962500Y-94743750D02*
X80962500Y-96837500D01*
X80962500Y-96837500D02*
X78581250Y-96837500D01*
X78648524Y-107055004D02*
X78665510Y-107071990D01*
X78648524Y-106790948D02*
X78648524Y-107055004D01*
X77068530Y-107071990D02*
X78665510Y-107071990D01*
X78665510Y-107071990D02*
X80840990Y-107071990D01*
D23*
X117268750Y-95187500D02*
X119856250Y-95187500D01*
X114418750Y-92337500D02*
X117268750Y-95187500D01*
X120710250Y-98487500D02*
X119856250Y-98487500D01*
X121381151Y-99158401D02*
X120710250Y-98487500D01*
X132082783Y-99158401D02*
X121381151Y-99158401D01*
X132753684Y-98487500D02*
X132082783Y-99158401D01*
X138906250Y-98487500D02*
X132753684Y-98487500D01*
X139760250Y-98487500D02*
X138906250Y-98487500D01*
X140431151Y-99158401D02*
X139760250Y-98487500D01*
X151132783Y-99158401D02*
X140431151Y-99158401D01*
X151803684Y-98487500D02*
X151132783Y-99158401D01*
X157956250Y-98487500D02*
X151803684Y-98487500D01*
X158106250Y-98487500D02*
X157956250Y-98487500D01*
X158810250Y-99191500D02*
X158106250Y-98487500D01*
X175448250Y-99191500D02*
X158810250Y-99191500D01*
X176152250Y-98487500D02*
X175448250Y-99191500D01*
X177006250Y-98487500D02*
X176152250Y-98487500D01*
X177156250Y-98487500D02*
X177006250Y-98487500D01*
X177860250Y-99191500D02*
X177156250Y-98487500D01*
X195202250Y-99191500D02*
X177860250Y-99191500D01*
X195906250Y-98487500D02*
X195202250Y-99191500D01*
X196056250Y-98487500D02*
X195906250Y-98487500D01*
X119856250Y-98487500D02*
X119856250Y-100012500D01*
X109537500Y-100012500D02*
X104775000Y-100012500D01*
X92231250Y-103981250D02*
X92218750Y-103993750D01*
X96043750Y-103981250D02*
X92231250Y-103981250D01*
X136318750Y-95187500D02*
X138906250Y-95187500D01*
X133468750Y-92337500D02*
X136318750Y-95187500D01*
X155368750Y-95187500D02*
X157956250Y-95187500D01*
X152518750Y-92337500D02*
X155368750Y-95187500D01*
X174418750Y-95187500D02*
X177006250Y-95187500D01*
X171568750Y-92337500D02*
X174418750Y-95187500D01*
X193468750Y-95187500D02*
X196056250Y-95187500D01*
X190618750Y-92337500D02*
X193468750Y-95187500D01*
X117268750Y-114237500D02*
X119856250Y-114237500D01*
X114418750Y-111387500D02*
X117268750Y-114237500D01*
X177860250Y-117537500D02*
X177006250Y-117537500D01*
X178531151Y-118208401D02*
X177860250Y-117537500D01*
X189232783Y-118208401D02*
X178531151Y-118208401D01*
X189903684Y-117537500D02*
X189232783Y-118208401D01*
X196056250Y-117537500D02*
X189903684Y-117537500D01*
X139760250Y-117537500D02*
X138906250Y-117537500D01*
X140431151Y-118208401D02*
X139760250Y-117537500D01*
X156431349Y-118208401D02*
X140431151Y-118208401D01*
X157102250Y-117537500D02*
X156431349Y-118208401D01*
X157956250Y-117537500D02*
X157102250Y-117537500D01*
X158810250Y-117537500D02*
X157956250Y-117537500D01*
X159481151Y-118208401D02*
X158810250Y-117537500D01*
X170182783Y-118208401D02*
X159481151Y-118208401D01*
X170853684Y-117537500D02*
X170182783Y-118208401D01*
X177006250Y-117537500D02*
X170853684Y-117537500D01*
X120006250Y-117537500D02*
X119856250Y-117537500D01*
X120710250Y-118241500D02*
X120006250Y-117537500D01*
X138052250Y-118241500D02*
X120710250Y-118241500D01*
X138756250Y-117537500D02*
X138052250Y-118241500D01*
X138906250Y-117537500D02*
X138756250Y-117537500D01*
X119706250Y-117537500D02*
X119856250Y-117537500D01*
X119002250Y-118241500D02*
X119706250Y-117537500D01*
X110951624Y-118241500D02*
X119002250Y-118241500D01*
X110951624Y-118241500D02*
X110951624Y-118268190D01*
X110951624Y-118268190D02*
X110933013Y-118286801D01*
X109537500Y-123031250D02*
X101600000Y-115093750D01*
X97503874Y-104793750D02*
X92218750Y-104793750D01*
X99218750Y-104775000D02*
X97522624Y-104775000D01*
X97522624Y-104775000D02*
X97503874Y-104793750D01*
X136318750Y-114237500D02*
X138906250Y-114237500D01*
X133468750Y-111387500D02*
X136318750Y-114237500D01*
X155368750Y-114237500D02*
X157956250Y-114237500D01*
X152518750Y-111387500D02*
X155368750Y-114237500D01*
X174418750Y-114237500D02*
X177006250Y-114237500D01*
X171568750Y-111387500D02*
X174418750Y-114237500D01*
X193468750Y-114237500D02*
X196056250Y-114237500D01*
X190618750Y-111387500D02*
X193468750Y-114237500D01*
X117206250Y-133225000D02*
X119856250Y-133225000D01*
X114418750Y-130437500D02*
X117206250Y-133225000D01*
X120710250Y-136525000D02*
X119856250Y-136525000D01*
X121443651Y-137258401D02*
X120710250Y-136525000D01*
X132082783Y-137258401D02*
X121443651Y-137258401D01*
X132753684Y-136587500D02*
X132082783Y-137258401D01*
X138906250Y-136587500D02*
X132753684Y-136587500D01*
X139760250Y-136587500D02*
X138906250Y-136587500D01*
X140431151Y-137258401D02*
X139760250Y-136587500D01*
X156493849Y-137258401D02*
X140431151Y-137258401D01*
X157102250Y-136650000D02*
X156493849Y-137258401D01*
X157956250Y-136650000D02*
X157102250Y-136650000D01*
X158810250Y-136650000D02*
X157956250Y-136650000D01*
X159451750Y-137291500D02*
X158810250Y-136650000D01*
X176152250Y-137291500D02*
X159451750Y-137291500D01*
X176856250Y-136587500D02*
X176152250Y-137291500D01*
X177006250Y-136587500D02*
X176856250Y-136587500D01*
X177860250Y-136587500D02*
X177006250Y-136587500D01*
X178531151Y-137258401D02*
X177860250Y-136587500D01*
X194531349Y-137258401D02*
X178531151Y-137258401D01*
X195202250Y-136587500D02*
X194531349Y-137258401D01*
X196056250Y-136587500D02*
X195202250Y-136587500D01*
X119856250Y-135821000D02*
X119856250Y-136525000D01*
X120783251Y-134893999D02*
X119856250Y-135821000D01*
X120783251Y-132513399D02*
X120783251Y-134893999D01*
X93863602Y-105593750D02*
X120783251Y-132513399D01*
X92218750Y-105593750D02*
X93863602Y-105593750D01*
X136318750Y-133287500D02*
X138906250Y-133287500D01*
X133468750Y-130437500D02*
X136318750Y-133287500D01*
X155431250Y-133350000D02*
X157956250Y-133350000D01*
X152518750Y-130437500D02*
X155431250Y-133350000D01*
X174418750Y-133287500D02*
X177006250Y-133287500D01*
X171568750Y-130437500D02*
X174418750Y-133287500D01*
X193468750Y-133287500D02*
X196056250Y-133287500D01*
X190618750Y-130437500D02*
X193468750Y-133287500D01*
X117268750Y-152337500D02*
X119856250Y-152337500D01*
X114418750Y-149487500D02*
X117268750Y-152337500D01*
X177860250Y-155637500D02*
X177006250Y-155637500D01*
X178531151Y-156308401D02*
X177860250Y-155637500D01*
X189232783Y-156308401D02*
X178531151Y-156308401D01*
X189903684Y-155637500D02*
X189232783Y-156308401D01*
X196056250Y-155637500D02*
X189903684Y-155637500D01*
X158810250Y-155637500D02*
X157956250Y-155637500D01*
X159481151Y-156308401D02*
X158810250Y-155637500D01*
X175481349Y-156308401D02*
X159481151Y-156308401D01*
X176152250Y-155637500D02*
X175481349Y-156308401D01*
X177006250Y-155637500D02*
X176152250Y-155637500D01*
X139056250Y-155637500D02*
X138906250Y-155637500D01*
X139760250Y-156341500D02*
X139056250Y-155637500D01*
X156398250Y-156341500D02*
X139760250Y-156341500D01*
X157102250Y-155637500D02*
X156398250Y-156341500D01*
X157956250Y-155637500D02*
X157102250Y-155637500D01*
X120006250Y-155637500D02*
X119856250Y-155637500D01*
X120710250Y-156341500D02*
X120006250Y-155637500D01*
X138052250Y-156341500D02*
X120710250Y-156341500D01*
X138756250Y-155637500D02*
X138052250Y-156341500D01*
X138906250Y-155637500D02*
X138756250Y-155637500D01*
X119002250Y-155637500D02*
X119856250Y-155637500D01*
X117477250Y-157162500D02*
X119002250Y-155637500D01*
X86518750Y-157162500D02*
X117477250Y-157162500D01*
X86518750Y-108093750D02*
X86518750Y-157162500D01*
X136318750Y-152337500D02*
X138906250Y-152337500D01*
X133468750Y-149487500D02*
X136318750Y-152337500D01*
X155368750Y-152337500D02*
X157956250Y-152337500D01*
X152518750Y-149487500D02*
X155368750Y-152337500D01*
X174418750Y-152337500D02*
X177006250Y-152337500D01*
X171568750Y-149487500D02*
X174418750Y-152337500D01*
X193468750Y-152337500D02*
X196056250Y-152337500D01*
X190618750Y-149487500D02*
X193468750Y-152337500D01*
X65868750Y-101612500D02*
X64293750Y-103187500D01*
X65868750Y-93400000D02*
X65868750Y-101612500D01*
X93222750Y-99993750D02*
X92218750Y-99993750D01*
X93361538Y-99993750D02*
X93222750Y-99993750D01*
X94107289Y-100739501D02*
X93361538Y-99993750D01*
X95236427Y-100739501D02*
X94107289Y-100739501D01*
X101678428Y-94297500D02*
X95236427Y-100739501D01*
X108108750Y-94297500D02*
X101678428Y-94297500D01*
X93222750Y-100793750D02*
X92218750Y-100793750D01*
X93519471Y-100793750D02*
X93222750Y-100793750D01*
X93919232Y-101193511D02*
X93519471Y-100793750D01*
X115488842Y-101193510D02*
X93919232Y-101193511D01*
X122384852Y-94297500D02*
X115488842Y-101193510D01*
X127158750Y-94297500D02*
X122384852Y-94297500D01*
X194534832Y-101647520D02*
X93276520Y-101647520D01*
X194167658Y-98737490D02*
X195194649Y-97710499D01*
X190439651Y-97951533D02*
X191225608Y-98737490D01*
X190439651Y-95723467D02*
X190439651Y-97951533D01*
X196917851Y-97710499D02*
X196983251Y-97775899D01*
X189232783Y-94516599D02*
X190439651Y-95723467D01*
X187004717Y-94516599D02*
X189232783Y-94516599D01*
X185797849Y-95723467D02*
X187004717Y-94516599D01*
X185797849Y-97951533D02*
X185797849Y-95723467D01*
X195194649Y-97710499D02*
X196917851Y-97710499D01*
X177867851Y-97710499D02*
X178894842Y-98737490D01*
X176144649Y-97710499D02*
X177867851Y-97710499D01*
X93276520Y-101647520D02*
X93222750Y-101593750D01*
X196983251Y-99199101D02*
X194534832Y-101647520D01*
X172175608Y-98737490D02*
X175117658Y-98737490D01*
X178894842Y-98737490D02*
X185011892Y-98737490D01*
X171389651Y-97951533D02*
X172175608Y-98737490D01*
X175117658Y-98737490D02*
X176144649Y-97710499D01*
X171389651Y-95723467D02*
X171389651Y-97951533D01*
X93222750Y-101593750D02*
X92218750Y-101593750D01*
X170182783Y-94516599D02*
X171389651Y-95723467D01*
X191225608Y-98737490D02*
X194167658Y-98737490D01*
X167954717Y-94516599D02*
X170182783Y-94516599D01*
X166747849Y-95723467D02*
X167954717Y-94516599D01*
X185011892Y-98737490D02*
X185797849Y-97951533D01*
X166747849Y-97951533D02*
X166747849Y-95723467D01*
X165961892Y-98737490D02*
X166747849Y-97951533D01*
X163144842Y-98737490D02*
X165961892Y-98737490D01*
X196983251Y-97775899D02*
X196983251Y-99199101D01*
X154712851Y-90305499D02*
X163144842Y-98737490D01*
X150200751Y-90305499D02*
X154712851Y-90305499D01*
X146208750Y-94297500D02*
X150200751Y-90305499D01*
X158750000Y-102393750D02*
X92218750Y-102393750D01*
X159543750Y-103187500D02*
X158750000Y-102393750D01*
X158474038Y-103193750D02*
X159261538Y-103981250D01*
X92218750Y-103193750D02*
X158474038Y-103193750D01*
X159261538Y-103981250D02*
X181768750Y-103981250D01*
X181768750Y-108037500D02*
X185618750Y-111887500D01*
X181768750Y-103981250D02*
X181768750Y-108037500D01*
X83318750Y-95225000D02*
X83318750Y-96693750D01*
X80962500Y-92868750D02*
X83318750Y-95225000D01*
X77888582Y-93929240D02*
X76993750Y-94824072D01*
X80962500Y-92868750D02*
X79902010Y-93929240D01*
X79902010Y-93929240D02*
X77888582Y-93929240D01*
X77427001Y-97386601D02*
X77182352Y-97631250D01*
X77427001Y-95096679D02*
X77427001Y-97386601D01*
X76993750Y-94824072D02*
X77154394Y-94824072D01*
X77154394Y-94824072D02*
X77427001Y-95096679D01*
X77182352Y-97631250D02*
X70643750Y-97631250D01*
X70000000Y-98275000D02*
X70000000Y-100275000D01*
X70643750Y-97631250D02*
X70000000Y-98275000D01*
X67468750Y-100806250D02*
X69850000Y-103187500D01*
X67468750Y-93400000D02*
X67468750Y-100806250D01*
X70406237Y-105618737D02*
X69850000Y-105062500D01*
X78189763Y-105618737D02*
X70406237Y-105618737D01*
X79814750Y-103993750D02*
X78189763Y-105618737D01*
X80818750Y-103993750D02*
X79814750Y-103993750D01*
X66668750Y-102387500D02*
X67468750Y-103187500D01*
X66668750Y-93400000D02*
X66668750Y-102387500D01*
X68024987Y-105618737D02*
X67468750Y-105062500D01*
X68478997Y-106072747D02*
X68024987Y-105618737D01*
X78535753Y-106072747D02*
X68478997Y-106072747D01*
X79814750Y-104793750D02*
X78535753Y-106072747D01*
X80818750Y-104793750D02*
X79814750Y-104793750D01*
X92693750Y-106393750D02*
X92218750Y-106393750D01*
X95537500Y-109237500D02*
X92693750Y-106393750D01*
X95537500Y-111918750D02*
X95537500Y-109237500D01*
X63818750Y-88900000D02*
X71118750Y-88900000D01*
X71118750Y-88900000D02*
X71118750Y-93400000D01*
X63818750Y-93400000D02*
X63818750Y-88900000D01*
G36*
X84992565Y-97894935D02*
G01*
X85089256Y-97974287D01*
X85112417Y-97986667D01*
X85204500Y-98078750D01*
X85318087Y-98069204D01*
X85319268Y-98069562D01*
X85443750Y-98081822D01*
X85993750Y-98081822D01*
X86118232Y-98069562D01*
X86118750Y-98069405D01*
X86119268Y-98069562D01*
X86243750Y-98081822D01*
X86793750Y-98081822D01*
X86918232Y-98069562D01*
X86918750Y-98069405D01*
X86919268Y-98069562D01*
X87043750Y-98081822D01*
X87593750Y-98081822D01*
X87718232Y-98069562D01*
X87718750Y-98069405D01*
X87719268Y-98069562D01*
X87843750Y-98081822D01*
X88393750Y-98081822D01*
X88518232Y-98069562D01*
X88518750Y-98069405D01*
X88519268Y-98069562D01*
X88643750Y-98081822D01*
X89193750Y-98081822D01*
X89318232Y-98069562D01*
X89318750Y-98069405D01*
X89319268Y-98069562D01*
X89443750Y-98081822D01*
X89993750Y-98081822D01*
X90118232Y-98069562D01*
X90118750Y-98069405D01*
X90119268Y-98069562D01*
X90243750Y-98081822D01*
X90793750Y-98081822D01*
X90836302Y-98077631D01*
X90833750Y-98108000D01*
X90992500Y-98266750D01*
X91154250Y-98266750D01*
X91154250Y-98366835D01*
X91114256Y-98388213D01*
X91017565Y-98467565D01*
X90938213Y-98564256D01*
X90925833Y-98587417D01*
X90833750Y-98679500D01*
X90843296Y-98793087D01*
X90842938Y-98794268D01*
X90830678Y-98918750D01*
X90830678Y-99468750D01*
X90842938Y-99593232D01*
X90843095Y-99593750D01*
X90842938Y-99594268D01*
X90830678Y-99718750D01*
X90830678Y-100268750D01*
X90842938Y-100393232D01*
X90843095Y-100393750D01*
X90842938Y-100394268D01*
X90830678Y-100518750D01*
X90830678Y-101068750D01*
X90842938Y-101193232D01*
X90843095Y-101193750D01*
X90842938Y-101194268D01*
X90830678Y-101318750D01*
X90830678Y-101868750D01*
X90842938Y-101993232D01*
X90843095Y-101993750D01*
X90842938Y-101994268D01*
X90830678Y-102118750D01*
X90830678Y-102668750D01*
X90842938Y-102793232D01*
X90843095Y-102793750D01*
X90842938Y-102794268D01*
X90830678Y-102918750D01*
X90830678Y-103468750D01*
X90842938Y-103593232D01*
X90843095Y-103593750D01*
X90842938Y-103594268D01*
X90830678Y-103718750D01*
X90830678Y-104268750D01*
X90842938Y-104393232D01*
X90843095Y-104393750D01*
X90842938Y-104394268D01*
X90830678Y-104518750D01*
X90830678Y-105068750D01*
X90842938Y-105193232D01*
X90843095Y-105193750D01*
X90842938Y-105194268D01*
X90830678Y-105318750D01*
X90830678Y-105868750D01*
X90842938Y-105993232D01*
X90843095Y-105993750D01*
X90842938Y-105994268D01*
X90830678Y-106118750D01*
X90830678Y-106668750D01*
X90834712Y-106709712D01*
X90793750Y-106705678D01*
X90243750Y-106705678D01*
X90119268Y-106717938D01*
X90118087Y-106718296D01*
X90004500Y-106708750D01*
X89912417Y-106800833D01*
X89889256Y-106813213D01*
X89792565Y-106892565D01*
X89718750Y-106982509D01*
X89644935Y-106892565D01*
X89548244Y-106813213D01*
X89525083Y-106800833D01*
X89433000Y-106708750D01*
X89319413Y-106718296D01*
X89318232Y-106717938D01*
X89193750Y-106705678D01*
X88643750Y-106705678D01*
X88519268Y-106717938D01*
X88518750Y-106718095D01*
X88518232Y-106717938D01*
X88393750Y-106705678D01*
X87843750Y-106705678D01*
X87719268Y-106717938D01*
X87718750Y-106718095D01*
X87718232Y-106717938D01*
X87593750Y-106705678D01*
X87043750Y-106705678D01*
X86919268Y-106717938D01*
X86918750Y-106718095D01*
X86918232Y-106717938D01*
X86793750Y-106705678D01*
X86243750Y-106705678D01*
X86119268Y-106717938D01*
X86118750Y-106718095D01*
X86118232Y-106717938D01*
X85993750Y-106705678D01*
X85443750Y-106705678D01*
X85319268Y-106717938D01*
X85318750Y-106718095D01*
X85318232Y-106717938D01*
X85193750Y-106705678D01*
X84643750Y-106705678D01*
X84519268Y-106717938D01*
X84518750Y-106718095D01*
X84518232Y-106717938D01*
X84393750Y-106705678D01*
X83843750Y-106705678D01*
X83719268Y-106717938D01*
X83718087Y-106718296D01*
X83604500Y-106708750D01*
X83512417Y-106800833D01*
X83489256Y-106813213D01*
X83392565Y-106892565D01*
X83318750Y-106982509D01*
X83244935Y-106892565D01*
X83148244Y-106813213D01*
X83125083Y-106800833D01*
X83033000Y-106708750D01*
X82919413Y-106718296D01*
X82918232Y-106717938D01*
X82793750Y-106705678D01*
X82243750Y-106705678D01*
X82202788Y-106709712D01*
X82206822Y-106668750D01*
X82206822Y-106118750D01*
X82194562Y-105994268D01*
X82194405Y-105993750D01*
X82194562Y-105993232D01*
X82206822Y-105868750D01*
X82206822Y-105318750D01*
X82194562Y-105194268D01*
X82194405Y-105193750D01*
X82194562Y-105193232D01*
X82206822Y-105068750D01*
X82206822Y-104518750D01*
X82194562Y-104394268D01*
X82194405Y-104393750D01*
X82194562Y-104393232D01*
X82206822Y-104268750D01*
X82206822Y-103718750D01*
X82194562Y-103594268D01*
X82194204Y-103593087D01*
X82203750Y-103479500D01*
X82111667Y-103387417D01*
X82099287Y-103364256D01*
X82019935Y-103267565D01*
X81929991Y-103193750D01*
X82019935Y-103119935D01*
X82099287Y-103023244D01*
X82111667Y-103000083D01*
X82203750Y-102908000D01*
X82194204Y-102794413D01*
X82194562Y-102793232D01*
X82206822Y-102668750D01*
X82206822Y-102118750D01*
X82194562Y-101994268D01*
X82194405Y-101993750D01*
X82194562Y-101993232D01*
X82206822Y-101868750D01*
X82206822Y-101318750D01*
X82194562Y-101194268D01*
X82194405Y-101193750D01*
X82194562Y-101193232D01*
X82206822Y-101068750D01*
X82206822Y-100518750D01*
X82194562Y-100394268D01*
X82194405Y-100393750D01*
X82194562Y-100393232D01*
X82206822Y-100268750D01*
X82206822Y-99718750D01*
X82194562Y-99594268D01*
X82194405Y-99593750D01*
X82194562Y-99593232D01*
X82206822Y-99468750D01*
X82206822Y-98918750D01*
X82194562Y-98794268D01*
X82194405Y-98793750D01*
X82194562Y-98793232D01*
X82206822Y-98668750D01*
X82206822Y-98118750D01*
X82202788Y-98077788D01*
X82243750Y-98081822D01*
X82793750Y-98081822D01*
X82918232Y-98069562D01*
X82918750Y-98069405D01*
X82919268Y-98069562D01*
X83043750Y-98081822D01*
X83593750Y-98081822D01*
X83718232Y-98069562D01*
X83718750Y-98069405D01*
X83719268Y-98069562D01*
X83843750Y-98081822D01*
X84393750Y-98081822D01*
X84518232Y-98069562D01*
X84519413Y-98069204D01*
X84633000Y-98078750D01*
X84725083Y-97986667D01*
X84748244Y-97974287D01*
X84844935Y-97894935D01*
X84918750Y-97804991D01*
X84992565Y-97894935D01*
X84992565Y-97894935D01*
G37*
X84992565Y-97894935D02*
X85089256Y-97974287D01*
X85112417Y-97986667D01*
X85204500Y-98078750D01*
X85318087Y-98069204D01*
X85319268Y-98069562D01*
X85443750Y-98081822D01*
X85993750Y-98081822D01*
X86118232Y-98069562D01*
X86118750Y-98069405D01*
X86119268Y-98069562D01*
X86243750Y-98081822D01*
X86793750Y-98081822D01*
X86918232Y-98069562D01*
X86918750Y-98069405D01*
X86919268Y-98069562D01*
X87043750Y-98081822D01*
X87593750Y-98081822D01*
X87718232Y-98069562D01*
X87718750Y-98069405D01*
X87719268Y-98069562D01*
X87843750Y-98081822D01*
X88393750Y-98081822D01*
X88518232Y-98069562D01*
X88518750Y-98069405D01*
X88519268Y-98069562D01*
X88643750Y-98081822D01*
X89193750Y-98081822D01*
X89318232Y-98069562D01*
X89318750Y-98069405D01*
X89319268Y-98069562D01*
X89443750Y-98081822D01*
X89993750Y-98081822D01*
X90118232Y-98069562D01*
X90118750Y-98069405D01*
X90119268Y-98069562D01*
X90243750Y-98081822D01*
X90793750Y-98081822D01*
X90836302Y-98077631D01*
X90833750Y-98108000D01*
X90992500Y-98266750D01*
X91154250Y-98266750D01*
X91154250Y-98366835D01*
X91114256Y-98388213D01*
X91017565Y-98467565D01*
X90938213Y-98564256D01*
X90925833Y-98587417D01*
X90833750Y-98679500D01*
X90843296Y-98793087D01*
X90842938Y-98794268D01*
X90830678Y-98918750D01*
X90830678Y-99468750D01*
X90842938Y-99593232D01*
X90843095Y-99593750D01*
X90842938Y-99594268D01*
X90830678Y-99718750D01*
X90830678Y-100268750D01*
X90842938Y-100393232D01*
X90843095Y-100393750D01*
X90842938Y-100394268D01*
X90830678Y-100518750D01*
X90830678Y-101068750D01*
X90842938Y-101193232D01*
X90843095Y-101193750D01*
X90842938Y-101194268D01*
X90830678Y-101318750D01*
X90830678Y-101868750D01*
X90842938Y-101993232D01*
X90843095Y-101993750D01*
X90842938Y-101994268D01*
X90830678Y-102118750D01*
X90830678Y-102668750D01*
X90842938Y-102793232D01*
X90843095Y-102793750D01*
X90842938Y-102794268D01*
X90830678Y-102918750D01*
X90830678Y-103468750D01*
X90842938Y-103593232D01*
X90843095Y-103593750D01*
X90842938Y-103594268D01*
X90830678Y-103718750D01*
X90830678Y-104268750D01*
X90842938Y-104393232D01*
X90843095Y-104393750D01*
X90842938Y-104394268D01*
X90830678Y-104518750D01*
X90830678Y-105068750D01*
X90842938Y-105193232D01*
X90843095Y-105193750D01*
X90842938Y-105194268D01*
X90830678Y-105318750D01*
X90830678Y-105868750D01*
X90842938Y-105993232D01*
X90843095Y-105993750D01*
X90842938Y-105994268D01*
X90830678Y-106118750D01*
X90830678Y-106668750D01*
X90834712Y-106709712D01*
X90793750Y-106705678D01*
X90243750Y-106705678D01*
X90119268Y-106717938D01*
X90118087Y-106718296D01*
X90004500Y-106708750D01*
X89912417Y-106800833D01*
X89889256Y-106813213D01*
X89792565Y-106892565D01*
X89718750Y-106982509D01*
X89644935Y-106892565D01*
X89548244Y-106813213D01*
X89525083Y-106800833D01*
X89433000Y-106708750D01*
X89319413Y-106718296D01*
X89318232Y-106717938D01*
X89193750Y-106705678D01*
X88643750Y-106705678D01*
X88519268Y-106717938D01*
X88518750Y-106718095D01*
X88518232Y-106717938D01*
X88393750Y-106705678D01*
X87843750Y-106705678D01*
X87719268Y-106717938D01*
X87718750Y-106718095D01*
X87718232Y-106717938D01*
X87593750Y-106705678D01*
X87043750Y-106705678D01*
X86919268Y-106717938D01*
X86918750Y-106718095D01*
X86918232Y-106717938D01*
X86793750Y-106705678D01*
X86243750Y-106705678D01*
X86119268Y-106717938D01*
X86118750Y-106718095D01*
X86118232Y-106717938D01*
X85993750Y-106705678D01*
X85443750Y-106705678D01*
X85319268Y-106717938D01*
X85318750Y-106718095D01*
X85318232Y-106717938D01*
X85193750Y-106705678D01*
X84643750Y-106705678D01*
X84519268Y-106717938D01*
X84518750Y-106718095D01*
X84518232Y-106717938D01*
X84393750Y-106705678D01*
X83843750Y-106705678D01*
X83719268Y-106717938D01*
X83718087Y-106718296D01*
X83604500Y-106708750D01*
X83512417Y-106800833D01*
X83489256Y-106813213D01*
X83392565Y-106892565D01*
X83318750Y-106982509D01*
X83244935Y-106892565D01*
X83148244Y-106813213D01*
X83125083Y-106800833D01*
X83033000Y-106708750D01*
X82919413Y-106718296D01*
X82918232Y-106717938D01*
X82793750Y-106705678D01*
X82243750Y-106705678D01*
X82202788Y-106709712D01*
X82206822Y-106668750D01*
X82206822Y-106118750D01*
X82194562Y-105994268D01*
X82194405Y-105993750D01*
X82194562Y-105993232D01*
X82206822Y-105868750D01*
X82206822Y-105318750D01*
X82194562Y-105194268D01*
X82194405Y-105193750D01*
X82194562Y-105193232D01*
X82206822Y-105068750D01*
X82206822Y-104518750D01*
X82194562Y-104394268D01*
X82194405Y-104393750D01*
X82194562Y-104393232D01*
X82206822Y-104268750D01*
X82206822Y-103718750D01*
X82194562Y-103594268D01*
X82194204Y-103593087D01*
X82203750Y-103479500D01*
X82111667Y-103387417D01*
X82099287Y-103364256D01*
X82019935Y-103267565D01*
X81929991Y-103193750D01*
X82019935Y-103119935D01*
X82099287Y-103023244D01*
X82111667Y-103000083D01*
X82203750Y-102908000D01*
X82194204Y-102794413D01*
X82194562Y-102793232D01*
X82206822Y-102668750D01*
X82206822Y-102118750D01*
X82194562Y-101994268D01*
X82194405Y-101993750D01*
X82194562Y-101993232D01*
X82206822Y-101868750D01*
X82206822Y-101318750D01*
X82194562Y-101194268D01*
X82194405Y-101193750D01*
X82194562Y-101193232D01*
X82206822Y-101068750D01*
X82206822Y-100518750D01*
X82194562Y-100394268D01*
X82194405Y-100393750D01*
X82194562Y-100393232D01*
X82206822Y-100268750D01*
X82206822Y-99718750D01*
X82194562Y-99594268D01*
X82194405Y-99593750D01*
X82194562Y-99593232D01*
X82206822Y-99468750D01*
X82206822Y-98918750D01*
X82194562Y-98794268D01*
X82194405Y-98793750D01*
X82194562Y-98793232D01*
X82206822Y-98668750D01*
X82206822Y-98118750D01*
X82202788Y-98077788D01*
X82243750Y-98081822D01*
X82793750Y-98081822D01*
X82918232Y-98069562D01*
X82918750Y-98069405D01*
X82919268Y-98069562D01*
X83043750Y-98081822D01*
X83593750Y-98081822D01*
X83718232Y-98069562D01*
X83718750Y-98069405D01*
X83719268Y-98069562D01*
X83843750Y-98081822D01*
X84393750Y-98081822D01*
X84518232Y-98069562D01*
X84519413Y-98069204D01*
X84633000Y-98078750D01*
X84725083Y-97986667D01*
X84748244Y-97974287D01*
X84844935Y-97894935D01*
X84918750Y-97804991D01*
X84992565Y-97894935D01*
G36*
X88463213Y-88058006D02*
G01*
X88404248Y-88168320D01*
X88367938Y-88288018D01*
X88355678Y-88412500D01*
X88358750Y-88614250D01*
X88517500Y-88773000D01*
X89566750Y-88773000D01*
X89566750Y-88753000D01*
X89820750Y-88753000D01*
X89820750Y-88773000D01*
X90870000Y-88773000D01*
X91028750Y-88614250D01*
X91031822Y-88412500D01*
X91019562Y-88288018D01*
X90983252Y-88168320D01*
X90924287Y-88058006D01*
X90854114Y-87972500D01*
X92741750Y-87972500D01*
X92741750Y-95123000D01*
X87280750Y-95123000D01*
X87280750Y-92019630D01*
X87337346Y-91963034D01*
X87366422Y-91939172D01*
X87461645Y-91823142D01*
X87483731Y-91781822D01*
X87525000Y-91781822D01*
X87649482Y-91769562D01*
X87769180Y-91733252D01*
X87879494Y-91674287D01*
X87976185Y-91594935D01*
X88023731Y-91537000D01*
X88527547Y-91537000D01*
X88613958Y-91642292D01*
X88747586Y-91751958D01*
X88900041Y-91833447D01*
X89065465Y-91883628D01*
X89237500Y-91900572D01*
X90150000Y-91900572D01*
X90322035Y-91883628D01*
X90487459Y-91833447D01*
X90639914Y-91751958D01*
X90773542Y-91642292D01*
X90883208Y-91508664D01*
X90964697Y-91356209D01*
X91014878Y-91190785D01*
X91031822Y-91018750D01*
X91031822Y-90531250D01*
X91014878Y-90359215D01*
X90964697Y-90193791D01*
X90883208Y-90041336D01*
X90773542Y-89907708D01*
X90767186Y-89902492D01*
X90844935Y-89838685D01*
X90924287Y-89741994D01*
X90983252Y-89631680D01*
X91019562Y-89511982D01*
X91031822Y-89387500D01*
X91028750Y-89185750D01*
X90870000Y-89027000D01*
X89820750Y-89027000D01*
X89820750Y-89047000D01*
X89566750Y-89047000D01*
X89566750Y-89027000D01*
X88517500Y-89027000D01*
X88358750Y-89185750D01*
X88355678Y-89387500D01*
X88367938Y-89511982D01*
X88404248Y-89631680D01*
X88463213Y-89741994D01*
X88542565Y-89838685D01*
X88620314Y-89902492D01*
X88613958Y-89907708D01*
X88527547Y-90013000D01*
X88163072Y-90013000D01*
X88163072Y-89943750D01*
X88150812Y-89819268D01*
X88114502Y-89699570D01*
X88111391Y-89693750D01*
X88114502Y-89687930D01*
X88150812Y-89568232D01*
X88163072Y-89443750D01*
X88160000Y-89129500D01*
X88001250Y-88970750D01*
X86952000Y-88970750D01*
X86952000Y-88990750D01*
X86698000Y-88990750D01*
X86698000Y-88970750D01*
X86678000Y-88970750D01*
X86678000Y-88716750D01*
X86698000Y-88716750D01*
X86698000Y-88696750D01*
X86952000Y-88696750D01*
X86952000Y-88716750D01*
X88001250Y-88716750D01*
X88160000Y-88558000D01*
X88163072Y-88243750D01*
X88150812Y-88119268D01*
X88114502Y-87999570D01*
X88100033Y-87972500D01*
X88533386Y-87972500D01*
X88463213Y-88058006D01*
X88463213Y-88058006D01*
G37*
X88463213Y-88058006D02*
X88404248Y-88168320D01*
X88367938Y-88288018D01*
X88355678Y-88412500D01*
X88358750Y-88614250D01*
X88517500Y-88773000D01*
X89566750Y-88773000D01*
X89566750Y-88753000D01*
X89820750Y-88753000D01*
X89820750Y-88773000D01*
X90870000Y-88773000D01*
X91028750Y-88614250D01*
X91031822Y-88412500D01*
X91019562Y-88288018D01*
X90983252Y-88168320D01*
X90924287Y-88058006D01*
X90854114Y-87972500D01*
X92741750Y-87972500D01*
X92741750Y-95123000D01*
X87280750Y-95123000D01*
X87280750Y-92019630D01*
X87337346Y-91963034D01*
X87366422Y-91939172D01*
X87461645Y-91823142D01*
X87483731Y-91781822D01*
X87525000Y-91781822D01*
X87649482Y-91769562D01*
X87769180Y-91733252D01*
X87879494Y-91674287D01*
X87976185Y-91594935D01*
X88023731Y-91537000D01*
X88527547Y-91537000D01*
X88613958Y-91642292D01*
X88747586Y-91751958D01*
X88900041Y-91833447D01*
X89065465Y-91883628D01*
X89237500Y-91900572D01*
X90150000Y-91900572D01*
X90322035Y-91883628D01*
X90487459Y-91833447D01*
X90639914Y-91751958D01*
X90773542Y-91642292D01*
X90883208Y-91508664D01*
X90964697Y-91356209D01*
X91014878Y-91190785D01*
X91031822Y-91018750D01*
X91031822Y-90531250D01*
X91014878Y-90359215D01*
X90964697Y-90193791D01*
X90883208Y-90041336D01*
X90773542Y-89907708D01*
X90767186Y-89902492D01*
X90844935Y-89838685D01*
X90924287Y-89741994D01*
X90983252Y-89631680D01*
X91019562Y-89511982D01*
X91031822Y-89387500D01*
X91028750Y-89185750D01*
X90870000Y-89027000D01*
X89820750Y-89027000D01*
X89820750Y-89047000D01*
X89566750Y-89047000D01*
X89566750Y-89027000D01*
X88517500Y-89027000D01*
X88358750Y-89185750D01*
X88355678Y-89387500D01*
X88367938Y-89511982D01*
X88404248Y-89631680D01*
X88463213Y-89741994D01*
X88542565Y-89838685D01*
X88620314Y-89902492D01*
X88613958Y-89907708D01*
X88527547Y-90013000D01*
X88163072Y-90013000D01*
X88163072Y-89943750D01*
X88150812Y-89819268D01*
X88114502Y-89699570D01*
X88111391Y-89693750D01*
X88114502Y-89687930D01*
X88150812Y-89568232D01*
X88163072Y-89443750D01*
X88160000Y-89129500D01*
X88001250Y-88970750D01*
X86952000Y-88970750D01*
X86952000Y-88990750D01*
X86698000Y-88990750D01*
X86698000Y-88970750D01*
X86678000Y-88970750D01*
X86678000Y-88716750D01*
X86698000Y-88716750D01*
X86698000Y-88696750D01*
X86952000Y-88696750D01*
X86952000Y-88716750D01*
X88001250Y-88716750D01*
X88160000Y-88558000D01*
X88163072Y-88243750D01*
X88150812Y-88119268D01*
X88114502Y-87999570D01*
X88100033Y-87972500D01*
X88533386Y-87972500D01*
X88463213Y-88058006D01*
G36*
X80676458Y-88032708D02*
G01*
X80566792Y-88166336D01*
X80485303Y-88318791D01*
X80435122Y-88484215D01*
X80418178Y-88656250D01*
X80418178Y-89143750D01*
X80435122Y-89315785D01*
X80485303Y-89481209D01*
X80566792Y-89633664D01*
X80676458Y-89767292D01*
X80682814Y-89772508D01*
X80605065Y-89836315D01*
X80525713Y-89933006D01*
X80466748Y-90043320D01*
X80430438Y-90163018D01*
X80418178Y-90287500D01*
X80421250Y-90489250D01*
X80580000Y-90648000D01*
X81629250Y-90648000D01*
X81629250Y-90628000D01*
X81883250Y-90628000D01*
X81883250Y-90648000D01*
X81903250Y-90648000D01*
X81903250Y-90902000D01*
X81883250Y-90902000D01*
X81883250Y-90922000D01*
X81629250Y-90922000D01*
X81629250Y-90902000D01*
X80580000Y-90902000D01*
X80421250Y-91060750D01*
X80418178Y-91262500D01*
X80430438Y-91386982D01*
X80466748Y-91506680D01*
X80525713Y-91616994D01*
X80605065Y-91713685D01*
X80641002Y-91743178D01*
X80506250Y-91743178D01*
X80334215Y-91760122D01*
X80168791Y-91810303D01*
X80016336Y-91891792D01*
X79882708Y-92001458D01*
X79831571Y-92063769D01*
X79811787Y-92026756D01*
X79732435Y-91930065D01*
X79635744Y-91850713D01*
X79525430Y-91791748D01*
X79405732Y-91755438D01*
X79281250Y-91743178D01*
X78867000Y-91746250D01*
X78708250Y-91905000D01*
X78708250Y-92741750D01*
X78728250Y-92741750D01*
X78728250Y-92995750D01*
X78708250Y-92995750D01*
X78708250Y-93015750D01*
X78454250Y-93015750D01*
X78454250Y-92995750D01*
X77405000Y-92995750D01*
X77246250Y-93154500D01*
X77243178Y-93356250D01*
X77255438Y-93480732D01*
X77256374Y-93483818D01*
X77120750Y-93619442D01*
X77120750Y-92381250D01*
X77243178Y-92381250D01*
X77246250Y-92583000D01*
X77405000Y-92741750D01*
X78454250Y-92741750D01*
X78454250Y-91905000D01*
X78295500Y-91746250D01*
X77881250Y-91743178D01*
X77756768Y-91755438D01*
X77637070Y-91791748D01*
X77526756Y-91850713D01*
X77430065Y-91930065D01*
X77350713Y-92026756D01*
X77291748Y-92137070D01*
X77255438Y-92256768D01*
X77243178Y-92381250D01*
X77120750Y-92381250D01*
X77120750Y-87972500D01*
X80749821Y-87972500D01*
X80676458Y-88032708D01*
X80676458Y-88032708D01*
G37*
X80676458Y-88032708D02*
X80566792Y-88166336D01*
X80485303Y-88318791D01*
X80435122Y-88484215D01*
X80418178Y-88656250D01*
X80418178Y-89143750D01*
X80435122Y-89315785D01*
X80485303Y-89481209D01*
X80566792Y-89633664D01*
X80676458Y-89767292D01*
X80682814Y-89772508D01*
X80605065Y-89836315D01*
X80525713Y-89933006D01*
X80466748Y-90043320D01*
X80430438Y-90163018D01*
X80418178Y-90287500D01*
X80421250Y-90489250D01*
X80580000Y-90648000D01*
X81629250Y-90648000D01*
X81629250Y-90628000D01*
X81883250Y-90628000D01*
X81883250Y-90648000D01*
X81903250Y-90648000D01*
X81903250Y-90902000D01*
X81883250Y-90902000D01*
X81883250Y-90922000D01*
X81629250Y-90922000D01*
X81629250Y-90902000D01*
X80580000Y-90902000D01*
X80421250Y-91060750D01*
X80418178Y-91262500D01*
X80430438Y-91386982D01*
X80466748Y-91506680D01*
X80525713Y-91616994D01*
X80605065Y-91713685D01*
X80641002Y-91743178D01*
X80506250Y-91743178D01*
X80334215Y-91760122D01*
X80168791Y-91810303D01*
X80016336Y-91891792D01*
X79882708Y-92001458D01*
X79831571Y-92063769D01*
X79811787Y-92026756D01*
X79732435Y-91930065D01*
X79635744Y-91850713D01*
X79525430Y-91791748D01*
X79405732Y-91755438D01*
X79281250Y-91743178D01*
X78867000Y-91746250D01*
X78708250Y-91905000D01*
X78708250Y-92741750D01*
X78728250Y-92741750D01*
X78728250Y-92995750D01*
X78708250Y-92995750D01*
X78708250Y-93015750D01*
X78454250Y-93015750D01*
X78454250Y-92995750D01*
X77405000Y-92995750D01*
X77246250Y-93154500D01*
X77243178Y-93356250D01*
X77255438Y-93480732D01*
X77256374Y-93483818D01*
X77120750Y-93619442D01*
X77120750Y-92381250D01*
X77243178Y-92381250D01*
X77246250Y-92583000D01*
X77405000Y-92741750D01*
X78454250Y-92741750D01*
X78454250Y-91905000D01*
X78295500Y-91746250D01*
X77881250Y-91743178D01*
X77756768Y-91755438D01*
X77637070Y-91791748D01*
X77526756Y-91850713D01*
X77430065Y-91930065D01*
X77350713Y-92026756D01*
X77291748Y-92137070D01*
X77255438Y-92256768D01*
X77243178Y-92381250D01*
X77120750Y-92381250D01*
X77120750Y-87972500D01*
X80749821Y-87972500D01*
X80676458Y-88032708D01*
G36*
X84752000Y-90416750D02*
G01*
X84772000Y-90416750D01*
X84772000Y-90670750D01*
X84752000Y-90670750D01*
X84752000Y-91620000D01*
X84910750Y-91778750D01*
X85325000Y-91781822D01*
X85449482Y-91769562D01*
X85569180Y-91733252D01*
X85679494Y-91674287D01*
X85725000Y-91636941D01*
X85757076Y-91663265D01*
X85753064Y-91704000D01*
X85756750Y-91741423D01*
X85756750Y-92966002D01*
X84454374Y-91663626D01*
X84498000Y-91620000D01*
X84498000Y-90670750D01*
X84478000Y-90670750D01*
X84478000Y-90416750D01*
X84498000Y-90416750D01*
X84498000Y-90396750D01*
X84752000Y-90396750D01*
X84752000Y-90416750D01*
X84752000Y-90416750D01*
G37*
X84752000Y-90416750D02*
X84772000Y-90416750D01*
X84772000Y-90670750D01*
X84752000Y-90670750D01*
X84752000Y-91620000D01*
X84910750Y-91778750D01*
X85325000Y-91781822D01*
X85449482Y-91769562D01*
X85569180Y-91733252D01*
X85679494Y-91674287D01*
X85725000Y-91636941D01*
X85757076Y-91663265D01*
X85753064Y-91704000D01*
X85756750Y-91741423D01*
X85756750Y-92966002D01*
X84454374Y-91663626D01*
X84498000Y-91620000D01*
X84498000Y-90670750D01*
X84478000Y-90670750D01*
X84478000Y-90416750D01*
X84498000Y-90416750D01*
X84498000Y-90396750D01*
X84752000Y-90396750D01*
X84752000Y-90416750D01*
G36*
X69655237Y-89691110D02*
G01*
X69740151Y-89971033D01*
X69878044Y-90229013D01*
X70063616Y-90455134D01*
X70289736Y-90640706D01*
X70356750Y-90676526D01*
X70356751Y-91623475D01*
X70289737Y-91659294D01*
X70063617Y-91844866D01*
X69908873Y-92033421D01*
X69853156Y-91926366D01*
X69774873Y-91828807D01*
X69679061Y-91748396D01*
X69569402Y-91688221D01*
X69450111Y-91650596D01*
X69350500Y-91640000D01*
X69191750Y-91798750D01*
X69191750Y-93273000D01*
X69215750Y-93273000D01*
X69215750Y-93527000D01*
X69191750Y-93527000D01*
X69191750Y-95001250D01*
X69350500Y-95160000D01*
X69450111Y-95149404D01*
X69569402Y-95111779D01*
X69679061Y-95051604D01*
X69774873Y-94971193D01*
X69853156Y-94873634D01*
X69908873Y-94766578D01*
X70063616Y-94955134D01*
X70289736Y-95140706D01*
X70547716Y-95278599D01*
X70827639Y-95363513D01*
X71118750Y-95392185D01*
X71409860Y-95363513D01*
X71689783Y-95278599D01*
X71947763Y-95140706D01*
X72104250Y-95012281D01*
X72104250Y-95916750D01*
X71527411Y-95916750D01*
X71525812Y-95900518D01*
X71489502Y-95780820D01*
X71430537Y-95670506D01*
X71351185Y-95573815D01*
X71254494Y-95494463D01*
X71144180Y-95435498D01*
X71024482Y-95399188D01*
X70900000Y-95386928D01*
X69100000Y-95386928D01*
X68975518Y-95399188D01*
X68855820Y-95435498D01*
X68745506Y-95494463D01*
X68648815Y-95573815D01*
X68569463Y-95670506D01*
X68510498Y-95780820D01*
X68474188Y-95900518D01*
X68472589Y-95916750D01*
X68230750Y-95916750D01*
X68230750Y-95163072D01*
X68518750Y-95163072D01*
X68643232Y-95150812D01*
X68668016Y-95143294D01*
X68687389Y-95149404D01*
X68787000Y-95160000D01*
X68945750Y-95001250D01*
X68945750Y-94996033D01*
X68969935Y-94976185D01*
X69049287Y-94879494D01*
X69108252Y-94769180D01*
X69144562Y-94649482D01*
X69156822Y-94525000D01*
X69156822Y-92275000D01*
X69144562Y-92150518D01*
X69108252Y-92030820D01*
X69049287Y-91920506D01*
X68969935Y-91823815D01*
X68945750Y-91803967D01*
X68945750Y-91798750D01*
X68787000Y-91640000D01*
X68687389Y-91650596D01*
X68668016Y-91656706D01*
X68643232Y-91649188D01*
X68518750Y-91636928D01*
X68018750Y-91636928D01*
X67894268Y-91649188D01*
X67868750Y-91656929D01*
X67843232Y-91649188D01*
X67718750Y-91636928D01*
X67218750Y-91636928D01*
X67094268Y-91649188D01*
X67068750Y-91656929D01*
X67043232Y-91649188D01*
X66918750Y-91636928D01*
X66418750Y-91636928D01*
X66294268Y-91649188D01*
X66268750Y-91656929D01*
X66243232Y-91649188D01*
X66118750Y-91636928D01*
X65618750Y-91636928D01*
X65494268Y-91649188D01*
X65374570Y-91685498D01*
X65264256Y-91744463D01*
X65167565Y-91823815D01*
X65088213Y-91920506D01*
X65029248Y-92030820D01*
X65028504Y-92033271D01*
X64873884Y-91844866D01*
X64647764Y-91659294D01*
X64580750Y-91623474D01*
X64580750Y-90676525D01*
X64647763Y-90640706D01*
X64873884Y-90455134D01*
X65059456Y-90229014D01*
X65197349Y-89971034D01*
X65282263Y-89691111D01*
X65285130Y-89662000D01*
X69652370Y-89662000D01*
X69655237Y-89691110D01*
X69655237Y-89691110D01*
G37*
X69655237Y-89691110D02*
X69740151Y-89971033D01*
X69878044Y-90229013D01*
X70063616Y-90455134D01*
X70289736Y-90640706D01*
X70356750Y-90676526D01*
X70356751Y-91623475D01*
X70289737Y-91659294D01*
X70063617Y-91844866D01*
X69908873Y-92033421D01*
X69853156Y-91926366D01*
X69774873Y-91828807D01*
X69679061Y-91748396D01*
X69569402Y-91688221D01*
X69450111Y-91650596D01*
X69350500Y-91640000D01*
X69191750Y-91798750D01*
X69191750Y-93273000D01*
X69215750Y-93273000D01*
X69215750Y-93527000D01*
X69191750Y-93527000D01*
X69191750Y-95001250D01*
X69350500Y-95160000D01*
X69450111Y-95149404D01*
X69569402Y-95111779D01*
X69679061Y-95051604D01*
X69774873Y-94971193D01*
X69853156Y-94873634D01*
X69908873Y-94766578D01*
X70063616Y-94955134D01*
X70289736Y-95140706D01*
X70547716Y-95278599D01*
X70827639Y-95363513D01*
X71118750Y-95392185D01*
X71409860Y-95363513D01*
X71689783Y-95278599D01*
X71947763Y-95140706D01*
X72104250Y-95012281D01*
X72104250Y-95916750D01*
X71527411Y-95916750D01*
X71525812Y-95900518D01*
X71489502Y-95780820D01*
X71430537Y-95670506D01*
X71351185Y-95573815D01*
X71254494Y-95494463D01*
X71144180Y-95435498D01*
X71024482Y-95399188D01*
X70900000Y-95386928D01*
X69100000Y-95386928D01*
X68975518Y-95399188D01*
X68855820Y-95435498D01*
X68745506Y-95494463D01*
X68648815Y-95573815D01*
X68569463Y-95670506D01*
X68510498Y-95780820D01*
X68474188Y-95900518D01*
X68472589Y-95916750D01*
X68230750Y-95916750D01*
X68230750Y-95163072D01*
X68518750Y-95163072D01*
X68643232Y-95150812D01*
X68668016Y-95143294D01*
X68687389Y-95149404D01*
X68787000Y-95160000D01*
X68945750Y-95001250D01*
X68945750Y-94996033D01*
X68969935Y-94976185D01*
X69049287Y-94879494D01*
X69108252Y-94769180D01*
X69144562Y-94649482D01*
X69156822Y-94525000D01*
X69156822Y-92275000D01*
X69144562Y-92150518D01*
X69108252Y-92030820D01*
X69049287Y-91920506D01*
X68969935Y-91823815D01*
X68945750Y-91803967D01*
X68945750Y-91798750D01*
X68787000Y-91640000D01*
X68687389Y-91650596D01*
X68668016Y-91656706D01*
X68643232Y-91649188D01*
X68518750Y-91636928D01*
X68018750Y-91636928D01*
X67894268Y-91649188D01*
X67868750Y-91656929D01*
X67843232Y-91649188D01*
X67718750Y-91636928D01*
X67218750Y-91636928D01*
X67094268Y-91649188D01*
X67068750Y-91656929D01*
X67043232Y-91649188D01*
X66918750Y-91636928D01*
X66418750Y-91636928D01*
X66294268Y-91649188D01*
X66268750Y-91656929D01*
X66243232Y-91649188D01*
X66118750Y-91636928D01*
X65618750Y-91636928D01*
X65494268Y-91649188D01*
X65374570Y-91685498D01*
X65264256Y-91744463D01*
X65167565Y-91823815D01*
X65088213Y-91920506D01*
X65029248Y-92030820D01*
X65028504Y-92033271D01*
X64873884Y-91844866D01*
X64647764Y-91659294D01*
X64580750Y-91623474D01*
X64580750Y-90676525D01*
X64647763Y-90640706D01*
X64873884Y-90455134D01*
X65059456Y-90229014D01*
X65197349Y-89971034D01*
X65282263Y-89691111D01*
X65285130Y-89662000D01*
X69652370Y-89662000D01*
X69655237Y-89691110D01*
M02*
