M48
; DRILL file {KiCad (5.1.4)-1} date 3/6/2023 1:27:09 PM
; FORMAT={-:-/ absolute / inch / decimal}
; #@! TF.CreationDate,2023-03-06T13:27:09+02:00
; #@! TF.GenerationSoftware,Kicad,Pcbnew,(5.1.4)-1
; #@! TF.FileFunction,Plated,1,2,PTH
FMAT,2
INCH
T1C0.0157
T2C0.0276
T3C0.0579
%
G90
G05
T1
X3.0938Y-3.8125
X3.0938Y-4.0
X3.0964Y-4.2044
X3.1875Y-4.25
X3.2812Y-3.6875
X3.3118Y-3.7493
X3.5637Y-4.3425
X3.7188Y-3.9375
X3.7812Y-4.0938
X3.9062Y-4.125
X4.0Y-4.5312
X4.125Y-3.9375
X4.3125Y-3.9375
X4.3125Y-4.8438
X4.3674Y-4.657
X4.7188Y-3.9375
X6.2812Y-4.0625
T3
X5.0062Y-3.7125
X5.0578Y-3.655
X5.2547Y-3.6353
X5.2562Y-3.6125
X4.2562Y-5.2125
X4.3078Y-5.155
X4.5047Y-5.1353
X4.5062Y-5.1125
X5.0062Y-5.9625
X5.0578Y-5.905
X5.2547Y-5.8853
X5.2562Y-5.8625
X5.0062Y-5.2125
X5.0578Y-5.155
X5.2547Y-5.1353
X5.2562Y-5.1125
X5.7562Y-5.9625
X5.8078Y-5.905
X6.0047Y-5.8853
X6.0062Y-5.8625
X6.5062Y-3.7125
X6.5578Y-3.655
X6.7547Y-3.6353
X6.7562Y-3.6125
X5.7562Y-4.4625
X5.8078Y-4.405
X6.0047Y-4.3853
X6.0062Y-4.3625
X6.5062Y-5.2125
X6.5578Y-5.155
X6.7547Y-5.1353
X6.7562Y-5.1125
X7.2562Y-5.9625
X7.3078Y-5.905
X7.5047Y-5.8853
X7.5062Y-5.8625
X5.7562Y-5.2125
X5.8078Y-5.155
X6.0047Y-5.1353
X6.0062Y-5.1125
X7.2562Y-4.4625
X7.3078Y-4.405
X7.5047Y-4.3853
X7.5062Y-4.3625
X7.2562Y-3.7125
X7.3078Y-3.655
X7.5047Y-3.6353
X7.5062Y-3.6125
X6.5062Y-4.4625
X6.5578Y-4.405
X6.7547Y-4.3853
X6.7562Y-4.3625
X7.2562Y-5.2125
X7.3078Y-5.155
X7.5047Y-5.1353
X7.5062Y-5.1125
X4.2562Y-3.7125
X4.3078Y-3.655
X4.5047Y-3.6353
X4.5062Y-3.6125
X4.2562Y-5.9625
X4.3078Y-5.905
X4.5047Y-5.8853
X4.5062Y-5.8625
X5.7562Y-3.7125
X5.8078Y-3.655
X6.0047Y-3.6353
X6.0062Y-3.6125
X5.0062Y-4.4625
X5.0578Y-4.405
X5.2547Y-4.3853
X5.2562Y-4.3625
X6.5062Y-5.9625
X6.5578Y-5.905
X6.7547Y-5.8853
X6.7562Y-5.8625
X4.2562Y-4.4625
X4.3078Y-4.405
X4.5047Y-4.3853
X4.5062Y-4.3625
T2
G00X2.5125Y-3.4764
M15
G01X2.5125Y-3.5236
M16
G05
G00X2.5125Y-3.6535
M15
G01X2.5125Y-3.7008
M16
G05
G00X2.8Y-3.4764
M15
G01X2.8Y-3.5236
M16
G05
G00X2.8Y-3.6535
M15
G01X2.8Y-3.7008
M16
G05
T0
M30
