G04 #@! TF.GenerationSoftware,KiCad,Pcbnew,(5.1.4)-1*
G04 #@! TF.CreationDate,2023-03-06T13:27:41+02:00*
G04 #@! TF.ProjectId,Keyboard,4b657962-6f61-4726-942e-6b696361645f,rev?*
G04 #@! TF.SameCoordinates,Original*
G04 #@! TF.FileFunction,Legend,Top*
G04 #@! TF.FilePolarity,Positive*
%FSLAX46Y46*%
G04 Gerber Fmt 4.6, Leading zero omitted, Abs format (unit mm)*
G04 Created by KiCad (PCBNEW (5.1.4)-1) date 2023-03-06 13:27:41*
%MOMM*%
%LPD*%
G04 APERTURE LIST*
%ADD10C,0.150000*%
%ADD11O,1.802000X2.802000*%
%ADD12C,1.852000*%
%ADD13C,4.089800*%
G04 APERTURE END LIST*
D10*
X63191383Y-160123214D02*
X63090193Y-160932738D01*
X63030669Y-161027976D01*
X62977098Y-161075595D01*
X62875907Y-161123214D01*
X62733050Y-161123214D01*
X62643764Y-161075595D01*
X63114002Y-160742261D02*
X63012812Y-160789880D01*
X62822336Y-160789880D01*
X62733050Y-160742261D01*
X62691383Y-160694642D01*
X62655669Y-160599404D01*
X62691383Y-160313690D01*
X62750907Y-160218452D01*
X62804479Y-160170833D01*
X62905669Y-160123214D01*
X63096145Y-160123214D01*
X63185431Y-160170833D01*
X63584241Y-160789880D02*
X63667574Y-160123214D01*
X63709241Y-159789880D02*
X63655669Y-159837500D01*
X63697336Y-159885119D01*
X63750907Y-159837500D01*
X63709241Y-159789880D01*
X63697336Y-159885119D01*
X64000907Y-160123214D02*
X64381860Y-160123214D01*
X64185431Y-159789880D02*
X64078288Y-160647023D01*
X64114002Y-160742261D01*
X64203288Y-160789880D01*
X64298526Y-160789880D01*
X64631860Y-160789880D02*
X64756860Y-159789880D01*
X65060431Y-160789880D02*
X65125907Y-160266071D01*
X65090193Y-160170833D01*
X65000907Y-160123214D01*
X64858050Y-160123214D01*
X64756860Y-160170833D01*
X64703288Y-160218452D01*
X66048526Y-160123214D02*
X65965193Y-160789880D01*
X65619955Y-160123214D02*
X65554479Y-160647023D01*
X65590193Y-160742261D01*
X65679479Y-160789880D01*
X65822336Y-160789880D01*
X65923526Y-160742261D01*
X65977098Y-160694642D01*
X66441383Y-160789880D02*
X66566383Y-159789880D01*
X66518764Y-160170833D02*
X66619955Y-160123214D01*
X66810431Y-160123214D01*
X66899717Y-160170833D01*
X66941383Y-160218452D01*
X66977098Y-160313690D01*
X66941383Y-160599404D01*
X66881860Y-160694642D01*
X66828288Y-160742261D01*
X66727098Y-160789880D01*
X66536622Y-160789880D01*
X66447336Y-160742261D01*
X67358050Y-160694642D02*
X67399717Y-160742261D01*
X67346145Y-160789880D01*
X67304479Y-160742261D01*
X67358050Y-160694642D01*
X67346145Y-160789880D01*
X68256860Y-160742261D02*
X68155669Y-160789880D01*
X67965193Y-160789880D01*
X67875907Y-160742261D01*
X67834241Y-160694642D01*
X67798526Y-160599404D01*
X67834241Y-160313690D01*
X67893764Y-160218452D01*
X67947336Y-160170833D01*
X68048526Y-160123214D01*
X68239002Y-160123214D01*
X68328288Y-160170833D01*
X68822336Y-160789880D02*
X68733050Y-160742261D01*
X68691383Y-160694642D01*
X68655669Y-160599404D01*
X68691383Y-160313690D01*
X68750907Y-160218452D01*
X68804479Y-160170833D01*
X68905669Y-160123214D01*
X69048526Y-160123214D01*
X69137812Y-160170833D01*
X69179479Y-160218452D01*
X69215193Y-160313690D01*
X69179479Y-160599404D01*
X69119955Y-160694642D01*
X69066383Y-160742261D01*
X68965193Y-160789880D01*
X68822336Y-160789880D01*
X69584241Y-160789880D02*
X69667574Y-160123214D01*
X69655669Y-160218452D02*
X69709241Y-160170833D01*
X69810431Y-160123214D01*
X69953288Y-160123214D01*
X70042574Y-160170833D01*
X70078288Y-160266071D01*
X70012812Y-160789880D01*
X70078288Y-160266071D02*
X70137812Y-160170833D01*
X70239002Y-160123214D01*
X70381860Y-160123214D01*
X70471145Y-160170833D01*
X70506860Y-160266071D01*
X70441383Y-160789880D01*
X71762812Y-159742261D02*
X70744955Y-161027976D01*
X72393764Y-160789880D02*
X72459241Y-160266071D01*
X72423526Y-160170833D01*
X72334241Y-160123214D01*
X72143764Y-160123214D01*
X72042574Y-160170833D01*
X72399717Y-160742261D02*
X72298526Y-160789880D01*
X72060431Y-160789880D01*
X71971145Y-160742261D01*
X71935431Y-160647023D01*
X71947336Y-160551785D01*
X72006860Y-160456547D01*
X72108050Y-160408928D01*
X72346145Y-160408928D01*
X72447336Y-160361309D01*
X73012812Y-160789880D02*
X72923526Y-160742261D01*
X72887812Y-160647023D01*
X72994955Y-159789880D01*
X73780669Y-160742261D02*
X73679479Y-160789880D01*
X73489002Y-160789880D01*
X73399717Y-160742261D01*
X73364002Y-160647023D01*
X73411622Y-160266071D01*
X73471145Y-160170833D01*
X73572336Y-160123214D01*
X73762812Y-160123214D01*
X73852098Y-160170833D01*
X73887812Y-160266071D01*
X73875907Y-160361309D01*
X73387812Y-160456547D01*
X74155669Y-160789880D02*
X74762812Y-160123214D01*
X74239002Y-160123214D02*
X74679479Y-160789880D01*
X75000907Y-160123214D02*
X75381860Y-160123214D01*
X75060431Y-160789880D02*
X75167574Y-159932738D01*
X75227098Y-159837500D01*
X75328288Y-159789880D01*
X75423526Y-159789880D01*
X76018764Y-160742261D02*
X75917574Y-160789880D01*
X75727098Y-160789880D01*
X75637812Y-160742261D01*
X75602098Y-160647023D01*
X75649717Y-160266071D01*
X75709241Y-160170833D01*
X75810431Y-160123214D01*
X76000907Y-160123214D01*
X76090193Y-160170833D01*
X76125907Y-160266071D01*
X76114002Y-160361309D01*
X75625907Y-160456547D01*
X76875907Y-160742261D02*
X76774717Y-160789880D01*
X76584241Y-160789880D01*
X76494955Y-160742261D01*
X76459241Y-160647023D01*
X76506860Y-160266071D01*
X76566383Y-160170833D01*
X76667574Y-160123214D01*
X76858050Y-160123214D01*
X76947336Y-160170833D01*
X76983050Y-160266071D01*
X76971145Y-160361309D01*
X76483050Y-160456547D01*
X77774717Y-160789880D02*
X77899717Y-159789880D01*
X77780669Y-160742261D02*
X77679479Y-160789880D01*
X77489002Y-160789880D01*
X77399717Y-160742261D01*
X77358050Y-160694642D01*
X77322336Y-160599404D01*
X77358050Y-160313690D01*
X77417574Y-160218452D01*
X77471145Y-160170833D01*
X77572336Y-160123214D01*
X77762812Y-160123214D01*
X77852098Y-160170833D01*
X78774717Y-160789880D02*
X78203288Y-160789880D01*
X78489002Y-160789880D02*
X78614002Y-159789880D01*
X78500907Y-159932738D01*
X78393764Y-160027976D01*
X78292574Y-160075595D01*
X79250907Y-160789880D02*
X79441383Y-160789880D01*
X79542574Y-160742261D01*
X79596145Y-160694642D01*
X79709241Y-160551785D01*
X79780669Y-160361309D01*
X79828288Y-159980357D01*
X79792574Y-159885119D01*
X79750907Y-159837500D01*
X79661622Y-159789880D01*
X79471145Y-159789880D01*
X79369955Y-159837500D01*
X79316383Y-159885119D01*
X79256860Y-159980357D01*
X79227098Y-160218452D01*
X79262812Y-160313690D01*
X79304479Y-160361309D01*
X79393764Y-160408928D01*
X79584241Y-160408928D01*
X79685431Y-160361309D01*
X79739002Y-160313690D01*
X79798526Y-160218452D01*
X80203288Y-160789880D02*
X80393764Y-160789880D01*
X80494955Y-160742261D01*
X80548526Y-160694642D01*
X80661622Y-160551785D01*
X80733050Y-160361309D01*
X80780669Y-159980357D01*
X80744955Y-159885119D01*
X80703288Y-159837500D01*
X80614002Y-159789880D01*
X80423526Y-159789880D01*
X80322336Y-159837500D01*
X80268764Y-159885119D01*
X80209241Y-159980357D01*
X80179479Y-160218452D01*
X80215193Y-160313690D01*
X80256860Y-160361309D01*
X80346145Y-160408928D01*
X80536622Y-160408928D01*
X80637812Y-160361309D01*
X80691383Y-160313690D01*
X80750907Y-160218452D01*
X81423526Y-159789880D02*
X81518764Y-159789880D01*
X81608050Y-159837500D01*
X81649717Y-159885119D01*
X81685431Y-159980357D01*
X81709241Y-160170833D01*
X81679479Y-160408928D01*
X81608050Y-160599404D01*
X81548526Y-160694642D01*
X81494955Y-160742261D01*
X81393764Y-160789880D01*
X81298526Y-160789880D01*
X81209241Y-160742261D01*
X81167574Y-160694642D01*
X81131860Y-160599404D01*
X81108050Y-160408928D01*
X81137812Y-160170833D01*
X81209241Y-159980357D01*
X81268764Y-159885119D01*
X81322336Y-159837500D01*
X81423526Y-159789880D01*
X82905669Y-159742261D02*
X81887812Y-161027976D01*
X83108050Y-160789880D02*
X83233050Y-159789880D01*
X83477098Y-160504166D01*
X83899717Y-159789880D01*
X83774717Y-160789880D01*
X84679479Y-160789880D02*
X84744955Y-160266071D01*
X84709241Y-160170833D01*
X84619955Y-160123214D01*
X84429479Y-160123214D01*
X84328288Y-160170833D01*
X84685431Y-160742261D02*
X84584241Y-160789880D01*
X84346145Y-160789880D01*
X84256860Y-160742261D01*
X84221145Y-160647023D01*
X84233050Y-160551785D01*
X84292574Y-160456547D01*
X84393764Y-160408928D01*
X84631860Y-160408928D01*
X84733050Y-160361309D01*
X85590193Y-160742261D02*
X85489002Y-160789880D01*
X85298526Y-160789880D01*
X85209241Y-160742261D01*
X85167574Y-160694642D01*
X85131860Y-160599404D01*
X85167574Y-160313690D01*
X85227098Y-160218452D01*
X85280669Y-160170833D01*
X85381860Y-160123214D01*
X85572336Y-160123214D01*
X85661622Y-160170833D01*
X86012812Y-160789880D02*
X86096145Y-160123214D01*
X86072336Y-160313690D02*
X86131860Y-160218452D01*
X86185431Y-160170833D01*
X86286622Y-160123214D01*
X86381860Y-160123214D01*
X86774717Y-160789880D02*
X86685431Y-160742261D01*
X86643764Y-160694642D01*
X86608050Y-160599404D01*
X86643764Y-160313690D01*
X86703288Y-160218452D01*
X86756860Y-160170833D01*
X86858050Y-160123214D01*
X87000907Y-160123214D01*
X87090193Y-160170833D01*
X87131860Y-160218452D01*
X87167574Y-160313690D01*
X87131860Y-160599404D01*
X87072336Y-160694642D01*
X87018764Y-160742261D01*
X86917574Y-160789880D01*
X86774717Y-160789880D01*
X87584241Y-160408928D02*
X88346145Y-160408928D01*
X88774717Y-160789880D02*
X88899717Y-159789880D01*
X89280669Y-159789880D01*
X89369955Y-159837500D01*
X89411622Y-159885119D01*
X89447336Y-159980357D01*
X89429479Y-160123214D01*
X89369955Y-160218452D01*
X89316383Y-160266071D01*
X89215193Y-160313690D01*
X88834241Y-160313690D01*
X90203288Y-160789880D02*
X90268764Y-160266071D01*
X90233050Y-160170833D01*
X90143764Y-160123214D01*
X89953288Y-160123214D01*
X89852098Y-160170833D01*
X90209241Y-160742261D02*
X90108050Y-160789880D01*
X89869955Y-160789880D01*
X89780669Y-160742261D01*
X89744955Y-160647023D01*
X89756860Y-160551785D01*
X89816383Y-160456547D01*
X89917574Y-160408928D01*
X90155669Y-160408928D01*
X90256860Y-160361309D01*
X91108050Y-160789880D02*
X91233050Y-159789880D01*
X91114002Y-160742261D02*
X91012812Y-160789880D01*
X90822336Y-160789880D01*
X90733050Y-160742261D01*
X90691383Y-160694642D01*
X90655669Y-160599404D01*
X90691383Y-160313690D01*
X90750907Y-160218452D01*
X90804479Y-160170833D01*
X90905669Y-160123214D01*
X91096145Y-160123214D01*
X91185431Y-160170833D01*
%LPC*%
D11*
X63818750Y-88900000D03*
X71118750Y-88900000D03*
X71118750Y-93400000D03*
X63818750Y-93400000D03*
D12*
X193198750Y-153987500D03*
X183038750Y-153987500D03*
D13*
X188118750Y-153987500D03*
D12*
X174148750Y-153987500D03*
X163988750Y-153987500D03*
D13*
X169068750Y-153987500D03*
D12*
X155098750Y-153987500D03*
X144938750Y-153987500D03*
D13*
X150018750Y-153987500D03*
D12*
X136048750Y-153987500D03*
X125888750Y-153987500D03*
D13*
X130968750Y-153987500D03*
D12*
X116998750Y-153987500D03*
X106838750Y-153987500D03*
D13*
X111918750Y-153987500D03*
D12*
X193198750Y-134937500D03*
X183038750Y-134937500D03*
D13*
X188118750Y-134937500D03*
D12*
X174148750Y-134937500D03*
X163988750Y-134937500D03*
D13*
X169068750Y-134937500D03*
D12*
X155098750Y-134937500D03*
X144938750Y-134937500D03*
D13*
X150018750Y-134937500D03*
D12*
X136048750Y-134937500D03*
X125888750Y-134937500D03*
D13*
X130968750Y-134937500D03*
D12*
X116998750Y-134937500D03*
X106838750Y-134937500D03*
D13*
X111918750Y-134937500D03*
D12*
X193198750Y-115887500D03*
X183038750Y-115887500D03*
D13*
X188118750Y-115887500D03*
D12*
X174148750Y-115887500D03*
X163988750Y-115887500D03*
D13*
X169068750Y-115887500D03*
D12*
X155098750Y-115887500D03*
X144938750Y-115887500D03*
D13*
X150018750Y-115887500D03*
D12*
X136048750Y-115887500D03*
X125888750Y-115887500D03*
D13*
X130968750Y-115887500D03*
D12*
X116998750Y-115887500D03*
X106838750Y-115887500D03*
D13*
X111918750Y-115887500D03*
D12*
X193198750Y-96837500D03*
X183038750Y-96837500D03*
D13*
X188118750Y-96837500D03*
D12*
X174148750Y-96837500D03*
X163988750Y-96837500D03*
D13*
X169068750Y-96837500D03*
D12*
X155098750Y-96837500D03*
X144938750Y-96837500D03*
D13*
X150018750Y-96837500D03*
D12*
X136048750Y-96837500D03*
X125888750Y-96837500D03*
D13*
X130968750Y-96837500D03*
D12*
X116998750Y-96837500D03*
X106838750Y-96837500D03*
D13*
X111918750Y-96837500D03*
M02*
